<svg width="20" height="20" viewBox="0 0 20 20" fill="none" xmlns="http://www.w3.org/2000/svg">
<path d="M13.0968 13.5195H7.08017" stroke="url(#paint0_linear_2_2024)" stroke-width="1.2" stroke-linecap="round" stroke-linejoin="round"/>
<path d="M13.0968 10.0307H7.08017" stroke="url(#paint1_linear_2_2024)" stroke-width="1.2" stroke-linecap="round" stroke-linejoin="round"/>
<path d="M9.37608 6.55009H7.08025" stroke="url(#paint2_linear_2_2024)" stroke-width="1.2" stroke-linecap="round" stroke-linejoin="round"/>
<path fill-rule="evenodd" clip-rule="evenodd" d="M13.2572 2.2915C13.2572 2.2915 6.85967 2.29484 6.84967 2.29484C4.54967 2.309 3.1255 3.82234 3.1255 6.13067V13.794C3.1255 16.114 4.5605 17.6332 6.8805 17.6332C6.8805 17.6332 13.2772 17.6307 13.288 17.6307C15.588 17.6165 17.013 16.1023 17.013 13.794V6.13067C17.013 3.81067 15.5772 2.2915 13.2572 2.2915Z" stroke="url(#paint3_linear_2_2024)" stroke-width="1.2" stroke-linecap="round" stroke-linejoin="round"/>
<defs>
<linearGradient id="paint0_linear_2_2024" x1="13.0968" y1="13.9362" x2="6.94885" y2="10.5014" gradientUnits="userSpaceOnUse">
<stop stop-color="#92A3FD"/>
<stop offset="1" stop-color="#9DCEFF"/>
</linearGradient>
<linearGradient id="paint1_linear_2_2024" x1="13.0968" y1="10.4474" x2="6.94885" y2="7.01259" gradientUnits="userSpaceOnUse">
<stop stop-color="#92A3FD"/>
<stop offset="1" stop-color="#9DCEFF"/>
</linearGradient>
<linearGradient id="paint2_linear_2_2024" x1="9.37608" y1="6.96676" x2="6.43171" y2="6.33906" gradientUnits="userSpaceOnUse">
<stop stop-color="#92A3FD"/>
<stop offset="1" stop-color="#9DCEFF"/>
</linearGradient>
<linearGradient id="paint3_linear_2_2024" x1="17.013" y1="17.6332" x2="-1.51608" y2="16.3353" gradientUnits="userSpaceOnUse">
<stop stop-color="#92A3FD"/>
<stop offset="1" stop-color="#9DCEFF"/>
</linearGradient>
</defs>
</svg>
