<svg width="20" height="20" viewBox="0 0 20 20" fill="none" xmlns="http://www.w3.org/2000/svg">
<path fill-rule="evenodd" clip-rule="evenodd" d="M9.9873 12.7885C6.76429 12.7885 4.01191 13.2758 4.01191 15.2274C4.01191 17.179 6.74683 17.6837 9.9873 17.6837C13.2103 17.6837 15.9619 17.1956 15.9619 15.2448C15.9619 13.294 13.2278 12.7885 9.9873 12.7885Z" stroke="url(#paint0_linear_2_2017)" stroke-width="1.2" stroke-linecap="round" stroke-linejoin="round"/>
<path fill-rule="evenodd" clip-rule="evenodd" d="M9.9873 10.0049C12.1024 10.0049 13.8167 8.28984 13.8167 6.17476C13.8167 4.05968 12.1024 2.3454 9.9873 2.3454C7.87222 2.3454 6.15714 4.05968 6.15714 6.17476C6.15 8.2827 7.85318 9.99778 9.96032 10.0049H9.9873Z" stroke="url(#paint1_linear_2_2017)" stroke-width="1.2" stroke-linecap="round" stroke-linejoin="round"/>
<defs>
<linearGradient id="paint0_linear_2_2017" x1="15.9619" y1="17.6837" x2="0.491676" y2="14.7614" gradientUnits="userSpaceOnUse">
<stop stop-color="#92A3FD"/>
<stop offset="1" stop-color="#9DCEFF"/>
</linearGradient>
<linearGradient id="paint1_linear_2_2017" x1="13.8167" y1="10.0049" x2="3.60808" y2="9.21497" gradientUnits="userSpaceOnUse">
<stop stop-color="#92A3FD"/>
<stop offset="1" stop-color="#9DCEFF"/>
</linearGradient>
</defs>
</svg>
