<svg width="162" height="35" viewBox="0 0 162 35" fill="none" xmlns="http://www.w3.org/2000/svg">
<path d="M42.8276 15.024H39.5156V30H33.3596V15.024H31.1276V9.912H33.3596V9.336C33.3596 6.864 34.0676 4.992 35.4836 3.72C36.8996 2.424 38.9756 1.776 41.7116 1.776C42.1676 1.776 42.5036 1.788 42.7196 1.812V7.032C41.5436 6.96 40.7156 7.128 40.2356 7.536C39.7556 7.944 39.5156 8.676 39.5156 9.732V9.912H42.8276V15.024ZM48.8163 7.824C47.7363 7.824 46.8483 7.512 46.1523 6.888C45.4803 6.24 45.1443 5.448 45.1443 4.512C45.1443 3.552 45.4803 2.76 46.1523 2.136C46.8483 1.488 47.7363 1.164 48.8163 1.164C49.8723 1.164 50.7363 1.488 51.4083 2.136C52.1043 2.76 52.4523 3.552 52.4523 4.512C52.4523 5.448 52.1043 6.24 51.4083 6.888C50.7363 7.512 49.8723 7.824 48.8163 7.824ZM51.8763 9.912V30H45.7203V9.912H51.8763ZM67.5335 24.78V30H64.4015C62.1695 30 60.4295 29.46 59.1815 28.38C57.9335 27.276 57.3095 25.488 57.3095 23.016V15.024H54.8615V9.912H57.3095V5.016H63.4655V9.912H67.4975V15.024H63.4655V23.088C63.4655 23.688 63.6095 24.12 63.8975 24.384C64.1855 24.648 64.6655 24.78 65.3375 24.78H67.5335Z" fill="#1D1617"/>
<path d="M90.2225 12.864C90.2225 14.328 89.8865 15.672 89.2145 16.896C88.5425 18.096 87.5105 19.068 86.1185 19.812C84.7265 20.556 82.9985 20.928 80.9345 20.928H77.1185V30H70.9625V4.728H80.9345C82.9505 4.728 84.6545 5.076 86.0465 5.772C87.4385 6.468 88.4825 7.428 89.1785 8.652C89.8745 9.876 90.2225 11.28 90.2225 12.864ZM80.4665 16.032C81.6425 16.032 82.5185 15.756 83.0945 15.204C83.6705 14.652 83.9585 13.872 83.9585 12.864C83.9585 11.856 83.6705 11.076 83.0945 10.524C82.5185 9.972 81.6425 9.696 80.4665 9.696H77.1185V16.032H80.4665ZM92.2033 19.92C92.2033 17.856 92.5873 16.044 93.3553 14.484C94.1473 12.924 95.2153 11.724 96.5593 10.884C97.9033 10.044 99.4033 9.624 101.059 9.624C102.475 9.624 103.711 9.912 104.767 10.488C105.847 11.064 106.675 11.82 107.251 12.756V9.912H113.407V30H107.251V27.156C106.651 28.092 105.811 28.848 104.731 29.424C103.675 30 102.439 30.288 101.023 30.288C99.3913 30.288 97.9033 29.868 96.5593 29.028C95.2153 28.164 94.1473 26.952 93.3553 25.392C92.5873 23.808 92.2033 21.984 92.2033 19.92ZM107.251 19.956C107.251 18.42 106.819 17.208 105.955 16.32C105.115 15.432 104.083 14.988 102.859 14.988C101.635 14.988 100.591 15.432 99.7273 16.32C98.8873 17.184 98.4673 18.384 98.4673 19.92C98.4673 21.456 98.8873 22.68 99.7273 23.592C100.591 24.48 101.635 24.924 102.859 24.924C104.083 24.924 105.115 24.48 105.955 23.592C106.819 22.704 107.251 21.492 107.251 19.956ZM124.017 3.36V30H117.861V3.36H124.017Z" fill="white"/>
</svg>
