<svg width="317" height="63" viewBox="0 0 317 63" fill="none" xmlns="http://www.w3.org/2000/svg">
<path opacity="0.2" d="M1 56.4999L8.5 48.9999L13.5 56.4999L17 51.9999H19.5L28.5 40.4999L31.5 51.9999L34 45.9999H36.5L42 28.4999L48.5 45.9999H52.5L54.5 40.4999L64 56.4999L69 45.9999H76L81 26.4999L84 45.9999H90.5L92 41.9999H96L98.5 36.9999L100 34.9999L103 36.9999L105 31.9999L114.5 13.4999L122.5 31.9999H126.5L131.5 36.9999L139 31.9999H149.5L158.5 0.999908L165 31.9999H167L168.5 28.9999H170.5L172 27.4999L173 25.4999L175.5 28.4999L178 31.9999H183L188.5 27.4999L190.5 31.9999L196.5 11.9999L203.5 31.9999H206V28.4999L213 42.9999V28.9999H222L230 53.4999L234 28.9999H244.5L247.5 26.4999L249.5 28.9999L252 26.4999L258.5 34.9999L264 38.9999V41.9999L272.5 56.4999L279 31.9999H288L292 22.4999L295 25.4999L297.5 13.4999L308.5 34.9999H316" stroke="url(#paint0_linear_45_413)" stroke-width="1.2" stroke-linecap="round" stroke-linejoin="round"/>
<path d="M1 56.4999L8.5 48.9999L13.5 56.4999L17 51.9999H19.5L28.5 40.4999L31.5 51.9999L34 45.9999H36.5L42 28.4999L48.5 45.9999H52.5L54.5 40.4999L64 56.4999L69 45.9999H76L81 26.4999L84 45.9999H90.5L92 41.9999H96L98.5 36.9999L100 34.9999L103 36.9999L105 31.9999L114.5 13.4999L122.5 31.9999H126.5L131.5 36.9999L139 31.9999H149.5L158.5 0.999908L165 31.9999H167L168.5 28.9999H170.5L172 27.4999L173 25.4999L175.5 28.4999L178 31.9999H183L188.5 27.4999L190.5 31.9999L196.5 11.9999" stroke="url(#paint1_linear_45_413)" stroke-width="1.5" stroke-linecap="round" stroke-linejoin="round"/>
<path opacity="0.5" d="M8.5 48.9999L1 56.4999V62.4999H196.5V11.9999L190.5 31.9999L188.5 27.4999L183 31.9999H178L175.5 28.4999L173 25.4999L172 27.4999L170.5 28.9999H168.5L167 31.9999H165L158.5 0.999908L149.5 31.9999H139L131.5 36.9999L126.5 31.9999H122.5L114.5 13.4999L105 31.9999L103 36.9999L100 34.9999L98.5 36.9999L96 41.9999H92L90.5 45.9999H84L81 26.4999L76 45.9999H69L64 56.4999L54.5 40.4999L52.5 45.9999H48.5L42 28.4999L36.5 45.9999H34L31.5 51.9999L28.5 40.4999L19.5 51.9999H17L13.5 56.4999L8.5 48.9999Z" fill="url(#paint2_linear_45_413)"/>
<defs>
<linearGradient id="paint0_linear_45_413" x1="316" y1="56.4999" x2="-38.0517" y2="-98.9958" gradientUnits="userSpaceOnUse">
<stop stop-color="#92A3FD"/>
<stop offset="1" stop-color="#9DCEFF"/>
</linearGradient>
<linearGradient id="paint1_linear_45_413" x1="196.5" y1="56.4999" x2="-47.4931" y2="-10.0068" gradientUnits="userSpaceOnUse">
<stop stop-color="#92A3FD"/>
<stop offset="1" stop-color="#9DCEFF"/>
</linearGradient>
<linearGradient id="paint2_linear_45_413" x1="98.75" y1="0.999908" x2="98.75" y2="80.9999" gradientUnits="userSpaceOnUse">
<stop stop-color="#93A7FE"/>
<stop offset="1" stop-color="white" stop-opacity="0"/>
</linearGradient>
</defs>
</svg>
