<svg width="18" height="18" viewBox="0 0 18 18" fill="none" xmlns="http://www.w3.org/2000/svg">
<mask id="mask0_2_3017" style="mask-type:luminance" maskUnits="userSpaceOnUse" x="2" y="0" width="15" height="14">
<path fill-rule="evenodd" clip-rule="evenodd" d="M2.25006 0.75H16.1227V13.761H2.25006V0.75Z" fill="white"/>
</mask>
<g mask="url(#mask0_2_3017)">
<path fill-rule="evenodd" clip-rule="evenodd" d="M9.18531 1.875C6.56406 1.875 4.73706 3.9285 4.73706 5.77125C4.73706 7.3305 4.30431 8.05125 3.92181 8.68725C3.61506 9.198 3.37281 9.6015 3.37281 10.4782C3.49806 11.8927 4.43181 12.636 9.18531 12.636C13.9126 12.636 14.8756 11.8597 15.0001 10.4295C14.9978 9.6015 14.7556 9.198 14.4488 8.68725C14.0663 8.05125 13.6336 7.3305 13.6336 5.77125C13.6336 3.9285 11.8066 1.875 9.18531 1.875ZM9.18532 13.761C5.67832 13.761 2.50882 13.5135 2.25007 10.5262C2.24782 9.29025 2.62507 8.66175 2.95807 8.10825C3.29482 7.54725 3.61207 7.0185 3.61207 5.77125C3.61207 3.3465 5.85157 0.75 9.18532 0.75C12.5191 0.75 14.7586 3.3465 14.7586 5.77125C14.7586 7.0185 15.0758 7.54725 15.4126 8.10825C15.7456 8.66175 16.1228 9.29025 16.1228 10.4782C15.8611 13.5135 12.6923 13.761 9.18532 13.761Z" fill="#1D1617"/>
</g>
<path fill-rule="evenodd" clip-rule="evenodd" d="M9.1487 16.875H9.1472C8.30645 16.8743 7.5107 16.5038 6.90695 15.831C6.6992 15.6008 6.71795 15.2445 6.94895 15.0375C7.17995 14.829 7.53545 14.8478 7.7432 15.0795C8.1317 15.5123 8.63045 15.75 9.14795 15.75H9.1487C9.66845 15.75 10.1695 15.5123 10.5587 15.0788C10.7672 14.8485 11.1227 14.8298 11.353 15.0375C11.584 15.2453 11.6027 15.6015 11.395 15.8318C10.789 16.5045 9.9917 16.875 9.1487 16.875Z" fill="#1D1617"/>
<circle cx="12.5" cy="2.5" r="2.5" fill="#F7F8F8"/>
<circle cx="12.5" cy="2.5" r="1.5" fill="#FF0000"/>
</svg>
