<svg width="110" height="78" viewBox="0 0 110 78" fill="none" xmlns="http://www.w3.org/2000/svg">
<mask id="mask0_68_478" style="mask-type:alpha" maskUnits="userSpaceOnUse" x="0" y="0" width="110" height="78">
<rect y="-9.15527e-05" width="110" height="78" rx="12" fill="#C4C4C4"/>
</mask>
<g mask="url(#mask0_68_478)">
<path opacity="0.3" d="M-20 52.9999C-14.7136 38.0272 -1.72942 28.8395 18.8636 25.4999C42.1306 21.7266 52.9378 50.5735 74.7273 43.4999C90.741 38.3014 86.9652 25.1031 99.3182 15.9999C109.689 8.35732 116.751 4.67459 130 -9.15527e-05" stroke="url(#paint0_linear_68_478)"/>
<path opacity="0.3" d="M-20 64.9999C-14.7136 50.0272 -1.72942 40.8395 18.8636 37.4999C42.1306 33.7266 52.9377 62.5735 74.7273 55.4999C90.741 50.3014 86.9652 37.1031 99.3182 27.9999C109.689 20.3573 116.751 16.6746 130 11.9999" stroke="url(#paint1_linear_68_478)"/>
<path opacity="0.3" d="M-20 60.9999C-14.7136 46.0272 -1.72942 36.8395 18.8636 33.4999C42.1306 29.7266 52.9378 58.5735 74.7273 51.4999C90.741 46.3014 86.9652 33.1031 99.3182 23.9999C109.689 16.3573 116.751 12.6746 130 7.99991" stroke="url(#paint2_linear_68_478)"/>
<path opacity="0.3" d="M-20 56.9999C-14.7136 42.0272 -1.72942 32.8395 18.8636 29.4999C42.1306 25.7266 52.9378 54.5735 74.7273 47.4999C90.741 42.3014 86.9652 29.1031 99.3182 19.9999C109.689 12.3573 116.751 8.67459 130 3.99991" stroke="url(#paint3_linear_68_478)"/>
<path opacity="0.8" d="M-4 18.9999C1.03967 33.9726 13.418 43.1603 33.05 46.4999C55.2312 50.2732 65.534 21.4263 86.3067 28.4999C101.573 33.6985 97.9735 46.8967 109.75 55.9999C119.637 63.6425 126.369 67.3252 139 71.9999" stroke="url(#paint4_linear_68_478)" stroke-width="1.2"/>
<path opacity="0.8" d="M-4 6.99991C1.03967 21.9726 13.418 31.1603 33.05 34.4999C55.2312 38.2732 65.534 9.42631 86.3067 16.4999C101.573 21.6985 97.9735 34.8967 109.75 43.9999C119.637 51.6425 126.369 55.3252 139 59.9999" stroke="url(#paint5_linear_68_478)" stroke-width="1.2"/>
<path opacity="0.8" d="M-4 10.9999C1.03967 25.9726 13.418 35.1603 33.05 38.4999C55.2312 42.2732 65.534 13.4263 86.3067 20.4999C101.573 25.6985 97.9735 38.8967 109.75 47.9999C119.637 55.6425 126.369 59.3252 139 63.9999" stroke="url(#paint6_linear_68_478)" stroke-width="1.2"/>
<path opacity="0.8" d="M-4 14.9999C1.03967 29.9726 13.418 39.1603 33.05 42.4999C55.2312 46.2732 65.534 17.4263 86.3067 24.4999C101.573 29.6985 97.9735 42.8967 109.75 51.9999C119.637 59.6425 126.369 63.3252 139 67.9999" stroke="url(#paint7_linear_68_478)" stroke-width="1.2"/>
</g>
<defs>
<linearGradient id="paint0_linear_68_478" x1="130" y1="52.9999" x2="-61.9116" y2="10.9708" gradientUnits="userSpaceOnUse">
<stop stop-color="#C58BF2"/>
<stop offset="1" stop-color="#EEA4CE"/>
</linearGradient>
<linearGradient id="paint1_linear_68_478" x1="130" y1="64.9999" x2="-61.9116" y2="22.9708" gradientUnits="userSpaceOnUse">
<stop stop-color="#C58BF2"/>
<stop offset="1" stop-color="#EEA4CE"/>
</linearGradient>
<linearGradient id="paint2_linear_68_478" x1="130" y1="60.9999" x2="-61.9116" y2="18.9708" gradientUnits="userSpaceOnUse">
<stop stop-color="#C58BF2"/>
<stop offset="1" stop-color="#EEA4CE"/>
</linearGradient>
<linearGradient id="paint3_linear_68_478" x1="130" y1="56.9999" x2="-61.9116" y2="14.9708" gradientUnits="userSpaceOnUse">
<stop stop-color="#C58BF2"/>
<stop offset="1" stop-color="#EEA4CE"/>
</linearGradient>
<linearGradient id="paint4_linear_68_478" x1="139" y1="18.9999" x2="-44.7222" y2="57.3579" gradientUnits="userSpaceOnUse">
<stop stop-color="#92A3FD"/>
<stop offset="1" stop-color="#9DCEFF"/>
</linearGradient>
<linearGradient id="paint5_linear_68_478" x1="139" y1="6.99991" x2="-44.7222" y2="45.3579" gradientUnits="userSpaceOnUse">
<stop stop-color="#92A3FD"/>
<stop offset="1" stop-color="#9DCEFF"/>
</linearGradient>
<linearGradient id="paint6_linear_68_478" x1="139" y1="10.9999" x2="-44.7222" y2="49.3579" gradientUnits="userSpaceOnUse">
<stop stop-color="#92A3FD"/>
<stop offset="1" stop-color="#9DCEFF"/>
</linearGradient>
<linearGradient id="paint7_linear_68_478" x1="139" y1="14.9999" x2="-44.7222" y2="53.3579" gradientUnits="userSpaceOnUse">
<stop stop-color="#92A3FD"/>
<stop offset="1" stop-color="#9DCEFF"/>
</linearGradient>
</defs>
</svg>
