<svg width="55" height="55" viewBox="0 0 55 55" fill="none" xmlns="http://www.w3.org/2000/svg">
<circle opacity="0.3" cx="27.5" cy="27.5" r="27.5" fill="url(#paint0_linear_2_1958)"/>
<mask id="mask0_2_1958" style="mask-type:alpha" maskUnits="userSpaceOnUse" x="0" y="0" width="55" height="55">
<circle cx="27.5" cy="27.5" r="27.5" fill="#C4C4C4"/>
</mask>
<g mask="url(#mask0_2_1958)">
<path d="M41.1554 40.089C41.6151 35.5193 41.1767 31.0652 40.3923 26.5672C39.9354 23.9366 39.7544 21.2673 39.852 18.6008C39.9374 16.7486 39.4618 14.9128 38.4847 13.323C37.3686 11.4026 35.4657 9.85232 33.1269 10.123C33.0206 10.145 32.9108 10.145 32.8046 10.123C32.7187 10.091 32.6387 10.0457 32.5676 9.98884C31.3591 9.0934 29.3662 8.82268 27.8827 8.80186C26.0551 8.77084 24.2463 9.16753 22.6078 9.95876C19.84 11.3146 17.7049 13.9292 17.1575 16.9002C16.9656 18.1357 16.9417 19.3906 17.0864 20.6323C17.1812 21.6619 17.3234 22.7147 17.1362 23.7235C16.8731 25.1118 16.0153 26.3104 15.4774 27.6223C14.7977 29.2572 14.4694 31.0111 14.5129 32.7751C14.5674 34.0385 14.9537 37.2454 16.4253 37.7035C18.4087 38.3236 20.5035 38.5203 22.5865 38.7123L28.4586 39.2584C29.4633 39.3509 30.487 39.4435 31.4657 39.2075C32.1979 39.0316 32.8733 38.6799 33.5984 38.4809C34.4984 38.2354 35.4495 38.2306 36.352 38.4671" fill="#AA4F7A"/>
<g style="mix-blend-mode:multiply" opacity="0.32">
<g style="mix-blend-mode:multiply" opacity="0.32">
<path d="M23.8141 14.5519L20.0226 15.6741C19.9535 15.6902 19.8883 15.7193 19.8307 15.7597C19.7663 15.819 19.7196 15.8941 19.6956 15.9772C19.0448 17.5907 18.6037 19.2775 18.3828 20.9982C18.1032 23.2449 19.1506 25.4661 18.48 27.7082L17.7074 30.3806C17.3188 31.6833 16.9278 33.0531 17.2335 34.3765C17.4705 35.4178 18.1032 36.3201 18.5676 37.2827C19.2657 38.7315 19.5802 40.3282 19.4823 41.9265C19.4823 41.8756 22.5629 41.267 22.8449 41.1861C23.9953 40.8649 25.1266 40.4817 26.2336 40.0384C27.1957 39.6543 28.1293 39.1846 29.0938 38.8375C29.6696 38.6339 30.1981 38.4859 30.5962 38.0023C31.6981 36.6626 31.954 34.3002 31.9967 32.6551C32.045 30.7155 31.671 28.7881 30.8995 27.0002C30.3607 25.7493 29.619 24.5915 28.7028 23.5711" fill="#AA4F7A"/>
</g>
</g>
<path d="M12.1173 39.3972C9.98455 42.8008 8.67885 46.6672 7.9632 50.6007C7.65514 52.3013 7.4632 54.1269 8.26415 55.6656C9.56985 58.2107 13.1647 57.5004 15.4751 56.9937C18.9965 56.2255 23.2951 54.6591 25.4989 51.7899" fill="#EA7C99"/>
<path d="M45.1983 57.2898C46.0727 54.8626 45.8808 51.813 45.6722 49.4229C45.4187 46.371 44.7623 43.5828 43.2765 40.8248C42.1627 38.7609 40.9921 36.4887 38.8001 35.3874C37.7385 34.8529 36.5916 34.5035 35.4826 34.0477C34.1318 33.4877 32.8404 32.2869 33.2148 30.7297C33.4517 29.7001 34.21 28.8578 34.9897 28.122C35.4357 27.6812 35.8475 27.2087 36.2219 26.7083C36.2434 26.6764 36.2728 26.6501 36.3072 26.632C36.3587 26.6196 36.4129 26.6245 36.4612 26.6458C37.0461 26.828 37.6726 26.8404 38.2645 26.6814C38.8564 26.5225 39.3882 26.199 39.7954 25.7504C40.5679 24.9174 40.7765 23.1474 40.0964 22.1848C39.5087 21.3519 38.0418 21.065 37.1295 21.4398C37.485 19.5702 37.5513 16.914 36.7527 15.144C36.0086 13.4294 34.0868 12.1383 32.4446 11.347C30.8024 10.5557 29.0062 10.4053 27.2171 10.5997C25.3379 10.8056 23.3853 11.4928 22.2952 12.9991C21.8801 13.6228 21.5608 14.3026 21.3474 15.0167C20.7309 16.817 20.2983 18.6725 20.0559 20.5559C19.8521 22.1524 19.7999 24.0451 20.1483 25.6255C20.3418 26.6162 20.8374 27.5268 21.5701 28.2377C22.4824 29.0753 23.2526 29.3437 24.4943 29.5149C25.7905 29.6954 27.646 29.9407 28.2858 31.2156C29.428 33.4577 27.5749 34.522 25.6649 35.1652C21.5346 36.5535 21.6767 40.6605 21.1222 44.1705C20.8853 45.7254 20.1744 46.9818 19.6649 48.4418C19.3936 49.3312 19.2345 50.2497 19.1909 51.1767C19.1459 51.695 18.9089 52.4239 18.9895 52.9283C19.0748 53.4697 19.5203 53.7474 19.954 54.1014C21.2881 55.1865 22.7976 56.0588 24.2834 56.9126C25.5726 57.6261 26.9327 58.2099 28.3427 58.6549C30.3119 59.3074 32.1342 60.1265 34.1769 60.5638C35.7092 60.916 37.2679 61.1482 38.838 61.2579C41.2338 61.3945 43.4732 60.5036 44.6627 58.4143C44.874 58.0551 45.0531 57.6789 45.1983 57.2898Z" fill="#FF8DA8"/>
<g style="mix-blend-mode:multiply" opacity="0.2">
<g style="mix-blend-mode:multiply" opacity="0.2">
<path d="M31.2502 10.7198C31.5559 12.0665 31.3095 13.464 31.1507 14.8338C30.9919 16.2035 30.9374 17.6589 31.5772 18.8899C31.9949 19.6434 32.6405 20.2528 33.4259 20.635C34.2112 21.0172 35.0982 21.1535 35.9659 21.0255C35.5249 18.3756 34.6207 15.8195 33.2929 13.4686" fill="#FF8DA8"/>
</g>
</g>
<path d="M23.3778 15.0492C23.1812 14.2278 21.6409 14.8733 21.2451 15.1649C20.911 15.4078 20.4536 15.9215 20.9726 16.2431C21.4916 16.5647 22.6006 15.9493 23.0153 15.6623C23.2214 15.5119 23.4371 15.2806 23.3778 15.0492Z" fill="#843860"/>
<path d="M29.5226 14.7298C29.7192 13.9084 31.2595 14.5563 31.6553 14.8478C31.987 15.0792 32.4444 15.6021 31.9254 15.9238C31.4065 16.2454 30.2975 15.6299 29.8828 15.343C29.679 15.1995 29.4633 14.9751 29.5226 14.7298Z" fill="#843860"/>
<path d="M38.8569 61.2652C41.2527 61.4017 43.492 60.5109 44.6816 58.4215C44.8867 58.0595 45.0595 57.681 45.1982 57.2901C46.0726 54.8629 45.8807 51.8133 45.6722 49.4232C45.4186 46.3713 44.7622 43.5831 43.2764 40.8251C42.2811 38.974 41.2361 36.9726 39.4612 35.7787C39.402 35.8134 39.3403 35.8481 39.2835 35.8851C36.0038 37.9282 33.0962 40.9315 29.2455 41.4706C26.9706 41.7876 24.6483 41.1722 22.5795 40.1911C22.3283 40.0708 22.0653 39.9458 21.7952 39.8278C21.4681 41.2161 21.3568 42.7548 21.1316 44.1801C20.8947 45.735 20.1838 46.9914 19.6743 48.4514C19.403 49.3408 19.2439 50.2592 19.2003 51.1863C19.1553 51.7046 18.9183 52.4334 18.9989 52.9378C19.0842 53.4792 19.5297 53.7569 19.9634 54.1109C21.2975 55.1961 22.807 56.0684 24.2928 56.9222C25.582 57.6356 26.9421 58.2194 28.3521 58.6645C30.3213 59.317 32.1436 60.136 34.1863 60.5733C35.7217 60.9253 37.2836 61.1567 38.8569 61.2652Z" fill="#F26757"/>
<g style="mix-blend-mode:multiply" opacity="0.25">
<g style="mix-blend-mode:multiply" opacity="0.25">
<path d="M32.0369 26.9925C33.2972 26.9925 34.3189 25.9949 34.3189 24.7643C34.3189 23.5337 33.2972 22.5361 32.0369 22.5361C30.7766 22.5361 29.7549 23.5337 29.7549 24.7643C29.7549 25.9949 30.7766 26.9925 32.0369 26.9925Z" fill="#FF8DA8"/>
</g>
<g style="mix-blend-mode:multiply" opacity="0.25">
<path d="M21.5887 24.0152C21.5884 23.5308 21.4263 23.0597 21.1269 22.6735C20.8275 22.2872 20.4073 22.0069 19.9299 21.8749C19.8322 23.129 19.9047 24.3901 20.1456 25.6256C20.1764 25.7644 20.2143 25.9033 20.2546 26.0398C20.6526 25.863 20.99 25.578 21.2266 25.219C21.4631 24.86 21.5889 24.4421 21.5887 24.0152Z" fill="#FF8DA8"/>
</g>
</g>
<path d="M45.9802 48.9279C45.801 46.9976 45.4036 45.0925 44.7953 43.2475C44.3214 41.7968 43.8901 40.0545 42.7337 38.9901C40.9422 37.3404 38.4564 37.7036 36.7242 39.2932C34.4635 41.3756 35.1578 44.0666 36.2194 46.5285C36.9754 48.2823 37.8379 50.0408 37.9872 51.9358C38.0129 52.0968 37.9932 52.2616 37.9303 52.4125C37.7787 52.7017 37.3806 52.7549 37.0465 52.7549C35.3545 52.7549 33.6933 52.3361 32.0535 51.9219L27.1435 50.6817C25.7098 50.3208 24.2596 49.9552 22.8662 49.4601C21.6625 51.0688 20.6653 52.8157 19.897 54.6615C22.1174 56.3853 24.4587 58.0535 27.1269 59.0299C31.1033 60.4876 36.1507 62.5839 40.5441 61.6931C41.6619 61.4893 42.7049 61.0013 43.5678 60.2781C44.4307 59.555 45.083 58.6225 45.4589 57.5745C46.4849 54.8466 46.2219 51.7646 45.9802 48.9279Z" fill="#FF8DA8"/>
<path d="M34.416 33.4183C34.0577 33.1558 33.7537 32.8291 33.5202 32.4558C31.9435 32.9702 30.2395 32.9783 28.6576 32.4789C28.662 32.8966 28.5236 33.3037 28.2643 33.6358C30.2773 34.2712 32.4553 34.1942 34.416 33.4183Z" fill="#F7BF54"/>
<path d="M30.8399 9.88463C31.7333 10.6736 31.975 11.8768 32.0911 13.0013C32.2689 14.7459 32.2617 16.5391 32.9324 18.1819C33.603 19.8247 35.1646 21.3264 37.0959 21.3842C37.2059 21.3963 37.3169 21.3745 37.4135 21.3217C37.4833 21.2601 37.5328 21.1796 37.5556 21.0904C38.7855 17.821 37.5556 13.9176 34.603 11.7287C33.5627 10.9652 32.3447 10.4052 31.1598 9.85223" fill="#AA4F7A"/>
<g style="mix-blend-mode:multiply" opacity="0.2">
<g style="mix-blend-mode:multiply" opacity="0.2">
<path d="M21.0202 16.1246C22.5155 16.5503 24.0724 16.8465 25.6293 16.747C27.1862 16.6475 28.7478 16.1269 29.8947 15.088C31.0416 14.0491 31.6838 12.4503 31.3616 10.9602C29.3505 12.4199 26.9402 13.2624 24.4373 13.3804" fill="#FF8DA8"/>
</g>
</g>
<path d="M31.4304 10.2456C31.8711 11.4048 31.3356 12.7353 30.4493 13.6376C28.9896 15.1231 26.7834 15.6414 24.6838 15.8288C22.5843 16.0162 20.435 15.9491 18.4184 16.5507C18.9516 13.9222 21.1364 11.8097 23.672 10.7824C26.2076 9.75508 29.0464 9.69029 31.7716 9.98877" fill="#AA4F7A"/>
<path d="M23.916 24.3364C23.9172 24.3202 23.9172 24.304 23.916 24.2878C23.9084 24.2239 23.8879 24.1622 23.8558 24.1061C23.8236 24.0499 23.7804 24.0006 23.7287 23.9608C23.6769 23.921 23.6177 23.8916 23.5542 23.8743C23.4908 23.8569 23.4245 23.852 23.3592 23.8598L18.0392 24.4706C17.9265 24.4841 17.8219 24.5344 17.7423 24.6134C17.6627 24.6924 17.6128 24.7954 17.6008 24.9056L16.6529 33.7698C16.6396 33.8988 16.6789 34.0277 16.7623 34.1286C16.8457 34.2295 16.9665 34.2943 17.0984 34.3089H17.1529C17.2768 34.3084 17.3961 34.2632 17.488 34.1821C17.5798 34.1009 17.6377 33.9895 17.6506 33.8692L18.5629 25.3961L23.281 24.8524C23.3216 24.7141 23.4039 24.591 23.5172 24.499C23.6304 24.4069 23.7694 24.3503 23.916 24.3364Z" fill="#B9B5EC"/>
<path d="M26.9091 21.9604C26.8854 21.9604 26.8427 22.0761 26.7219 22.2589C26.5458 22.5174 26.2997 22.7233 26.011 22.8535C25.8207 22.9428 25.613 22.9909 25.402 22.9947C25.165 22.9947 25.037 22.916 25.082 22.68C25.1271 22.444 25.2764 22.1895 25.3688 21.9118C25.4783 21.6253 25.5724 21.3333 25.6508 21.0372C25.9329 20.0005 26.0417 18.9262 25.9731 17.8557C25.9186 17.0343 25.774 16.5438 25.7361 16.5507C25.6982 16.5577 25.7622 17.0575 25.7645 17.8627C25.7706 18.9094 25.6368 19.9525 25.3664 20.9655C25.2835 21.2616 25.1982 21.5485 25.0986 21.8193C25.0512 21.9558 24.9967 22.0877 24.947 22.2172C24.8866 22.3522 24.842 22.4935 24.8143 22.6383C24.7978 22.7193 24.7978 22.8026 24.8143 22.8836C24.8333 22.9732 24.8815 23.0544 24.9517 23.115C25.0797 23.2094 25.2405 23.251 25.3996 23.2307C25.6424 23.2147 25.8786 23.1468 26.0915 23.0317C26.3999 22.8716 26.6487 22.6206 26.8024 22.3144C26.9209 22.0969 26.9233 21.965 26.9091 21.9604Z" fill="#C45673"/>
<path d="M24.1669 19.0567C24.1242 19.0567 24.0911 19.4339 23.9299 20.0169C23.8409 20.3576 23.7228 20.6904 23.5768 21.0119C23.4908 21.1948 23.3843 21.3678 23.2593 21.5278C23.1447 21.6887 22.9776 21.807 22.7854 21.8633C22.6973 21.891 22.6032 21.8949 22.5131 21.8745C22.4229 21.8541 22.3401 21.8103 22.2735 21.7476C22.143 21.6009 22.0439 21.4302 21.982 21.2455C21.846 20.922 21.7452 20.5854 21.6811 20.2414C21.5816 19.649 21.6076 19.2673 21.5602 19.2626C21.5128 19.258 21.4275 19.6398 21.4797 20.2668C21.5103 20.6348 21.5899 20.9972 21.7166 21.345C21.7839 21.5682 21.9003 21.7744 22.0579 21.9489C22.1562 22.0494 22.2821 22.1201 22.4204 22.1526C22.5581 22.1862 22.7022 22.1862 22.8399 22.1526C23.098 22.0811 23.3231 21.925 23.4773 21.7106C23.6136 21.5264 23.7266 21.3267 23.8138 21.116C23.9594 20.7765 24.0674 20.4228 24.1361 20.0609C24.2451 19.4454 24.2024 19.0567 24.1669 19.0567Z" fill="#C45673"/>
<path d="M31.7713 18.8531C31.7263 18.8531 31.7429 19.2881 31.6031 19.9568C31.5221 20.3443 31.394 20.7211 31.2216 21.079C31.1247 21.2793 30.9877 21.4587 30.8187 21.6065C30.643 21.7537 30.4198 21.8356 30.1884 21.8379C30.0755 21.8287 29.9658 21.7963 29.8666 21.7428C29.7674 21.6894 29.6808 21.6162 29.6125 21.5278C29.4656 21.3561 29.348 21.1623 29.2642 20.954C29.1103 20.582 29.0013 20.1938 28.9395 19.7971C28.8329 19.1238 28.8779 18.6934 28.8329 18.6888C28.7879 18.6842 28.6789 19.1122 28.7357 19.8226C28.7755 20.2424 28.8735 20.6549 29.0272 21.0489C29.113 21.2903 29.2405 21.5157 29.404 21.7153C29.4979 21.8324 29.6161 21.9288 29.7509 21.9982C29.8857 22.0676 30.0339 22.1084 30.186 22.1179C30.4887 22.12 30.7815 22.0129 31.0083 21.8171C31.2105 21.6446 31.3721 21.4315 31.4822 21.1923C31.6524 20.8086 31.7672 20.4037 31.8235 19.9892C31.8969 19.2858 31.8045 18.8508 31.7713 18.8531Z" fill="#C45673"/>
<path d="M37.0464 25.9401C37.0866 25.917 36.935 25.6902 36.9136 25.2876C36.9043 25.0516 36.9413 24.8159 37.0227 24.5935C37.1238 24.3221 37.2686 24.0683 37.4516 23.8415C37.7884 23.4161 38.203 23.0552 38.6743 22.7771C39.0393 22.562 39.2904 22.4648 39.2786 22.4231C39.2667 22.3815 38.9895 22.4231 38.5795 22.6013C38.0442 22.8439 37.578 23.2109 37.2217 23.6703C37.0181 23.9237 36.8639 24.2116 36.7667 24.5194C36.6883 24.7751 36.6696 25.0448 36.7122 25.3084C36.7928 25.7619 37.025 25.9656 37.0464 25.9401Z" fill="#C45673"/>
<path d="M37.3712 25.6C37.383 25.6324 37.5489 25.6139 37.7456 25.4473C37.869 25.3355 37.9682 25.2007 38.0374 25.0509C38.1065 24.9011 38.1443 24.7393 38.1484 24.575C38.1541 24.254 38.0626 23.9385 37.8854 23.668C37.7503 23.4667 37.6318 23.3718 37.601 23.3926C37.5702 23.4135 37.6247 23.55 37.7006 23.7559C37.8053 24.0136 37.8584 24.2885 37.857 24.5657C37.8471 24.8344 37.7564 25.0944 37.5963 25.3131C37.4707 25.482 37.3522 25.5607 37.3712 25.6Z" fill="#C45673"/>
<path d="M23.9087 25.1394C23.8069 25.1107 23.7078 25.0735 23.6125 25.0283C23.5153 24.9871 23.4328 24.9187 23.3755 24.8317C23.3674 24.8179 23.3631 24.8024 23.3631 24.7865C23.3631 24.7707 23.3674 24.7551 23.3755 24.7414C23.4008 24.7 23.4368 24.6657 23.4798 24.6419C23.5296 24.6119 23.5959 24.5771 23.6646 24.5448L23.7689 24.4985L23.8495 24.4661C23.8796 24.446 23.9067 24.4218 23.93 24.3944C23.9466 24.3735 23.9703 24.3388 23.994 24.3018C23.9933 24.207 23.9541 24.1163 23.885 24.0496L23.8139 24.0149L23.7831 23.9918L23.7286 23.9547C23.6939 23.9304 23.6607 23.9041 23.6291 23.8761C23.566 23.8211 23.5081 23.7607 23.4561 23.6956C23.4073 23.6339 23.3629 23.569 23.3234 23.5012C23.2997 23.4411 23.3068 23.4503 23.3234 23.4295C23.3702 23.398 23.4253 23.3803 23.4822 23.3786C23.5532 23.3751 23.6244 23.3751 23.6954 23.3786L24.1101 23.3925C24.6196 23.3925 24.9372 23.3925 24.9395 23.3508C24.9419 23.3092 24.6315 23.2536 24.1267 23.1935L23.712 23.1472H23.5983C23.5533 23.1449 23.5082 23.1449 23.4632 23.1472C23.3536 23.1468 23.2467 23.18 23.1575 23.2421C23.0964 23.2887 23.0564 23.3568 23.0461 23.4318C23.0377 23.4994 23.0501 23.5678 23.0817 23.6285C23.1245 23.717 23.1769 23.8008 23.2381 23.8784C23.299 23.9611 23.3672 24.0385 23.4419 24.1098C23.4798 24.1421 23.5201 24.1769 23.5627 24.2069L23.6267 24.2509L23.6551 24.2694L23.5461 24.3226C23.475 24.3596 23.4063 24.3967 23.3305 24.4453C23.2484 24.4998 23.1829 24.5749 23.1409 24.6628C23.1207 24.7121 23.1125 24.7655 23.117 24.8185C23.1215 24.8715 23.1386 24.9227 23.167 24.9682C23.2544 25.0886 23.3777 25.1799 23.5201 25.2296C23.5792 25.2538 23.6402 25.2731 23.7025 25.2875L23.8589 25.3222C24.257 25.4032 24.5011 25.4379 24.5106 25.4032C24.5201 25.3685 24.2879 25.269 23.9087 25.1394Z" fill="#C45673"/>
<path d="M23.7428 34.4225L11.2972 35.1536L13.193 50.9199C13.2132 51.086 13.2986 51.2381 13.4311 51.3442C13.5636 51.4503 13.733 51.5022 13.9039 51.489L21.8447 51.0055C22.0042 50.9959 22.1548 50.9305 22.2688 50.8213C22.3829 50.7121 22.4527 50.5663 22.4656 50.4108L23.7428 34.4225Z" fill="#F9A353"/>
<path d="M12.84 48.037L22.8615 45.2929L23.5581 36.7064L11.8661 39.9063L12.84 48.037Z" fill="#F7BF54"/>
<g style="mix-blend-mode:multiply" opacity="0.14">
<g style="mix-blend-mode:multiply" opacity="0.14">
<path d="M11.2972 35.1537L13.193 50.9199C13.2132 51.0861 13.2986 51.2381 13.4311 51.3442C13.5636 51.4503 13.733 51.5022 13.9039 51.4891L20.2238 51.105C18.5352 48.7132 17.2154 46.0923 16.3067 43.326C15.4224 40.6138 15.0358 37.7705 15.1645 34.9269L11.2972 35.1537Z" fill="#F9A353"/>
</g>
</g>
<path d="M23.754 32.9978L10.6152 33.7869C10.3226 33.8045 10.0999 34.0503 10.1179 34.336L10.168 35.1305C10.186 35.4162 10.4378 35.6336 10.7304 35.616L23.8692 34.8268C24.1618 34.8093 24.3844 34.5634 24.3664 34.2777L24.3164 33.4833C24.2984 33.1975 24.0466 32.9802 23.754 32.9978Z" fill="#F7BF54"/>
<g style="mix-blend-mode:multiply" opacity="0.2">
<g style="mix-blend-mode:multiply" opacity="0.2">
<path d="M45.9802 48.9275C45.801 46.9972 45.4037 45.0921 44.7954 43.2471C44.3214 41.7964 43.8901 40.0541 42.7337 38.9897C41.4233 37.7842 39.7456 37.657 38.2598 38.2956L35.2787 43.4554C35.4532 44.5162 35.7719 45.5496 36.2266 46.5281C36.7645 47.7752 37.3545 49.027 37.7053 50.3274C39.3415 50.5979 40.9962 50.7487 42.6555 50.7785C43.8169 50.8136 44.979 50.7361 46.1248 50.5472C46.0703 49.9872 46.0252 49.4574 45.9802 48.9275Z" fill="#FF8DA8"/>
</g>
</g>
<path d="M35.9468 48.8695C39.134 49.5637 43.0558 49.3994 46.1364 47.9255C46.0464 47.0578 45.0014 44.0291 44.9042 43.7121C44.2099 41.4191 43.7193 39.0105 41.871 37.4648C40.2122 36.0581 37.9515 35.7087 36.2027 37.1548C35.812 37.4939 35.4862 37.8982 35.2406 38.3487C33.9444 40.5931 34.4681 43.8185 35.1671 46.1925C35.4231 47.0841 35.6829 47.9764 35.9468 48.8695Z" fill="#DB5449"/>
<path d="M39.0962 33.3464C38.5512 32.164 39.0346 31.0187 38.345 29.8757C37.9801 29.2764 37.3166 28.7188 37.0844 28.0432C36.8758 27.4485 36.8829 26.6549 36.8261 26.014C36.6676 24.2683 36.802 22.509 37.2242 20.8056C37.2539 20.7153 37.2644 20.62 37.255 20.5256C37.2165 20.3971 37.1408 20.2822 37.037 20.1948C36.3217 19.4746 35.6575 18.7077 35.0488 17.8995L35.646 21.0138C35.582 21.6525 35.4967 22.2841 35.3948 22.932C35.2231 24.1714 34.8712 25.3806 34.3497 26.523C33.1388 29.0103 32.3734 32.2497 33.6128 34.8874C34.1223 35.9679 35.146 36.8703 36.3569 36.9929C37.8948 37.1457 39.4517 36.0674 40.9185 36.5302C40.2195 35.5214 39.6099 34.4563 39.0962 33.3464Z" fill="#AA4F7A"/>
<path d="M23.3994 56.9634C21.2667 55.862 18.1008 53.7958 18.4657 51.0354C18.5587 50.1781 18.8049 49.3433 19.1932 48.5689C19.5226 47.9789 19.9041 47.4491 19.57 46.7341C19.3496 46.2713 18.8046 45.9428 18.4183 45.6188C17.9328 45.2339 17.5101 44.7791 17.1647 44.2699C17.1396 44.2405 17.1223 44.2054 17.1144 44.1679C17.1066 44.1303 17.1084 44.0914 17.1197 44.0547C17.3377 43.6776 18.8946 44.4967 19.1411 44.6494C19.8305 45.0697 20.3977 45.6562 20.788 46.3523C20.7453 46.2736 20.8141 45.9705 20.8022 45.8618C20.7718 45.7019 20.7209 45.5464 20.6506 45.399C20.5495 45.0765 20.426 44.7611 20.2809 44.455C19.9397 43.8118 19.4539 43.2565 19.051 42.6526C18.9474 42.5152 18.8762 42.3572 18.8425 42.1898C18.8265 42.1073 18.8354 42.0219 18.8683 41.9443C18.9011 41.8666 18.9564 41.8 19.0273 41.7525C19.2643 41.6206 19.551 41.8103 19.7524 41.9839C20.1908 42.368 20.7382 42.7983 21.0036 43.3259C21.3164 43.946 21.4918 44.6841 21.7146 45.3389C21.9515 45.3875 21.6648 43.8025 21.615 43.6591C21.4515 43.1801 21.4065 42.7474 21.115 42.3286C20.7359 41.7872 20.243 41.2458 20.2406 40.5886C20.2328 40.5184 20.243 40.4474 20.2703 40.3819C20.2976 40.3165 20.3411 40.2587 20.397 40.2138C20.5913 40.0958 20.8307 40.267 20.9823 40.4336C22.0605 41.6299 22.4349 43.2241 22.6221 44.7766L23.243 42.4073C23.2928 42.2222 23.4113 41.9908 23.6032 42.0301C23.6645 42.0483 23.7195 42.0828 23.762 42.1296C24.2975 42.6734 24.1079 43.4693 23.9705 44.1241C23.8117 44.8831 23.6909 45.6512 23.589 46.4194C23.4989 47.0927 23.352 47.7614 23.3259 48.4417C23.2951 49.0525 23.6577 49.4343 24.198 49.7351C24.4922 49.8719 24.7983 49.9826 25.1127 50.066C25.4421 50.1793 25.7407 50.3691 26.0795 50.4709" fill="#FF8DA8"/>
<path d="M41.1319 19.6767C39.1319 19.0451 36.7574 18.9988 34.6792 19.008H34.6602C34.3664 16.8169 32.7645 15.1347 30.845 15.1347C29.037 15.1347 27.5275 16.6202 27.1009 18.617C26.7997 18.3433 26.4034 18.1911 25.9919 18.1911C25.5804 18.1911 25.1842 18.3433 24.8829 18.617C24.5227 16.5346 22.9611 14.9427 21.0914 14.9427C18.9587 14.9427 17.2264 17.0043 17.2264 19.5379C17.2264 22.0715 18.9587 24.1331 21.0914 24.1331C23.2241 24.1331 24.9564 22.0715 24.9564 19.5379C24.9564 19.4662 24.9564 19.3967 24.9564 19.325C25.0416 19.1275 25.1851 18.9593 25.3686 18.8418C25.5522 18.7243 25.7674 18.6629 25.9869 18.6654C26.2063 18.6679 26.42 18.7341 26.6007 18.8558C26.7814 18.9774 26.9209 19.1488 27.0014 19.3482C27.0014 19.4754 26.9848 19.6027 26.9848 19.7322C26.9848 22.2774 28.7194 24.3275 30.8498 24.3275C32.9801 24.3275 34.7148 22.2635 34.7148 19.7299C34.7148 19.649 34.7148 19.5726 34.7148 19.4986C36.2438 19.4902 37.7713 19.597 39.2835 19.8179C39.8641 19.9035 40.4399 20.0192 41.0134 20.1487C42.2148 20.4218 42.4352 21.5625 42.4921 22.569C42.511 22.8813 43.0134 22.8836 42.9921 22.569C42.8902 21.227 42.5347 20.114 41.1319 19.6767ZM21.0961 23.5431C19.2952 23.5431 17.8331 21.7453 17.8331 19.5356C17.8331 17.3259 19.2952 15.5281 21.0961 15.5281C22.8971 15.5281 24.3592 17.3259 24.3592 19.5356C24.3592 21.7453 22.8947 23.5431 21.0961 23.5431ZM30.845 23.7374C29.0465 23.7374 27.582 21.9396 27.582 19.7299C27.582 17.5203 29.0465 15.7224 30.845 15.7224C32.6436 15.7224 34.1105 17.5203 34.1105 19.7299C34.1105 21.9396 32.646 23.7374 30.845 23.7374Z" fill="#F7BF54"/>
</g>
<defs>
<linearGradient id="paint0_linear_2_1958" x1="55" y1="55" x2="-18.3036" y2="49.3277" gradientUnits="userSpaceOnUse">
<stop stop-color="#92A3FD"/>
<stop offset="1" stop-color="#9DCEFF"/>
</linearGradient>
</defs>
</svg>
