<svg width="33" height="41" viewBox="0 0 33 41" fill="none" xmlns="http://www.w3.org/2000/svg">
<g clip-path="url(#clip0_2_2944)">
<g opacity="0.3">
<path opacity="0.3" d="M8.21253 24.7039H8.19263L7.42853 24.4818C7.40232 24.4736 7.38028 24.4553 7.36716 24.4307C7.35404 24.4061 7.35087 24.3773 7.35833 24.3504C7.36579 24.3234 7.38329 24.3006 7.40708 24.2867C7.43087 24.2728 7.45904 24.2689 7.48557 24.276L8.24437 24.4953C8.26843 24.5034 8.28882 24.52 8.30178 24.5422C8.31474 24.5644 8.31938 24.5907 8.31485 24.6161C8.31032 24.6415 8.29692 24.6644 8.27714 24.6806C8.25736 24.6967 8.23252 24.705 8.20723 24.7039H8.21253Z" fill="black"/>
<path opacity="0.3" d="M7.42857 25.3051C7.40694 25.3031 7.38644 25.2943 7.36984 25.2801C7.35323 25.2658 7.34132 25.2466 7.33571 25.2252C7.33152 25.2112 7.33022 25.1964 7.33187 25.1818C7.33353 25.1672 7.3381 25.1531 7.34532 25.1404C7.35254 25.1277 7.36224 25.1167 7.37383 25.108C7.38541 25.0993 7.39862 25.0931 7.41265 25.0898L8.17675 24.8921C8.20327 24.8863 8.23097 24.8912 8.25403 24.9057C8.27709 24.9203 8.29372 24.9434 8.30042 24.9703C8.30712 24.9971 8.30337 25.0255 8.28996 25.0496C8.27654 25.0737 8.25451 25.0915 8.22849 25.0993L7.46306 25.297C7.45211 25.3017 7.44044 25.3044 7.42857 25.3051Z" fill="black"/>
<path opacity="0.3" d="M7.81859 26.0256C7.79343 26.0231 7.76994 26.0116 7.75226 25.9931C7.7329 25.9731 7.72205 25.9461 7.72205 25.9179C7.72205 25.8898 7.7329 25.8628 7.75226 25.8428L8.31738 25.2809C8.327 25.27 8.33868 25.2614 8.35171 25.2553C8.36475 25.2493 8.37885 25.2461 8.39315 25.2458C8.40746 25.2456 8.42166 25.2483 8.43489 25.2539C8.44812 25.2594 8.46009 25.2677 8.47007 25.2781C8.48005 25.2886 8.48782 25.301 8.49292 25.3147C8.49801 25.3283 8.50031 25.3429 8.49967 25.3575C8.49904 25.3721 8.49549 25.3864 8.48923 25.3995C8.48298 25.4127 8.47415 25.4243 8.46331 25.4339L7.90084 25.9985C7.88971 26.0086 7.87666 26.0162 7.8625 26.0209C7.84834 26.0255 7.83339 26.0271 7.81859 26.0256Z" fill="black"/>
<path opacity="0.3" d="M8.50429 26.4519H8.48439C8.47084 26.448 8.4582 26.4414 8.44721 26.4324C8.43622 26.4235 8.42711 26.4123 8.42042 26.3997C8.41374 26.3871 8.40961 26.3732 8.4083 26.3589C8.40698 26.3446 8.4085 26.3302 8.41276 26.3165L8.62235 25.5419C8.63037 25.5152 8.64834 25.4927 8.6724 25.4793C8.69647 25.4659 8.72472 25.4627 8.7511 25.4703C8.77748 25.4779 8.79988 25.4958 8.81351 25.52C8.82714 25.5443 8.8309 25.5731 8.82399 25.6002L8.60909 26.3747C8.60258 26.3977 8.58873 26.4178 8.56973 26.4317C8.55074 26.4457 8.5277 26.4528 8.50429 26.4519Z" fill="black"/>
</g>
<path d="M29.228 14.4277L27.327 15.5448L23.1643 16.1595C23.1643 16.1595 20.1251 11.4989 19.6595 10.7663C19.1939 10.0338 18.6486 9.5639 17.3871 9.56525L17.6259 13.2835C17.6657 13.404 20.1822 16.5685 21.8417 18.2935C22.428 18.9015 22.7875 19.0572 23.6989 18.7972C26.0376 18.1351 28.8725 16.1731 29.1007 15.6829C29.4071 15.0424 29.2055 14.4412 29.228 14.4277Z" fill="#FFEDE5"/>
<path d="M28.4466 12.0705C28.6959 11.2391 29.7147 10.5621 30.6606 10.8329C30.8104 10.8752 30.954 10.9376 31.0877 11.0184C32.0163 11.5601 32.7552 12.8803 32.7552 13.9662C32.7583 14.1496 32.7332 14.3324 32.6809 14.5078C32.4329 15.3379 31.4167 16.0203 30.4669 15.7482C30.3173 15.7053 30.1737 15.643 30.0398 15.5627C29.1191 15.021 28.3723 13.6995 28.3723 12.6135C28.3696 12.4297 28.3946 12.2466 28.4466 12.0705Z" fill="#455A64"/>
<path d="M30.0413 15.5545C29.1206 15.0128 28.3738 13.6913 28.3738 12.6053C28.3738 11.5193 29.1206 11.0806 30.0413 11.6223C30.9619 12.1639 31.7048 13.4841 31.7048 14.5701C31.7048 15.656 30.9619 16.0961 30.0413 15.5545Z" fill="#37474F"/>
<path d="M30.041 12.826C29.6868 12.6175 29.3989 12.7868 29.3989 13.2038C29.411 13.4312 29.4754 13.6524 29.587 13.8496C29.6985 14.0467 29.8541 14.2142 30.041 14.3385C30.3952 14.547 30.6817 14.3778 30.6817 13.9607C30.6699 13.7335 30.6057 13.5123 30.4944 13.3151C30.3831 13.1179 30.2277 12.9504 30.041 12.826Z" fill="#455A64"/>
<path d="M29.8209 13.4532C29.8251 13.5311 29.8473 13.6068 29.8855 13.6743C29.9238 13.7418 29.9771 13.7992 30.0411 13.8418C30.0621 13.8573 30.0866 13.8672 30.1122 13.8707C30.1379 13.8743 30.1641 13.8713 30.1883 13.8621L30.2043 13.8526C30.2232 13.836 30.2381 13.8152 30.2478 13.7917C30.2575 13.7682 30.2617 13.7427 30.26 13.7172C30.2558 13.6395 30.2338 13.5639 30.1958 13.4964C30.1578 13.4289 30.1048 13.3714 30.0411 13.3286C30.0201 13.3132 29.9956 13.3032 29.97 13.2997C29.9443 13.2961 29.9181 13.2991 29.8939 13.3083L29.8779 13.3178C29.8586 13.3342 29.8434 13.355 29.8335 13.3785C29.8236 13.402 29.8193 13.4276 29.8209 13.4532Z" fill="#37474F"/>
<path d="M26.299 15.529C26.3031 15.6067 26.325 15.6824 26.3631 15.7499C26.4011 15.8174 26.4541 15.8748 26.5179 15.9176C26.5464 15.9364 26.5795 15.9467 26.6134 15.9474C26.6391 15.9468 26.6643 15.9394 26.6863 15.9257L30.1885 13.8621L30.2044 13.8526C30.2234 13.836 30.2383 13.8152 30.2479 13.7917C30.2576 13.7682 30.2618 13.7427 30.2601 13.7172C30.2559 13.6395 30.2339 13.5639 30.1959 13.4964C30.1579 13.4289 30.1049 13.3714 30.0412 13.3286C30.0202 13.3132 29.9958 13.3032 29.9701 13.2997C29.9444 13.2961 29.9183 13.2991 29.894 13.3083L29.8781 13.3178L26.3759 15.3814C26.3508 15.3961 26.3302 15.4177 26.3166 15.4438C26.303 15.47 26.2969 15.4995 26.299 15.529Z" fill="#FAFAFA"/>
<path d="M22.8619 15.3624C23.11 14.5324 24.1261 13.8459 25.0759 14.118C25.2259 14.1611 25.3699 14.2234 25.5044 14.3035C26.4251 14.8451 27.1719 16.1667 27.1719 17.2527C27.1742 17.436 27.1491 17.6186 27.0976 17.7943C26.8482 18.6243 25.8334 19.3068 24.8836 19.036C24.7341 18.9929 24.5905 18.9305 24.4564 18.8505C23.5358 18.3088 22.789 16.9873 22.789 15.9027C22.7859 15.7198 22.8105 15.5376 22.8619 15.3624Z" fill="#455A64"/>
<path d="M24.455 18.845C23.5343 18.3033 22.7875 16.9818 22.7875 15.8972C22.7875 14.8126 23.5343 14.3711 24.455 14.9128C25.3756 15.4544 26.1225 16.7759 26.1225 17.8619C26.1225 18.9479 25.3769 19.3879 24.455 18.845Z" fill="#37474F"/>
<path d="M24.4548 16.1139C24.1006 15.904 23.8141 16.0733 23.8141 16.4917C23.8261 16.7187 23.8904 16.9397 24.0017 17.1366C24.113 17.3335 24.2683 17.5009 24.4548 17.6251C24.809 17.8336 25.0969 17.6643 25.0969 17.2473C25.0846 17.0202 25.0201 16.7992 24.9086 16.6023C24.797 16.4054 24.6416 16.238 24.4548 16.1139Z" fill="#455A64"/>
<path d="M24.2361 16.7432C24.2402 16.821 24.2621 16.8967 24.3001 16.9642C24.3381 17.0317 24.3912 17.0891 24.4549 17.1318C24.476 17.1473 24.5004 17.1572 24.5261 17.1608C24.5518 17.1643 24.5779 17.1614 24.6022 17.1522C24.6081 17.1501 24.6135 17.1469 24.6181 17.1427C24.6373 17.1262 24.6525 17.1054 24.6624 17.0819C24.6723 17.0584 24.6767 17.0328 24.6751 17.0073C24.6708 16.9294 24.6486 16.8537 24.6103 16.7862C24.5721 16.7187 24.5189 16.6613 24.4549 16.6187C24.4339 16.6036 24.4097 16.5941 24.3843 16.5908C24.3588 16.5875 24.333 16.5905 24.309 16.5997L24.2931 16.6092C24.2738 16.6253 24.2586 16.6458 24.2487 16.6692C24.2388 16.6925 24.2344 16.7179 24.2361 16.7432Z" fill="#37474F"/>
<path d="M23.7055 17.0618C23.7093 17.1396 23.7311 17.2154 23.7691 17.2829C23.8072 17.3505 23.8604 17.4079 23.9244 17.4504C23.9529 17.4691 23.986 17.4795 24.0199 17.4802C24.0456 17.4795 24.0708 17.472 24.0928 17.4585L24.6022 17.1579C24.6081 17.1558 24.6135 17.1526 24.6182 17.1484C24.6374 17.132 24.6525 17.1111 24.6624 17.0876C24.6723 17.0641 24.6767 17.0386 24.6752 17.013C24.6708 16.9352 24.6487 16.8594 24.6104 16.792C24.5722 16.7245 24.5189 16.6671 24.455 16.6244C24.434 16.6094 24.4098 16.5998 24.3843 16.5965C24.3589 16.5932 24.3331 16.5963 24.3091 16.6054L24.2932 16.6149L23.7824 16.9142C23.7573 16.9289 23.7367 16.9505 23.7231 16.9766C23.7095 17.0028 23.7034 17.0323 23.7055 17.0618Z" fill="#FAFAFA"/>
<path d="M23.7055 17.0615C23.7094 17.1395 23.7312 17.2155 23.7693 17.2832C23.8073 17.351 23.8604 17.4086 23.9244 17.4515C23.9456 17.4665 23.9701 17.4761 23.9957 17.4794C24.0214 17.4827 24.0474 17.4796 24.0716 17.4705L24.0875 17.461C24.1069 17.4447 24.1222 17.4239 24.1321 17.4003C24.142 17.3768 24.1463 17.3512 24.1446 17.3256C24.1401 17.2476 24.1179 17.1717 24.0797 17.104C24.0414 17.0363 23.9883 16.9787 23.9244 16.9356C23.9031 16.9206 23.8787 16.911 23.853 16.9077C23.8274 16.9044 23.8013 16.9075 23.7771 16.9167L23.7612 16.9261C23.7421 16.9427 23.7272 16.9635 23.7175 16.987C23.7078 17.0106 23.7037 17.0361 23.7055 17.0615Z" fill="#E0E0E0"/>
<path d="M28.0128 16.6361C28.818 16.0092 29.5901 16.0133 29.4508 14.4805C29.3327 13.8034 29.1682 13.7547 28.5222 13.4974C28.2383 13.385 27.8589 13.2997 27.6321 13.5651C27.6072 13.5985 27.5797 13.6297 27.5498 13.6586C27.4829 13.7021 27.4062 13.7272 27.327 13.7317C27.1757 13.7392 27.0319 13.8011 26.921 13.9063C26.8454 13.9944 26.8162 14.1149 26.7419 14.2029C26.6706 14.2719 26.5938 14.3348 26.5125 14.3911C26.4541 14.4427 26.4071 14.5063 26.3744 14.5777C26.3418 14.6491 26.3241 14.7267 26.3228 14.8054C26.3281 14.8955 26.3527 14.9833 26.3949 15.0626C26.4371 15.1419 26.4958 15.2108 26.5668 15.2645L26.9728 15.0262C27.1386 14.9097 27.4808 15.3254 27.3336 15.5448C27.0988 15.8941 28.0128 16.6361 28.0128 16.6361Z" fill="#FFEDE5"/>
<path d="M18.6341 19.718C18.8914 18.6564 18.9657 16.0038 18.9657 16.0038L11.4335 16.234L11.8434 17.9089C11.911 18.2865 11.947 18.6693 11.9508 19.0531C11.9508 19.0531 12.6818 20.4356 14.8494 20.678C16.1813 20.8076 17.5166 20.4689 18.6341 19.718Z" fill="#FFEDE5"/>
<path d="M18.9697 16.004C18.979 16.088 18.9259 16.8909 18.9259 16.8909C17.9628 17.7183 14.8732 18.1367 11.6298 17.0358L10.9426 14.3277C10.9426 14.3277 13.2747 13.2824 11.6988 9.77533L13.3928 9.63993L16.4001 9.56274H17.3871C18.1986 10.3675 18.8845 11.2945 19.4207 12.3115C19.8147 13.0616 20.3161 14.1611 18.9697 16.004Z" fill="#455A64"/>
<path d="M14.7075 16.0283C13.3504 15.6749 13.0108 14.8097 12.914 14.1733C12.914 14.1733 12.658 16.0283 14.5974 16.4603C16.643 16.9153 17.484 15.2619 17.484 15.2619C17.484 15.2619 16.3445 16.4549 14.7075 16.0283Z" fill="#37474F"/>
<path d="M3.1557 36.6708C2.75773 36.9673 1.84107 37.0391 1.03319 36.6518C0.225314 36.2646 -0.111634 35.1624 0.0395949 34.3107C0.222661 33.2721 0.725429 32.7047 0.85278 32.0792C0.98013 31.4536 0.85278 30.5897 1.04646 30.0318C1.12629 29.8174 1.25061 29.6231 1.4109 29.4623C1.57118 29.3015 1.76363 29.178 1.97505 29.1002C2.10985 29.0471 2.25479 29.0261 2.39874 29.039C2.54269 29.052 2.68184 29.0984 2.80548 29.1747L3.04427 29.3182L3.1557 36.6708Z" fill="#263238"/>
<path d="M4.10415 32.7103L3.47536 34.6357C3.47536 34.6357 3.87333 36.0088 3.64914 36.3744C3.31883 36.916 2.73646 37.0108 1.75613 36.7048C0.635184 36.3568 0.371197 35.3209 0.429566 34.5166C0.50916 33.3697 1.54786 32.5072 1.42847 31.4022C1.3701 30.8606 1.44306 30.2554 1.73358 29.7896C2.05859 29.2696 2.59187 29.1721 3.14505 29.3414C3.61996 29.4876 4.0365 29.7923 4.43845 30.078C4.55384 30.1529 4.65834 30.2441 4.74886 30.3488C4.82088 30.4468 4.87482 30.5574 4.90805 30.6751C4.98078 30.9117 5.0025 31.1616 4.97173 31.4077C4.94254 31.6378 4.79795 31.7719 4.66396 31.9493L4.10415 32.7103Z" fill="url(#paint0_linear_2_2944)"/>
<path d="M6.81433 31.799C6.77586 31.7842 4.85499 30.5303 4.64805 30.4355C4.4411 30.3407 3.9317 30.2067 3.43955 31.3698C3.08801 32.1971 3.59343 32.5032 3.59343 32.5032L5.84859 33.8708L6.81433 31.799Z" fill="#FFEDE5"/>
<path d="M3.47547 34.6359C3.06904 34.4285 2.61908 34.3258 2.16482 34.3366C2.1311 34.3398 2.09711 34.3346 2.06585 34.3213C2.03458 34.3079 2.007 34.287 1.98552 34.2602C1.96404 34.2335 1.94932 34.2018 1.94265 34.1679C1.93598 34.134 1.93757 34.0989 1.94727 34.0658C1.96003 34.0263 1.984 33.9916 2.01612 33.9661C2.04824 33.9405 2.08706 33.9253 2.12768 33.9223C2.43146 33.8979 3.16903 33.8884 3.65854 34.3001C3.78854 34.5682 3.47547 34.6359 3.47547 34.6359Z" fill="url(#paint1_linear_2_2944)"/>
<path d="M3.70626 33.7556C3.31102 33.5271 2.86691 33.4011 2.41286 33.3886C2.37866 33.3903 2.34459 33.3834 2.31368 33.3684C2.28276 33.3533 2.25599 33.3307 2.23574 33.3025C2.2155 33.2744 2.20242 33.2415 2.19767 33.2069C2.19293 33.1723 2.19667 33.137 2.20857 33.1043C2.22319 33.0654 2.24875 33.0318 2.28204 33.0077C2.31532 32.9836 2.35483 32.9701 2.39561 32.9688C2.70072 32.9607 3.43829 32.9919 3.90657 33.4279C4.02198 33.7055 3.70626 33.7556 3.70626 33.7556Z" fill="url(#paint2_linear_2_2944)"/>
<path opacity="0.3" d="M3.47547 34.6359C3.06904 34.4285 2.61908 34.3258 2.16482 34.3366C2.1311 34.3398 2.09711 34.3346 2.06585 34.3213C2.03458 34.3079 2.007 34.287 1.98552 34.2602C1.96404 34.2335 1.94932 34.2018 1.94265 34.1679C1.93598 34.134 1.93757 34.0989 1.94727 34.0658C1.96003 34.0263 1.984 33.9916 2.01612 33.9661C2.04824 33.9405 2.08706 33.9253 2.12768 33.9223C2.43146 33.8979 3.16903 33.8884 3.65854 34.3001C3.78854 34.5682 3.47547 34.6359 3.47547 34.6359Z" fill="black"/>
<path opacity="0.3" d="M3.70626 33.7556C3.31102 33.5271 2.86691 33.4011 2.41286 33.3886C2.37866 33.3903 2.34459 33.3834 2.31368 33.3684C2.28276 33.3533 2.25599 33.3307 2.23574 33.3025C2.2155 33.2744 2.20242 33.2415 2.19767 33.2069C2.19293 33.1723 2.19667 33.137 2.20857 33.1043C2.22319 33.0654 2.24875 33.0318 2.28204 33.0077C2.31532 32.9836 2.35483 32.9701 2.39561 32.9688C2.70072 32.9607 3.43829 32.9919 3.90657 33.4279C4.02198 33.7055 3.70626 33.7556 3.70626 33.7556Z" fill="black"/>
<path d="M23.2824 36.8796L25.7777 35.8694C25.7353 35.2127 25.5761 34.338 25.7419 32.6197L22.911 32.0699V34.9622L23.2824 36.8796Z" fill="#FFEDE5"/>
<path d="M30.402 39.1162C30.4683 39.3213 30.456 39.5443 30.3675 39.7404C30.2826 39.9232 29.3474 40.4608 28.0858 40.3741C27.1503 40.3072 26.2493 39.9861 25.4764 39.4439C24.9962 39.1189 24.4948 39.058 23.8713 39.0214C23.2478 38.9849 22.4253 38.6667 22.2887 38.3688C22.1521 38.0709 22.3099 37.5563 22.3099 37.5563L30.402 39.1162Z" fill="#263238"/>
<path d="M25.3119 35.0974L25.4114 35.0757C25.4655 35.0609 25.522 35.0581 25.5772 35.0676C25.6385 35.0869 25.6929 35.1241 25.7338 35.1745C25.8573 35.3352 25.9648 35.508 26.0548 35.6904C26.3201 36.1305 26.8746 36.4961 27.4809 36.8278C27.8934 37.054 28.2967 37.2341 28.7225 37.425C29.1484 37.6159 29.732 37.7459 30.0716 37.9801C30.5665 38.32 30.6315 39.1758 30.0716 39.513C29.5861 39.8054 28.306 40.1209 26.9635 39.7323C26.2312 39.5211 25.4194 38.7235 24.4603 38.6491C23.8501 38.6003 22.6946 38.4256 22.3019 37.9531C22.1574 37.7432 22.351 37.077 22.5102 36.5029C22.684 35.8759 22.7477 34.771 22.952 34.8265C22.952 34.8265 22.8962 34.9823 22.9758 35.0662C23.0554 35.1502 23.3353 35.3181 23.4176 35.3885C23.5551 35.5317 23.6662 35.6991 23.7453 35.8827C23.7781 35.9656 23.8394 36.0335 23.9177 36.0736C24.0212 36.1129 24.0981 36.0465 24.183 36.0046C24.2978 35.9521 24.4271 35.943 24.5478 35.9788C24.5362 35.8545 24.5144 35.7313 24.4828 35.6105C24.4692 35.5724 24.466 35.5312 24.4735 35.4914C24.4902 35.4542 24.5175 35.4231 24.5518 35.402C24.7815 35.2473 25.0405 35.1436 25.3119 35.0974Z" fill="url(#paint3_linear_2_2944)"/>
<path d="M26.9106 36.4896C26.9106 36.4896 26.823 36.2499 26.4609 36.1822C26.1823 36.1294 25.6915 36.3379 25.3864 36.5884C25.3577 36.6126 25.3351 36.6436 25.3208 36.6786C25.3064 36.7137 25.3006 36.7517 25.3039 36.7896C25.3071 36.8274 25.3194 36.8639 25.3395 36.8959C25.3597 36.9278 25.3871 36.9543 25.4195 36.973C25.4612 36.9973 25.5093 37.0075 25.5569 37.0021C25.6046 36.9968 25.6494 36.9761 25.6848 36.9432C26.0207 36.6361 26.4599 36.4735 26.9106 36.4896Z" fill="url(#paint4_linear_2_2944)"/>
<path d="M27.7714 36.9811C27.7112 36.8945 27.6317 36.8239 27.5394 36.7752C27.4471 36.7264 27.3447 36.7009 27.2407 36.7008C27.2407 36.7008 26.5151 36.7225 26.0654 37.149C26.038 37.1725 26.0166 37.2024 26.0029 37.2362C25.9892 37.2699 25.9837 37.3066 25.9868 37.343C25.9899 37.3794 26.0016 37.4144 26.0208 37.4453C26.04 37.4761 26.0662 37.5017 26.0972 37.52C26.1366 37.5424 26.1819 37.5515 26.2266 37.5462C26.2714 37.5408 26.3134 37.5212 26.3466 37.4902C26.5318 37.3022 26.7559 37.1589 27.0024 37.0708C27.249 36.9827 27.5117 36.952 27.7714 36.9811Z" fill="url(#paint5_linear_2_2944)"/>
<path d="M28.7227 37.4253C28.6534 37.345 28.5681 37.2808 28.4724 37.2371C28.3767 37.1934 28.273 37.1712 28.1682 37.1721C28.1682 37.1721 27.4916 37.1978 27.0432 37.6243C27.0155 37.6476 26.9937 37.6774 26.9798 37.7111C26.9658 37.7448 26.9601 37.7815 26.9631 37.818C26.9661 37.8545 26.9777 37.8897 26.997 37.9206C27.0163 37.9515 27.0426 37.9772 27.0737 37.9954C27.1134 38.0176 27.1588 38.0267 27.2038 38.0214C27.2487 38.016 27.2909 37.9965 27.3245 37.9656C27.5003 37.7707 27.7182 37.6203 27.9609 37.5265C28.2037 37.4327 28.4645 37.3981 28.7227 37.4253Z" fill="url(#paint6_linear_2_2944)"/>
<path opacity="0.3" d="M26.9106 36.4896C26.9106 36.4896 26.823 36.2499 26.4609 36.1822C26.1823 36.1294 25.6915 36.3379 25.3864 36.5884C25.3577 36.6126 25.3351 36.6436 25.3208 36.6786C25.3064 36.7137 25.3006 36.7517 25.3039 36.7896C25.3071 36.8274 25.3194 36.8639 25.3395 36.8959C25.3597 36.9278 25.3871 36.9543 25.4195 36.973C25.4612 36.9973 25.5093 37.0075 25.5569 37.0021C25.6046 36.9968 25.6494 36.9761 25.6848 36.9432C26.0207 36.6361 26.4599 36.4735 26.9106 36.4896Z" fill="black"/>
<path opacity="0.3" d="M27.7714 36.9811C27.7112 36.8945 27.6317 36.8239 27.5394 36.7752C27.4471 36.7264 27.3447 36.7009 27.2407 36.7008C27.2407 36.7008 26.5151 36.7225 26.0654 37.149C26.038 37.1725 26.0166 37.2024 26.0029 37.2362C25.9892 37.2699 25.9837 37.3066 25.9868 37.343C25.9899 37.3794 26.0016 37.4144 26.0208 37.4453C26.04 37.4761 26.0662 37.5017 26.0972 37.52C26.1366 37.5424 26.1819 37.5515 26.2266 37.5462C26.2714 37.5408 26.3134 37.5212 26.3466 37.4902C26.5318 37.3022 26.7559 37.1589 27.0024 37.0708C27.249 36.9827 27.5117 36.952 27.7714 36.9811Z" fill="black"/>
<path opacity="0.3" d="M28.7227 37.4253C28.6534 37.345 28.5681 37.2808 28.4724 37.2371C28.3767 37.1934 28.273 37.1712 28.1682 37.1721C28.1682 37.1721 27.4916 37.1978 27.0432 37.6243C27.0155 37.6476 26.9937 37.6774 26.9798 37.7111C26.9658 37.7448 26.9601 37.7815 26.9631 37.818C26.9661 37.8545 26.9777 37.8897 26.997 37.9206C27.0163 37.9515 27.0426 37.9772 27.0737 37.9954C27.1134 38.0176 27.1588 38.0267 27.2038 38.0214C27.2487 38.016 27.2909 37.9965 27.3245 37.9656C27.5003 37.7707 27.7182 37.6203 27.9609 37.5265C28.2037 37.4327 28.4645 37.3981 28.7227 37.4253Z" fill="black"/>
<path d="M24.9883 22.3544C23.0913 21.9198 18.5611 20.953 18.5611 20.953L18.6341 19.7181C16.9958 20.5847 13.5427 20.3396 11.9508 19.0532L11.7001 20.3626C11.0966 21.1002 10.5739 21.9029 10.1414 22.7566C9.77793 23.4918 9.17036 24.6387 9.77528 27.3103C10.1308 28.8797 10.6044 33.0109 10.6044 33.0109L5.9614 31.2642C5.9614 31.2642 5.56343 31.3332 5.22648 32.2215C5.0275 32.7469 4.96117 33.2519 5.16281 33.5133C6.86081 34.8822 9.61211 37.1178 12.3926 38.3716C14.2498 39.0974 15.2367 37.5037 15.327 36.9133C15.6758 34.652 16.0778 27.3861 16.0778 27.3861L22.2861 27.1844C22.0805 28.3841 22.9162 33.0718 22.9162 33.0718C22.9162 33.0718 24.4444 33.7489 25.71 33.0556C25.71 33.0556 26.5563 27.661 26.6386 25.8614C26.7221 23.8547 26.823 22.7755 24.9883 22.3544Z" fill="url(#paint7_linear_2_2944)"/>
<path opacity="0.15" d="M22.286 27.1845C22.286 26.8609 22.497 25.7302 23.2146 25.1277C23.2146 25.1277 22.2303 25.3078 21.7793 27.2008L22.286 27.1845Z" fill="black"/>
<path opacity="0.15" d="M10.6043 33.011C10.6043 33.011 10.737 34.7944 11.0713 35.6637C11.0713 35.6637 10.2342 34.12 10.1427 32.835L10.6043 33.011Z" fill="black"/>
<path opacity="0.15" d="M18.5596 20.9531L18.6326 19.7196C16.9943 20.5848 13.5426 20.3398 11.952 19.0547L11.7013 20.3628C11.7146 20.375 12.736 21.4528 15.3918 21.5923C18.0476 21.7317 18.5596 20.9531 18.5596 20.9531Z" fill="black"/>
<path opacity="0.15" d="M16.0831 27.3861C16.0611 26.7159 15.9058 26.0572 15.6267 25.4501C15.3475 24.8431 14.9504 24.3003 14.4594 23.8547C14.4594 23.8547 15.8867 24.5318 16.3643 26.6753C16.3643 26.6753 17.4256 26.1702 17.9801 24.6563C17.9801 24.6563 17.8103 26.1702 16.9559 27.0314L19.5308 27.2737L16.0831 27.3861Z" fill="black"/>
<path d="M15.2553 0.000249556C14.7103 -0.000640292 14.1704 0.108143 13.6666 0.320378C13.1628 0.532613 12.705 0.844136 12.3192 1.23713C11.9334 1.63013 11.6274 2.09689 11.4185 2.61072C11.2096 3.12456 11.102 3.67538 11.1018 4.2317C11.1018 4.78813 11.2093 5.33909 11.4181 5.85308C11.6269 6.36707 11.933 6.83399 12.3187 7.22713C12.7045 7.62027 13.1624 7.93192 13.6663 8.14424C14.1702 8.35656 14.7102 8.46539 15.2553 8.46449C16.3538 8.4627 17.4067 8.01591 18.1828 7.22226C18.9588 6.42862 19.3945 5.35301 19.3942 4.2317C19.3942 3.11062 18.9583 2.03536 18.1823 1.242C17.4063 0.448647 16.3536 0.00204328 15.2553 0.000249556Z" fill="#263238"/>
<path d="M10.9242 2.57291C11.0741 2.56591 11.2244 2.57453 11.3726 2.59864C11.4228 2.60201 11.4701 2.62419 11.5053 2.66093C11.5257 2.69131 11.5372 2.72701 11.5384 2.76384C11.5727 2.99892 11.5513 3.23896 11.4761 3.46389C11.4177 3.62096 11.236 3.70085 11.1205 3.81459C10.6722 4.25872 10.6364 4.99398 10.8128 5.60466C10.9892 6.21534 11.3434 6.75967 11.5729 7.35005C11.8024 7.94042 11.9244 8.6513 11.5994 9.24573C11.4734 9.47322 11.2439 9.65195 11.2718 9.92276C11.3036 10.2545 11.5875 10.5714 11.7095 10.8706C11.8435 11.2251 11.8891 11.6081 11.8422 11.985C11.8086 12.4537 11.6381 12.9013 11.3527 13.27C11.1345 13.5295 10.8529 13.7254 10.5364 13.8377C10.22 13.9499 9.88005 13.9746 9.55122 13.9091C9.41259 13.8844 9.28139 13.8274 9.16785 13.7426C8.97284 13.5828 8.89457 13.3215 8.78845 13.0899C8.44752 12.3411 7.72719 11.7968 7.50831 11.002C7.27086 10.1557 7.66617 9.27552 8.1517 8.55652C8.37854 8.22071 8.63191 7.89167 8.74334 7.49899C8.89325 6.96955 8.76192 6.40626 8.72743 5.85516C8.69452 5.31685 8.75515 4.77683 8.90651 4.26008C9.01529 3.88635 9.18376 3.45576 9.46898 3.18766C9.86924 2.81621 10.3839 2.59882 10.9242 2.57291Z" fill="#263238"/>
<path d="M17.8473 1.93652C18.301 2.21411 18.8595 3.38537 18.7945 5.83622C18.7388 7.91336 18.0768 8.42384 17.7452 8.57143C17.4136 8.71902 16.7741 8.62424 16.1533 8.51591V9.76301C16.1533 9.76301 17.0076 10.784 16.9493 11.3567C16.8909 11.9295 15.7076 12.0581 14.9063 11.4921C14.1051 10.9261 13.4325 9.83883 13.4325 9.83883L13.4591 6.97093C13.4591 6.97093 13.0889 7.33653 12.4694 6.78136C11.9614 6.32233 11.7916 5.55187 12.1922 5.14565C12.5928 4.73943 13.3291 4.84911 13.6103 5.43948C13.6103 5.43948 14.5999 5.48011 15.9225 4.7462C16.437 4.46514 16.8794 4.06429 17.2138 3.57613C17.5483 3.08798 17.7653 2.52627 17.8473 1.93652Z" fill="#FFEDE5"/>
<path d="M16.5237 5.30533C16.5239 5.35666 16.5093 5.40693 16.4817 5.44985C16.4541 5.49277 16.4148 5.52645 16.3685 5.54669C16.3223 5.56692 16.2713 5.57281 16.2218 5.56363C16.1723 5.55444 16.1266 5.53058 16.0903 5.49503C16.054 5.45948 16.0288 5.41382 16.0178 5.36373C16.0068 5.31364 16.0105 5.26135 16.0284 5.21339C16.0463 5.16542 16.0777 5.12391 16.1186 5.09402C16.1595 5.06414 16.2081 5.04721 16.2583 5.04535C16.3269 5.04529 16.3928 5.07233 16.4423 5.1208C16.4918 5.16927 16.5209 5.2354 16.5237 5.30533Z" fill="#263238"/>
<g style="mix-blend-mode:multiply" opacity="0.5">
<g style="mix-blend-mode:multiply" opacity="0.5">
<path d="M16.5819 7.0672L17.1749 7.26218C17.1641 7.30282 17.1454 7.34081 17.1199 7.37388C17.0943 7.40695 17.0625 7.43442 17.0264 7.45465C16.9902 7.47488 16.9504 7.48745 16.9094 7.49161C16.8683 7.49576 16.8269 7.49142 16.7875 7.47883C16.7076 7.45097 16.6414 7.39241 16.603 7.31556C16.5646 7.23872 16.557 7.14963 16.5819 7.0672Z" fill="#F28F8F"/>
</g>
</g>
<path d="M18.6261 4.51208L18.1101 4.14378C18.1317 4.10811 18.1603 4.07733 18.194 4.05335C18.2277 4.02936 18.2658 4.01266 18.3061 4.00429C18.3464 3.99592 18.3879 3.99605 18.4281 4.00467C18.4683 4.01329 18.5064 4.03021 18.5399 4.05441C18.6085 4.10532 18.6555 4.18091 18.6715 4.26588C18.6875 4.35085 18.6713 4.43885 18.6261 4.51208Z" fill="#263238"/>
<path d="M18.504 5.12404C18.5045 5.17543 18.4901 5.22583 18.4627 5.26893C18.4353 5.31202 18.396 5.34591 18.3498 5.36635C18.3036 5.38679 18.2525 5.39288 18.203 5.38385C18.1534 5.37482 18.1076 5.35107 18.0711 5.31558C18.0347 5.28008 18.0094 5.23442 17.9983 5.1843C17.9871 5.13418 17.9908 5.08182 18.0086 5.03378C18.0265 4.98574 18.0579 4.94414 18.0988 4.9142C18.1397 4.88425 18.1884 4.86728 18.2387 4.86542C18.307 4.86535 18.3728 4.8922 18.4222 4.94038C18.4716 4.98856 18.5009 5.05435 18.504 5.12404Z" fill="#263238"/>
<g style="mix-blend-mode:multiply" opacity="0.5">
<g style="mix-blend-mode:multiply" opacity="0.5">
<path d="M17.2969 4.96954L17.3314 6.54296L18.1432 6.28975L17.2969 4.96954Z" fill="#F28F8F"/>
</g>
</g>
<g style="mix-blend-mode:multiply" opacity="0.5">
<g style="mix-blend-mode:multiply" opacity="0.5">
<path d="M16.1547 8.51613C15.4993 8.42676 14.1542 8.02596 13.9473 7.48163C14.0306 7.75669 14.1945 7.99911 14.4169 8.17626C14.8175 8.53103 16.152 8.93725 16.152 8.93725L16.1547 8.51613Z" fill="#F28F8F"/>
</g>
</g>
<path d="M11.6987 9.77661C10.4146 9.87004 9.88533 10.0366 9.17031 11.6561C8.52692 13.1117 6.98811 16.8787 6.6034 17.7182C6.2187 18.5577 6.14574 18.8949 6.47075 19.7737C6.73606 20.49 8.90367 24.605 9.14112 25.2048C9.37858 25.8047 9.48338 26.4113 9.88798 27.11C10.2926 27.8087 10.932 28.4911 11.4374 28.6523C12.1869 28.8919 13.1619 28.5588 13.1898 28.0971C13.2177 27.6354 12.0901 26.8649 11.7836 25.8399C11.9876 25.9766 12.2023 26.0957 12.4257 26.196C12.7295 26.3233 13.0691 26.2948 13.1699 26.1188C13.2707 25.9428 12.9669 25.8358 12.6963 25.5609C12.5345 25.3971 12.2479 25.0288 11.8818 24.7038C11.6337 24.4844 11.2278 24.4195 11.0447 24.1784C10.9466 24.0498 10.5009 22.9354 10.1652 21.9429C9.75134 20.712 9.20612 19.0736 9.20612 19.0736L11.4374 14.3344C11.4374 14.3344 13.1871 12.5524 11.6987 9.77661Z" fill="#FFEDE5"/>
<path d="M9.13717 25.2047C9.13717 25.2047 9.65055 24.1444 11.0408 24.1783L10.6733 23.3442C10.6733 23.3442 9.31626 23.4417 8.74451 24.38L9.13717 25.2047Z" fill="#37474F"/>
<path d="M8.98731 24.3041L9.28578 24.7361C9.30739 24.7675 9.33497 24.7941 9.36689 24.8144C9.3988 24.8347 9.43439 24.8482 9.47153 24.8542C9.50867 24.8601 9.54661 24.8583 9.58307 24.849C9.61953 24.8396 9.65377 24.8229 9.68375 24.7997L10.2144 24.3935C10.2761 24.3453 10.3174 24.2749 10.33 24.1966C10.3425 24.1184 10.3254 24.0382 10.282 23.9724L10.0048 23.5553C9.98392 23.5231 9.95686 23.4956 9.92525 23.4745C9.89364 23.4533 9.85813 23.4389 9.8209 23.4322C9.78367 23.4255 9.74549 23.4266 9.70868 23.4354C9.67187 23.4442 9.63722 23.4606 9.60681 23.4836L9.04435 23.8898C8.9831 23.9371 8.94272 24.0073 8.93203 24.0849C8.92134 24.1626 8.94121 24.2414 8.98731 24.3041Z" fill="#263238"/>
<path d="M8.88769 24.2935L9.18882 24.7255C9.21055 24.7567 9.23818 24.7832 9.2701 24.8034C9.30202 24.8236 9.33757 24.837 9.37466 24.843C9.41175 24.8489 9.44963 24.8472 9.48606 24.8379C9.5225 24.8287 9.55675 24.8121 9.58679 24.7891L10.1174 24.3829C10.179 24.3347 10.2204 24.2644 10.2333 24.1862C10.2461 24.1081 10.2293 24.0278 10.1864 23.9618L9.90915 23.5447C9.88816 23.5127 9.86105 23.4853 9.82943 23.4643C9.79781 23.4432 9.76234 23.4289 9.72516 23.4222C9.68799 23.4155 9.64986 23.4165 9.61309 23.4253C9.57631 23.434 9.54165 23.4502 9.51118 23.473L8.94872 23.886C8.88845 23.9323 8.84834 24.0009 8.83694 24.0771C8.82554 24.1532 8.84375 24.2309 8.88769 24.2935Z" fill="#455A64"/>
<path d="M10.1321 24.1512C10.1254 24.2048 10.0982 24.2535 10.0564 24.2866L9.52581 24.6929C9.50737 24.7079 9.48598 24.7187 9.46309 24.7245C9.4402 24.7304 9.41635 24.7311 9.39315 24.7267C9.37041 24.7231 9.3486 24.7149 9.329 24.7026C9.30941 24.6903 9.29243 24.6741 9.27907 24.6549L8.97661 24.2216C8.95109 24.1857 8.93973 24.1412 8.94478 24.0971C8.94658 24.0703 8.95418 24.0443 8.96702 24.0209C8.97987 23.9974 8.99764 23.9772 9.01906 23.9617L9.58153 23.5554C9.60034 23.5412 9.62184 23.5311 9.64467 23.5257C9.66749 23.5204 9.69116 23.5199 9.71418 23.5243C9.7369 23.5284 9.75859 23.5371 9.77796 23.5499C9.79733 23.5627 9.81398 23.5793 9.82694 23.5988L10.1042 24.0158C10.1302 24.0557 10.1415 24.1037 10.136 24.1512H10.1321Z" fill="url(#paint8_linear_2_2944)"/>
</g>
<defs>
<linearGradient id="paint0_linear_2_2944" x1="4.98529" y1="36.8775" x2="-1.11992" y2="36.5943" gradientUnits="userSpaceOnUse">
<stop stop-color="#92A3FD"/>
<stop offset="1" stop-color="#9DCEFF"/>
</linearGradient>
<linearGradient id="paint1_linear_2_2944" x1="3.69014" y1="34.6359" x2="1.4214" y2="34.2107" gradientUnits="userSpaceOnUse">
<stop stop-color="#92A3FD"/>
<stop offset="1" stop-color="#9DCEFF"/>
</linearGradient>
<linearGradient id="paint2_linear_2_2944" x1="3.93194" y1="33.7556" x2="1.66981" y2="33.3697" gradientUnits="userSpaceOnUse">
<stop stop-color="#92A3FD"/>
<stop offset="1" stop-color="#9DCEFF"/>
</linearGradient>
<linearGradient id="paint3_linear_2_2944" x1="30.4675" y1="39.9132" x2="19.6205" y2="38.5579" gradientUnits="userSpaceOnUse">
<stop stop-color="#92A3FD"/>
<stop offset="1" stop-color="#9DCEFF"/>
</linearGradient>
<linearGradient id="paint4_linear_2_2944" x1="26.9106" y1="37.0035" x2="24.8026" y2="36.6874" gradientUnits="userSpaceOnUse">
<stop stop-color="#92A3FD"/>
<stop offset="1" stop-color="#9DCEFF"/>
</linearGradient>
<linearGradient id="paint5_linear_2_2944" x1="27.7714" y1="37.5477" x2="25.4396" y2="37.1672" gradientUnits="userSpaceOnUse">
<stop stop-color="#92A3FD"/>
<stop offset="1" stop-color="#9DCEFF"/>
</linearGradient>
<linearGradient id="paint6_linear_2_2944" x1="28.7227" y1="38.0229" x2="26.4214" y2="37.6544" gradientUnits="userSpaceOnUse">
<stop stop-color="#92A3FD"/>
<stop offset="1" stop-color="#9DCEFF"/>
</linearGradient>
<linearGradient id="paint7_linear_2_2944" x1="26.6755" y1="38.5575" x2="-2.11994" y2="36.0858" gradientUnits="userSpaceOnUse">
<stop stop-color="#92A3FD"/>
<stop offset="1" stop-color="#9DCEFF"/>
</linearGradient>
<linearGradient id="paint8_linear_2_2944" x1="10.1374" y1="24.7295" x2="8.5461" y2="24.6079" gradientUnits="userSpaceOnUse">
<stop stop-color="#92A3FD"/>
<stop offset="1" stop-color="#9DCEFF"/>
</linearGradient>
<clipPath id="clip0_2_2944">
<rect width="32.7556" height="40.3836" fill="white" transform="translate(-0.00012207 0.000244141)"/>
</clipPath>
</defs>
</svg>
