<svg width="38" height="43" viewBox="0 0 38 43" fill="none" xmlns="http://www.w3.org/2000/svg">
<path d="M18.2965 54.0664C17.44 54.068 16.5858 53.9771 15.7487 53.7954C14.2855 53.4939 12.9072 52.8706 11.713 51.9705C10.5189 51.0704 9.53871 49.9158 8.84301 48.59C8.29096 47.3499 7.88087 46.0511 7.62058 44.7183L7.56053 44.4645C6.70269 40.7992 5.6218 36.9231 3.62731 33.4213C3.30562 32.8578 2.9539 32.2942 2.61505 31.7522C1.79527 30.5248 1.10118 29.2176 0.543354 27.8503C-0.314491 25.5057 -0.15579 23.1741 1.01517 21.6383C1.16942 21.3996 1.37011 21.1947 1.60523 21.0358C1.84034 20.8769 2.10503 20.7672 2.38343 20.7133C2.55308 20.6928 2.72512 20.7074 2.88891 20.7562C3.05271 20.805 3.20475 20.8871 3.33564 20.9973C3.43774 21.0789 3.52147 21.1813 3.58135 21.2977C3.64122 21.4141 3.67589 21.5419 3.68307 21.6727H3.40427C3.39756 21.5815 3.37197 21.4927 3.32914 21.4119C3.2863 21.3312 3.22717 21.2603 3.15549 21.2038C3.05366 21.1189 2.93591 21.0554 2.8092 21.017C2.68248 20.9786 2.54938 20.966 2.41775 20.9801C1.93452 21.0905 1.51218 21.3832 1.23821 21.7974C0.127299 23.2644 -0.0485591 25.4885 0.809286 27.7427C1.36239 29.1002 2.05225 30.3976 2.86812 31.6145C3.20696 32.1609 3.55868 32.7244 3.88466 33.2923C5.88344 36.8199 6.9772 40.7175 7.83504 44.4042L7.89509 44.6581C8.14993 45.9688 8.55285 47.2461 9.09607 48.4653C9.77213 49.7537 10.725 50.8754 11.8858 51.7496C13.0467 52.6237 14.3865 53.2284 15.8087 53.5201C18.6845 54.0917 21.6682 53.686 24.2885 52.3672C25.3377 51.8982 26.2849 51.2273 27.0765 50.3926C27.8818 49.415 28.5024 48.2983 28.908 47.0973C29.6243 45.213 30.1948 43.2255 30.7095 41.3111C31.503 38.4546 32.3222 35.4992 33.7119 32.8234C34.1409 32.0404 34.5698 31.2703 35.0245 30.5261C35.8758 29.1904 36.5941 27.774 37.1691 26.2973C37.6623 24.8948 37.6838 23.7161 37.2377 22.8557C37.0811 22.5688 36.8635 22.3199 36.6004 22.1266C36.3373 21.9333 36.035 21.8004 35.715 21.7372C35.4916 21.6842 35.259 21.6842 35.0356 21.7373C34.8122 21.7903 34.6043 21.8948 34.4282 22.0426L34.2438 21.8318C34.4507 21.6543 34.6961 21.5276 34.9605 21.4618C35.2248 21.3961 35.5008 21.3932 35.7665 21.4533C36.1296 21.5284 36.4716 21.6831 36.7682 21.9062C37.0648 22.1293 37.3086 22.4153 37.4822 22.7439C37.9669 23.6903 37.9454 24.9207 37.4264 26.4005C36.8455 27.8959 36.1155 29.3285 35.2475 30.6767C34.8186 31.4209 34.3468 32.1867 33.9607 32.961C32.5882 35.611 31.7732 38.5536 30.984 41.3929C30.4478 43.3201 29.8945 45.312 29.1697 47.2048C28.755 48.439 28.1182 49.5865 27.291 50.5905C26.4734 51.4519 25.4957 52.1446 24.4129 52.6296C22.5065 53.5603 20.4166 54.0513 18.2965 54.0664Z" fill="url(#paint0_linear_1_1078)"/>
<path d="M21.4447 3.97422C21.6665 3.62115 21.7935 3.21659 21.8136 2.79978C21.8378 2.61258 21.8208 2.42234 21.7637 2.24246C21.7066 2.06258 21.6109 1.89745 21.4833 1.7587C21.3761 1.65546 21.2431 1.57372 21.1445 1.46187C21.0458 1.35002 20.9986 1.23387 20.9171 1.12632C20.8288 1.01093 20.7151 0.917534 20.5849 0.85337C20.4547 0.789206 20.3116 0.756005 20.1665 0.756347C19.8706 0.756347 19.5574 0.89401 19.3087 0.756347C19.1543 0.678912 19.0513 0.524041 18.8797 0.438002C18.7183 0.355574 18.533 0.332732 18.3565 0.373473C18.2022 0.42743 18.0393 0.452228 17.8761 0.446606C17.6444 0.41219 17.4857 0.205696 17.2799 0.089543C17.174 0.0352728 17.0576 0.00487885 16.9389 0.000492464C16.8201 -0.00389392 16.7018 0.0178334 16.5923 0.064151C16.4827 0.110468 16.3846 0.180255 16.3048 0.268617C16.225 0.356979 16.1655 0.461778 16.1303 0.575665C16.1024 0.6843 16.1024 0.79828 16.1303 0.906916C16.1775 1.16934 16.3577 1.38013 16.3705 1.64255C16.3834 1.90497 16.2247 2.13298 16.3705 2.36528C16.5164 2.59759 16.7308 2.60619 16.8338 2.82559C16.971 3.12243 16.8338 3.5096 16.9582 3.82795C17.0225 4.03014 17.0568 4.31837 17.2455 4.44743C17.5072 4.62811 18.0777 4.47755 18.3908 4.44743L19.6046 4.34849C20.1408 4.29686 20.8013 4.34849 21.286 4.08176C21.3445 4.05507 21.3982 4.01872 21.4447 3.97422Z" fill="#3B2645"/>
<path d="M17.3271 3.78488C17.2845 3.72622 17.2287 3.67849 17.1642 3.64558C17.0997 3.61267 17.0284 3.59552 16.9561 3.59552C16.8837 3.59552 16.8124 3.61267 16.7479 3.64558C16.6834 3.67849 16.6276 3.72622 16.585 3.78488C16.2119 4.21508 16.8424 5.07547 17.3271 5.12709C17.3553 4.68014 17.3553 4.23184 17.3271 3.78488Z" fill="#E0855C"/>
<path d="M23.3534 10.9907C23.2404 11.7153 23.0886 12.4334 22.8988 13.1417C22.8687 13.275 22.843 13.4041 22.8259 13.5289C22.8087 13.6536 22.7915 13.7483 22.7701 13.9074C22.7701 13.9376 22.7701 13.972 22.7701 14.0021C22.7701 14.1053 22.7401 14.2129 22.7272 14.329L22.1868 19.3838C18.8283 20.3088 15.324 19.3838 15.324 19.3838C15.324 19.3838 15.324 19.3193 15.324 19.1945C15.2682 18.6224 15.0967 16.8027 14.9251 14.7506C14.9251 14.7506 14.9251 14.7205 14.9251 14.7076C14.9268 14.6761 14.9268 14.6445 14.9251 14.613C14.8522 13.7526 14.7836 12.8405 14.7278 11.9716C14.6248 10.4616 14.5605 9.06773 14.5734 8.20303C14.5734 7.88469 15.3154 7.9191 15.8215 7.85027C16.1947 7.79865 16.5764 7.76423 16.9067 7.74703C17.237 7.72982 17.4858 7.72121 17.653 7.72121H17.8418C17.8418 7.72121 17.8847 7.22649 17.8847 7.22219L18.0005 6.00903C18.0568 6.02359 18.1141 6.03366 18.172 6.03915C18.2782 6.0591 18.3858 6.07061 18.4937 6.07356C18.6353 6.07356 18.7682 6.07356 18.8926 6.07356L19.0771 6.05205H19.1843C19.3044 6.03054 19.4202 6.00473 19.5274 5.97462C19.6347 5.9445 19.669 5.9316 19.7376 5.91009C20.051 5.80938 20.3485 5.66453 20.6212 5.47989L20.6598 5.45408L20.7327 5.39815L20.7842 5.35944C20.7842 5.41966 20.7842 5.44548 20.7842 5.47129C20.7499 5.75522 20.7113 6.11658 20.6941 6.47364C20.6941 6.72316 20.6684 6.96837 20.6598 7.17917C20.6512 7.38996 20.5826 7.6954 20.7327 7.80295C20.7863 7.83314 20.8441 7.8549 20.9043 7.86748C21.1397 7.90477 21.378 7.9206 21.6163 7.9148C21.6892 7.9148 21.7621 7.9148 21.835 7.9148C22.0179 7.90411 22.2012 7.90411 22.3841 7.9148C22.5118 7.91443 22.6384 7.93974 22.7563 7.98925C22.8742 8.03875 22.9809 8.11145 23.0703 8.20303C23.1815 8.36444 23.2521 8.5504 23.2762 8.74508L23.3277 9.09784C23.4093 9.72567 23.418 10.3609 23.3534 10.9907Z" fill="#FFEDE5"/>
<path d="M20.767 5.32928C20.709 5.63715 20.5837 5.92831 20.4001 6.18181C20.2165 6.43532 19.9792 6.64488 19.7053 6.79543C19.4313 6.94599 19.1275 7.03379 18.8156 7.05252C18.5038 7.07126 18.1917 7.02047 17.9018 6.9038L17.9833 6.0133C18.469 6.10728 18.9693 6.09481 19.4498 5.97674C19.9302 5.85868 20.3796 5.63781 20.767 5.32928Z" fill="#E0855C"/>
<path d="M17.413 2.49448C17.1642 2.7526 17.1428 3.32906 17.1256 3.96575C17.0613 5.90163 17.6404 6.50391 18.6226 6.61146C19.6048 6.71901 20.6385 6.33613 20.8487 4.54651C20.9559 3.6474 21.0674 2.82573 20.7415 2.43425C20.2739 1.85779 18.1679 1.70292 17.413 2.49448Z" fill="#FFEDE5"/>
<path d="M20.7028 4.28405C20.7028 4.28405 21.0031 3.48389 21.4792 3.90978C21.9553 4.33568 21.299 5.54453 20.5699 5.45419C20.5785 5.45419 20.4798 4.55938 20.7028 4.28405Z" fill="#FFEDE5"/>
<path d="M21.2689 4.27541C21.1563 4.31069 21.0555 4.37614 20.9773 4.46469C20.8887 4.53891 20.817 4.63133 20.7671 4.73572C20.7671 4.76583 20.7971 4.78734 20.8186 4.76583C20.879 4.70579 20.9363 4.64261 20.9901 4.57655C21.0293 4.61981 21.0777 4.65364 21.1317 4.67549C21.1746 4.67549 21.2089 4.63677 21.1917 4.60236C21.162 4.5568 21.1224 4.51856 21.0759 4.49051C21.156 4.43908 21.232 4.38155 21.3032 4.31843C21.3046 4.31325 21.3047 4.30783 21.3036 4.30261C21.3025 4.29738 21.3001 4.29248 21.2968 4.28831C21.2935 4.28413 21.2892 4.28079 21.2844 4.27855C21.2795 4.27631 21.2743 4.27524 21.2689 4.27541Z" fill="#E0855C"/>
<path d="M17.9705 3.92251C17.9705 3.92251 17.8033 3.98274 17.829 3.6859C17.8547 3.38907 17.9705 3.4579 17.9705 3.4579C17.9705 3.4579 18.0863 3.4579 18.0692 3.6902C18.052 3.92251 17.9705 3.92251 17.9705 3.92251Z" fill="#3B2645"/>
<path d="M19.6562 3.92251C19.6562 3.92251 19.4932 3.98274 19.5189 3.6859C19.5447 3.38907 19.6562 3.4579 19.6562 3.4579C19.6562 3.4579 19.772 3.4579 19.7548 3.6902C19.7377 3.92251 19.6562 3.92251 19.6562 3.92251Z" fill="#3B2645"/>
<path d="M18.1507 3.02349C18.0833 2.98521 18.0056 2.96919 17.9286 2.97768C17.8517 2.98618 17.7793 3.01876 17.7218 3.07081C17.7189 3.07669 17.7175 3.08322 17.7178 3.08978C17.7181 3.09634 17.7201 3.10272 17.7235 3.10831C17.7269 3.1139 17.7317 3.11853 17.7374 3.12175C17.7431 3.12498 17.7496 3.12669 17.7561 3.12674C17.8162 3.12674 17.8676 3.09232 17.9277 3.08802C17.9906 3.08501 18.0534 3.09527 18.1121 3.11813C18.1679 3.13534 18.2065 3.0493 18.1507 3.02349Z" fill="#3B2645"/>
<path d="M19.9092 3.16978C19.8406 2.9977 19.5446 2.98479 19.416 3.08804C19.4097 3.09286 19.4047 3.09905 19.4012 3.10614C19.3977 3.11322 19.3959 3.12101 19.3959 3.12891C19.3959 3.1368 19.3977 3.14459 19.4012 3.15168C19.4047 3.15876 19.4097 3.16495 19.416 3.16978C19.493 3.17622 19.5705 3.17622 19.6476 3.16978C19.7099 3.17985 19.7706 3.19868 19.8277 3.2257C19.8351 3.23654 19.8465 3.24399 19.8594 3.24641C19.8722 3.24883 19.8855 3.24602 19.8964 3.23861C19.9072 3.23119 19.9146 3.21977 19.917 3.20687C19.9194 3.19396 19.9166 3.18062 19.9092 3.16978Z" fill="#3B2645"/>
<path d="M18.3093 5.30782C18.6711 5.35539 19.0388 5.29242 19.3644 5.12714C19.3157 5.24193 19.2436 5.34524 19.1528 5.43044C19.0619 5.51564 18.9543 5.58084 18.8368 5.62186C18.4637 5.72511 18.3093 5.30782 18.3093 5.30782Z" fill="white"/>
<path d="M16.1431 8.19881C17.1296 8.89142 17.2197 10.2379 16.7393 11.3134C16.4133 12.0319 15.8086 12.5352 15.4526 13.2149C15.0816 13.8741 14.6508 14.4977 14.1658 15.0776C13.1021 16.4328 12.0898 17.6588 11.6995 18.1234C10.357 19.7324 7.53465 21.8575 6.5181 22.5975C6.28648 22.7696 6.14923 22.8642 6.14923 22.8642C6.14923 22.8642 5.17557 22.3523 5.43293 21.4058C5.43293 21.4058 9.29323 17.2932 9.8637 16.4543C10.4941 15.3639 11.0668 14.241 11.5794 13.0901C12.2371 11.8139 12.9219 10.5548 13.6339 9.31301C13.9599 8.74085 14.376 8.02242 15.0923 7.89337C15.3813 7.86078 15.6732 7.92264 15.9244 8.06975C16.0003 8.10748 16.0734 8.15061 16.1431 8.19881Z" fill="#FFEDE5"/>
<path d="M5.43314 21.4102C5.53879 21.402 5.6449 21.402 5.75054 21.4102C5.75054 21.4102 6.67702 21.9264 6.51832 22.5975C6.51832 22.5975 6.41966 22.6878 6.26525 22.8255C6.11084 22.9632 5.94356 23.1266 5.74196 23.3331C5.54037 23.5396 5.08142 24.1935 4.88412 24.1376C4.83813 24.1206 4.79795 24.0907 4.76831 24.0516L4.36941 23.6214C4.14637 23.3719 3.77321 22.9503 4.0563 22.619C3.85041 22.7438 3.37002 23.0492 3.13411 22.9029L3.03546 22.7438C3.03546 22.7438 3.74318 22.2146 4.03485 21.9522C4.42832 21.6213 4.92009 21.4307 5.43314 21.4102Z" fill="#FFEDE5"/>
<path d="M17.3143 14.7895C17.3128 14.8124 17.3128 14.8355 17.3143 14.8584C17.3143 14.8584 17.3529 14.8584 17.3443 14.8584L17.3143 14.7895Z" fill="#D6BED3"/>
<path d="M18.9055 28.7321C18.5109 31.9026 18.0476 34.6602 18.0476 34.6602C18.112 35.4259 18.142 36.2562 18.142 37.108C18.142 38.7772 18.0305 40.5496 17.8889 42.1112C17.7088 44.103 17.46 45.798 17.3528 46.6498V46.7573C17.5115 52.4058 15.9073 53.1543 15.1567 51.9197C14.4061 50.685 15.1567 47.0455 15.1567 47.0455C15.1591 47.0126 15.1591 46.9795 15.1567 46.9466C14.8409 45.2564 14.6303 43.548 14.5262 41.8316C14.2688 37.6759 14.7106 34.8323 14.6591 34.316C13.7627 25.2819 15.0151 20.3002 15.0151 20.3002C15.2107 19.5764 15.5637 18.9049 16.0488 18.3342C16.9625 17.3448 18.0605 17.5943 18.7511 18.8032C18.8237 18.9271 18.8895 19.0549 18.9484 19.186C19.2298 19.8804 19.3894 20.6183 19.4202 21.3671C19.4888 23.2385 19.2272 26.1251 18.9055 28.7321Z" fill="#FFEDE5"/>
<path d="M23.3363 41.612C23.2365 43.3643 23.0274 45.1086 22.7101 46.8346L22.6715 47.0454C22.6715 47.0454 23.4221 50.6977 22.6715 51.9195C21.9208 53.1413 20.3338 52.4271 20.4754 46.8346C20.4754 46.8088 20.4754 46.783 20.4754 46.7614C20.3553 45.9527 20.1151 44.2018 19.9263 42.1282C19.7805 40.5537 19.669 38.7899 19.669 37.1207C19.669 36.2604 19.7033 35.4344 19.7676 34.6643C19.7676 34.6643 19.2915 31.9068 18.9098 28.7405C18.5881 26.1292 18.3222 23.2426 18.4337 21.3885C18.4658 20.6393 18.6269 19.9014 18.9098 19.2074C18.966 19.0722 19.0319 18.9414 19.1071 18.8159C19.9006 17.435 21.2217 17.3145 22.1953 18.8718C22.4743 19.3232 22.6934 19.8091 22.8473 20.3173C22.8473 20.3173 24.0998 25.286 23.2033 34.3331C23.139 34.8407 23.5636 37.5854 23.3363 41.612Z" fill="#FFEDE5"/>
<path d="M5.33013 24.2021C5.41558 24.3013 5.52173 24.3805 5.64106 24.434C5.76039 24.4876 5.88999 24.5141 6.02069 24.5119C6.08057 24.4979 6.13699 24.4719 6.18656 24.4354C6.23612 24.3989 6.2778 24.3528 6.30908 24.2997C6.34035 24.2466 6.36056 24.1877 6.3685 24.1266C6.37644 24.0655 6.37193 24.0033 6.35525 23.944C6.30538 23.8131 6.2244 23.6965 6.11935 23.6041C5.47167 22.9588 4.80684 22.3136 4.13343 21.7156C4.0209 21.5884 3.8705 21.5009 3.70451 21.4661C3.55014 21.466 3.40075 21.5209 3.28293 21.6209C3.16512 21.721 3.08652 21.8597 3.06113 22.0124C3.06113 22.2877 3.29703 22.391 3.49005 22.5459C4.09912 23.0879 4.70819 23.6558 5.33013 24.2021Z" fill="#3B2645"/>
<path d="M5.23574 23.4405C5.26243 23.4129 5.2842 23.3809 5.30007 23.3459C5.31095 23.3015 5.31157 23.2551 5.30191 23.2104C5.29225 23.1657 5.27255 23.1237 5.24431 23.0878C5.08561 22.8254 4.75963 22.4038 4.43794 22.365C4.33173 22.3596 4.22596 22.3822 4.13114 22.4305C4.03633 22.4788 3.95578 22.5512 3.8975 22.6404C3.80124 22.7793 3.74003 22.9395 3.71911 23.1074C3.69819 23.2752 3.71819 23.4456 3.7774 23.604C3.87154 23.8889 4.06494 24.1303 4.32213 24.2837C4.45047 24.3383 4.59486 24.341 4.72514 24.2913C4.85543 24.2416 4.96152 24.1433 5.02128 24.017C5.08561 23.8578 5.06417 23.6642 5.16711 23.5309C5.18663 23.4983 5.20964 23.4681 5.23574 23.4405Z" fill="#FFEDE5"/>
<path d="M21.6507 8.19898C20.6599 8.89159 20.5698 10.2381 21.0545 11.3136C21.3762 12.032 21.981 12.5354 22.3413 13.2151C22.7153 13.8724 23.1458 14.4957 23.628 15.0778C24.6918 16.4329 25.7083 17.659 26.0943 18.1236C27.4412 19.7411 30.2635 21.8577 31.28 22.5976L31.6532 22.8644C31.6532 22.8644 32.6225 22.3524 32.3652 21.406C32.3652 21.406 28.5049 17.2933 27.9344 16.4544C27.3023 15.365 26.7295 14.242 26.2187 13.0903C25.5582 11.7997 24.8762 10.5565 24.1599 9.31319C23.8339 8.74103 23.4222 8.0226 22.7016 7.89354C22.4125 7.86127 22.1208 7.92311 21.8695 8.06992C21.7935 8.10746 21.7203 8.1506 21.6507 8.19898Z" fill="#FFEDE5"/>
<path d="M32.3608 21.4101C32.2538 21.402 32.1462 21.402 32.0391 21.4101C32.0391 21.4101 31.1127 21.9263 31.2714 22.5975C31.2714 22.5975 31.3743 22.6878 31.5244 22.8255C31.6746 22.9631 31.8504 23.1266 32.0477 23.3331C32.245 23.5396 32.7125 24.1935 32.9056 24.1376C32.9509 24.1194 32.9908 24.0897 33.0214 24.0515L33.416 23.6213C33.6433 23.3718 34.0122 22.9502 33.7334 22.619C33.935 22.7437 34.4154 23.0492 34.6556 22.9029L34.7371 22.7437C34.7371 22.7437 34.0293 22.2146 33.7334 21.9522C33.3475 21.6254 32.8652 21.435 32.3608 21.4101Z" fill="#FFEDE5"/>
<path d="M32.4596 24.2021C32.3741 24.3013 32.268 24.3805 32.1487 24.434C32.0293 24.4876 31.8997 24.5141 31.769 24.5119C31.7084 24.4989 31.651 24.4736 31.6005 24.4375C31.55 24.4015 31.5073 24.3555 31.4752 24.3023C31.443 24.2491 31.4221 24.1899 31.4136 24.1282C31.4051 24.0666 31.4093 24.0039 31.4259 23.944C31.4794 23.8189 31.5617 23.7083 31.6661 23.6214C32.3152 22.9761 32.9786 22.3465 33.6563 21.7328C33.7682 21.6048 33.9189 21.5172 34.0852 21.4833C34.2391 21.4834 34.3879 21.5384 34.505 21.6385C34.6221 21.7386 34.6998 21.8773 34.7243 22.0296C34.7243 22.305 34.4927 22.4082 34.2954 22.5631C33.6906 23.0879 33.0815 23.6558 32.4596 24.2021Z" fill="#3B2645"/>
<path d="M32.5581 23.4405C32.5289 23.4142 32.5055 23.3819 32.4895 23.3459C32.4805 23.3011 32.4811 23.2548 32.4915 23.2103C32.5018 23.1657 32.5217 23.1239 32.5496 23.0878C32.704 22.8254 33.03 22.4038 33.3517 22.365C33.4579 22.3596 33.5636 22.3822 33.6584 22.4305C33.7533 22.4788 33.8338 22.5512 33.8921 22.6404C33.9873 22.7799 34.0468 22.9408 34.0655 23.1088C34.0842 23.2768 34.0615 23.4469 33.9993 23.604C33.908 23.8905 33.7139 24.1327 33.4546 24.2837C33.3263 24.3383 33.1819 24.341 33.0516 24.2913C32.9213 24.2416 32.8152 24.1433 32.7555 24.017C32.6954 23.8578 32.7168 23.6642 32.6096 23.5309L32.5581 23.4405Z" fill="#FFEDE5"/>
<path d="M23.4007 38.8544V39.2846C23.4007 39.5728 23.4007 39.8697 23.4007 40.1751V40.5236C23.4007 40.8763 23.3749 41.242 23.3578 41.6163C22.2472 41.9235 21.1037 42.0954 19.9521 42.1282C19.9049 41.6464 19.8106 40.3644 19.8063 40.2224C19.8063 39.9299 19.7419 39.1039 19.7377 38.9921C19.7119 38.364 19.6948 37.7359 19.6948 37.1207C19.6948 36.3205 19.7248 35.5376 19.7848 34.8106C19.7848 34.7589 19.7848 34.7116 19.7848 34.6643C19.7848 34.617 19.3087 31.911 18.927 28.7405C18.8841 29.076 18.8412 29.4116 18.7983 29.7342C18.438 32.4617 18.0563 34.6643 18.0563 34.6643C18.1206 35.43 18.1506 36.2603 18.1506 37.1121C18.1506 37.7617 18.1506 38.4027 18.1035 39.0824C18.1035 39.1943 18.0177 40.6311 18.0048 40.7688C17.9748 41.2291 17.9362 41.6808 17.8976 42.1153C17.2971 42.0895 16.7052 42.0508 16.1176 41.9991C15.6543 41.9604 15.071 41.9346 14.5048 41.8529C14.4791 41.4657 14.4619 41.0957 14.449 40.7344C14.449 40.644 14.449 40.5537 14.449 40.4633C14.449 40.0676 14.449 39.6933 14.449 39.3319V39.048C14.449 36.441 14.7021 34.7245 14.6635 34.3158C13.7671 25.2817 15.0195 20.3 15.0195 20.3C15.215 19.5762 15.5681 18.9047 16.0532 18.334C16.4209 18.3911 16.7817 18.4863 17.1298 18.618C17.6601 18.757 18.2075 18.8192 18.7554 18.803H19.15C19.6261 18.803 20.1022 18.747 20.5741 18.7341H20.8915C21.3438 18.7274 21.7954 18.7707 22.2383 18.8632C22.503 19.3195 22.7077 19.8082 22.8473 20.3173C23.1938 21.941 23.3976 23.5921 23.4564 25.2516C23.6017 28.2808 23.5171 31.3167 23.2034 34.333C23.1519 34.7159 23.3792 36.355 23.4007 38.8544Z" fill="#3B2645"/>
<path d="M6.20942 7.68672C6.20942 7.66091 6.15795 7.66091 6.15366 7.68672C5.9392 9.15369 6.06358 10.6981 6.06358 12.1995C6.06358 13.7869 6.01211 15.3872 6.10648 16.9704C6.11053 16.9873 6.12014 17.0023 6.13376 17.0131C6.14737 17.0238 6.1642 17.0297 6.18154 17.0297C6.19887 17.0297 6.2157 17.0238 6.22931 17.0131C6.24293 17.0023 6.25254 16.9873 6.2566 16.9704C6.34667 15.3872 6.2952 13.7869 6.2952 12.1995C6.2952 10.7325 6.41959 9.16659 6.20942 7.68672Z" fill="#F7F8F8"/>
<path d="M8.08387 8.18579C8.07931 8.16466 8.06767 8.14574 8.05089 8.13217C8.03411 8.11861 8.01321 8.11121 7.99166 8.11121C7.9701 8.11121 7.9492 8.11861 7.93242 8.13217C7.91565 8.14574 7.90401 8.16466 7.89944 8.18579C7.89944 9.59683 7.80936 11.0337 7.89944 12.4404C7.89944 12.4644 7.90893 12.4874 7.92582 12.5043C7.94271 12.5213 7.96562 12.5308 7.98951 12.5308C8.0134 12.5308 8.03631 12.5213 8.0532 12.5043C8.0701 12.4874 8.07959 12.4644 8.07959 12.4404C8.17824 11.0337 8.09245 9.59683 8.08387 8.18579Z" fill="#F7F8F8"/>
<path d="M27.2609 22.9588C27.2574 22.946 27.2498 22.9348 27.2394 22.9268C27.2289 22.9188 27.2161 22.9145 27.203 22.9145C27.1898 22.9145 27.177 22.9188 27.1666 22.9268C27.1561 22.9348 27.1485 22.946 27.1451 22.9588C27.0242 24.8061 26.9999 26.6584 27.0721 28.5083C27.0721 30.3581 27.0721 32.2037 27.1408 34.0535C27.1444 34.0673 27.1525 34.0795 27.1637 34.0881C27.175 34.0968 27.1888 34.1015 27.203 34.1015C27.2172 34.1015 27.231 34.0968 27.2422 34.0881C27.2535 34.0795 27.2615 34.0673 27.2652 34.0535C27.3252 32.2037 27.3252 30.3581 27.3338 28.5083C27.4039 26.6584 27.3795 24.8062 27.2609 22.9588Z" fill="#F7F8F8"/>
<path d="M30.5681 12.1393C30.5547 10.9084 30.4745 9.67907 30.3279 8.45686C30.3279 8.38372 30.2121 8.40523 30.2078 8.45686C30.1747 9.77869 30.2133 11.1013 30.3236 12.419C30.3793 13.645 30.3665 14.9012 30.5295 16.1143C30.5295 16.2262 30.7182 16.1918 30.7225 16.0885C30.7825 14.7764 30.6453 13.4385 30.5681 12.1393Z" fill="#F7F8F8"/>
<path d="M31.4258 12.8233C31.4228 12.8137 31.4168 12.8053 31.4087 12.7993C31.4006 12.7933 31.3908 12.7901 31.3807 12.7901C31.3707 12.7901 31.3609 12.7933 31.3528 12.7993C31.3447 12.8053 31.3387 12.8137 31.3357 12.8233C31.2221 14.5908 31.2135 16.3635 31.31 18.1319C31.3073 18.1427 31.3071 18.154 31.3094 18.1648C31.3117 18.1757 31.3165 18.1859 31.3233 18.1946C31.3301 18.2034 31.3388 18.2104 31.3488 18.2153C31.3587 18.2202 31.3697 18.2227 31.3807 18.2227C31.3918 18.2227 31.4027 18.2202 31.4127 18.2153C31.4226 18.2104 31.4314 18.2034 31.4382 18.1946C31.445 18.1859 31.4497 18.1757 31.4521 18.1648C31.4544 18.154 31.4542 18.1427 31.4515 18.1319C31.548 16.3635 31.5394 14.5908 31.4258 12.8233Z" fill="#F7F8F8"/>
<path d="M18.7769 29.73C18.7835 29.395 18.8266 29.0618 18.9056 28.7363C18.8627 29.0718 18.8198 29.4074 18.7769 29.73Z" fill="#291B30"/>
<path d="M23.4436 25.2518C22.8646 21.7629 18.0821 21.5995 18.0821 21.5995C17.7861 20.1626 19.7163 19.7324 19.7163 19.7324L20.8443 18.7559C21.2966 18.7491 21.7483 18.7924 22.1911 18.8849C22.4705 19.3321 22.6911 19.8136 22.8474 20.3175C23.1868 21.9421 23.3863 23.5929 23.4436 25.2518Z" fill="#291B30"/>
<path d="M22.9159 20.6916C19.0556 22.5113 14.8607 20.8421 14.8607 20.8421C15.1652 19.9817 14.9379 15.5937 14.9164 14.7591C14.9164 14.7591 14.9164 14.729 14.9164 14.7161C14.9182 14.6846 14.9182 14.653 14.9164 14.6215C15.7271 12.7372 15.8172 9.10637 15.8215 7.8588C16.1861 7.80288 16.5678 7.77276 16.8981 7.75555C17.0267 9.14939 17.4857 12.7243 18.7639 12.5694C20.0421 12.4146 20.6511 9.23113 20.8742 7.83729C21.1094 7.87686 21.3479 7.89271 21.5862 7.88461C21.6591 7.88461 21.732 7.88461 21.8049 7.88461C21.6934 9.79038 22.7486 13.7955 22.7786 13.9074C22.7786 13.9375 22.7786 13.9719 22.7786 14.002C22.7786 14.1053 22.7486 14.2128 22.7357 14.329C22.7357 14.329 22.7357 14.3763 22.7357 14.4021C22.4655 16.8284 22.9159 20.6916 22.9159 20.6916Z" fill="url(#paint1_linear_1_1078)"/>
<defs>
<linearGradient id="paint0_linear_1_1078" x1="37.8312" y1="54.0665" x2="-12.5042" y2="49.6497" gradientUnits="userSpaceOnUse">
<stop stop-color="#92A3FD"/>
<stop offset="1" stop-color="#9DCEFF"/>
</linearGradient>
<linearGradient id="paint1_linear_1_1078" x1="22.9159" y1="21.5413" x2="12.1377" y2="21.054" gradientUnits="userSpaceOnUse">
<stop stop-color="#92A3FD"/>
<stop offset="1" stop-color="#9DCEFF"/>
</linearGradient>
</defs>
</svg>
