<svg width="50" height="35" viewBox="0 0 50 35" fill="none" xmlns="http://www.w3.org/2000/svg">
<path d="M19.0849 13.1349C19.0849 13.1349 20.111 4.85221 19.8793 1.82733C19.7605 0.275803 19.0047 -0.0752067 17.8493 0.0132833C16.694 0.101773 10.0872 3.58975 10.0872 3.58975L11.0287 5.84625L16.5232 4.12954C16.5232 4.12954 15.9634 7.35205 15.8342 7.96411C15.705 8.57616 15.4347 9.40059 15.2194 10.1395C15.1139 10.5038 14.9669 10.9757 14.9669 11.2043C14.9699 11.7441 19.0849 13.1349 19.0849 13.1349Z" fill="#FFEDE5"/>
<path d="M16.5231 4.12952C17.2894 3.98204 18.0542 3.53221 18.2947 3.17383C18.1712 3.57681 17.8984 3.91832 17.5314 4.12952C17.1821 4.3532 16.8122 4.54333 16.4266 4.69733L16.5231 4.12952Z" fill="#F28F8F"/>
<path d="M29.4859 12.9873C29.3715 12.5655 28.6261 12.1216 26.4045 11.7514C24.1829 11.3812 22.1618 11.7514 22.1499 12.0125C22.138 12.2735 22.6979 14.0182 25.2595 14.3368C27.8212 14.6554 29.7205 13.9135 29.4859 12.9873Z" fill="#263238"/>
<path d="M22.8033 16.5725C22.8033 16.5725 21.3554 7.24568 21.5633 5.34167C21.7786 3.37424 22.53 2.46132 23.7908 2.33301C25.4377 3.2828 26.3153 5.55257 27.3682 7.78989C28.4211 10.0272 29.5616 14.8263 29.6225 17.1197C29.6834 19.4131 27.8568 21.0472 25.7882 21.3451C23.7195 21.643 22.8033 16.5725 22.8033 16.5725Z" fill="#FFEDE5"/>
<path d="M25.0783 9.27084C24.4102 8.73742 23.9587 7.98211 23.8071 7.14414L25.8787 6.42737L27.2761 7.58216L27.3177 7.67213C27.3355 7.71047 27.3533 7.74882 27.3726 7.78716C27.4127 7.8727 27.4528 7.96267 27.4929 8.05411C27.5033 8.08065 27.5152 8.1072 27.5271 8.13522C27.5583 8.20602 27.588 8.28271 27.6192 8.35645L27.6503 8.43314C27.6919 8.5349 27.732 8.63962 27.7736 8.74728C27.8137 8.85494 27.8538 8.96555 27.8939 9.07764C27.9028 9.10271 27.9117 9.12631 27.9191 9.14991L28.0261 9.45962C28.0261 9.47437 28.0365 9.49059 28.0424 9.50534C28.1256 9.75606 28.2087 10.0156 28.2889 10.2811L28.3023 10.3239C28.3424 10.4551 28.381 10.5879 28.4196 10.7221C28.4196 10.7221 26.495 10.4478 25.0783 9.27084Z" fill="#F28F8F"/>
<path d="M23.3543 2.41273C24.1413 2.10449 25.0992 2.82568 25.6056 3.15014C26.6347 3.80497 32.9267 8.67487 34.3939 9.81639C34.7117 10.0081 35.0354 10.1925 35.3651 10.3665L33.6365 13.0507C33.4946 12.6649 33.2725 12.3132 32.9846 12.0183C31.4164 10.9063 28.3811 10.3001 26.4268 9.54502C24.9061 8.95508 24.5883 8.62472 24.076 7.76194C23.684 7.0791 22.2687 2.92302 23.3543 2.41273Z" fill="#FFEDE5"/>
<path d="M22.7721 16.6244L22.1499 12.0126C22.1499 12.0126 22.7083 13.2839 25.5833 13.6187C28.4582 13.9535 29.5586 13.4712 29.4859 12.9874C29.4859 12.9874 30.2373 15.8752 29.9462 17.7511C29.6552 19.6271 26.7698 21.6255 26.7698 21.6255L22.7721 16.6244Z" fill="#37474F"/>
<path opacity="0.15" d="M24.0449 17.2554C23.7805 17.2554 23.5325 17.2716 23.3024 17.2864L26.4981 21.2788H27.2406C28.0693 20.6254 29.731 19.1565 29.9478 17.7554C30.1617 16.3794 29.8142 14.4621 29.6137 13.5359C29.728 14.6007 27.3297 17.1861 24.0449 17.2554Z" fill="black"/>
<path d="M38.4376 6.46417C37.3981 6.27244 36.9154 7.01723 36.5323 7.63223C36.1492 8.24724 35.5076 9.37549 35.221 9.56574C34.9344 9.75599 34.7755 9.56574 34.3672 9.87103C33.9588 10.1763 33.6603 10.7559 33.7865 10.9668L34.0835 11.4801C33.9123 11.4614 33.739 11.4831 33.5778 11.5433C33.4165 11.6035 33.2718 11.7006 33.1554 11.8267C32.7099 12.2691 32.9415 12.3429 33.1925 12.5936C33.4435 12.8443 34.033 13.977 34.6241 14.2852C34.6241 14.2852 36.216 13.8118 37.3698 12.0184C38.5237 10.225 38.4376 6.46417 38.4376 6.46417Z" fill="url(#paint0_linear_1_1141)"/>
<path d="M34.9523 14.5227C34.8914 14.512 34.8334 14.4887 34.782 14.4545C34.7307 14.4203 34.687 14.3758 34.6539 14.3239C34.6208 14.272 34.599 14.2139 34.5897 14.1531C34.5805 14.0924 34.5841 14.0304 34.6003 13.9711C34.7762 13.4181 35.0405 12.8967 35.3829 12.427C35.7824 11.8636 36.5308 10.8047 36.6571 10.2251C36.7833 9.64544 37.0551 8.02165 37.4991 7.34175C37.9431 6.66185 38.399 6.26955 38.9841 6.4893C39.5692 6.70905 37.7218 11.0613 37.1798 11.7987C36.6378 12.5361 34.9523 14.5227 34.9523 14.5227Z" fill="#37474F"/>
<path d="M35.2937 14.4282C36.7564 13.6539 37.2376 12.9018 37.6697 11.921C38.1019 10.9402 39.1117 10.0362 39.373 9.15569C39.6344 8.27521 39.6611 6.01724 38.6558 6.5644C37.6504 7.11157 37.441 9.13061 37 10.2972C36.5589 11.4638 33.8592 15.1907 35.2937 14.4282Z" fill="#263238"/>
<path d="M26.5025 16.813C27.1707 16.7113 28.4553 16.9856 29.621 18.602C30.8729 20.3379 31.106 23.3672 30.3204 23.6164C30.3204 23.6164 28.4998 23.4041 27.2494 22.7537C25.999 22.1033 23.8977 17.7097 26.5025 16.813Z" fill="#263238"/>
<path d="M47.857 31.2664C45.9176 30.5098 44.3301 29.209 42.9564 27.7548C41.8516 26.2653 37.1173 19.8866 36.2961 18.9884C35.9991 18.6699 35.2952 17.8499 34.3196 17.6449C30.8654 16.9074 24.4695 17.0166 24.4695 17.0166L22.0103 16.6051L17.1097 21.1859C17.7854 21.9012 18.6334 22.5251 19.8734 23.1666C21.1133 23.8082 22.4543 24.2742 24.2631 24.1223C27.8835 23.8185 30.0546 22.8023 31.9926 22.3525C32.5539 22.2227 33.136 22.1033 33.5771 23.0177C34.0181 23.9321 34.0538 24.3907 35.3591 25.3627C37.0327 26.6104 39.7963 28.0056 41.0021 29.4922C41.2008 29.8566 41.3192 30.2588 41.3496 30.6721C41.464 32.2398 42.7886 31.9316 43.8563 32.6129C44.4385 32.9846 44.8706 33.4359 45.5715 33.5893C46.2097 33.7197 46.8691 33.7076 47.5021 33.5539C48.0723 33.4197 48.8891 33.0111 49.1697 32.4596C49.538 31.7251 48.4153 31.4832 47.857 31.2664Z" fill="#FFEDE5"/>
<path d="M47.857 31.2664C45.9176 30.5098 44.3301 29.209 42.9564 27.7548C41.8516 26.2653 37.1173 19.8866 36.2961 18.9884C35.9991 18.6699 35.2952 17.8499 34.3196 17.6449C30.8654 16.9074 24.4695 17.0166 24.4695 17.0166L22.0103 16.6051L17.1097 21.1859C17.7854 21.9012 18.6334 22.5251 19.8734 23.1666C21.1133 23.8082 22.4543 24.2742 24.2631 24.1223C27.8835 23.8185 30.0546 22.8023 31.9926 22.3525C32.5539 22.2227 33.136 22.1033 33.5771 23.0177C34.0181 23.9321 34.0538 24.3907 35.3591 25.3627C37.0327 26.6104 39.7963 28.0056 41.0021 29.4922C41.2008 29.8566 41.3192 30.2588 41.3496 30.6721C41.464 32.2398 42.7886 31.9316 43.8563 32.6129C44.4385 32.9846 44.8706 33.4359 45.5715 33.5893C46.2097 33.7197 46.8691 33.7076 47.5021 33.5539C48.0723 33.4197 48.8891 33.0111 49.1697 32.4596C49.538 31.7251 48.4153 31.4832 47.857 31.2664Z" fill="#FFEDE5"/>
<path d="M35.2478 24.6194C34.8801 24.2146 34.601 23.7386 34.4281 23.2212C34.2952 22.7888 34.1242 22.3688 33.9172 21.9661C33.3143 20.9338 29.3137 22.2508 27.542 22.7906C27.4425 22.9381 27.0267 23.3805 26.8782 23.7492C29.0241 23.3141 30.5685 22.6814 31.9897 22.3511C32.551 22.2213 33.1331 22.1018 33.5742 23.0162C34.0152 23.9306 34.0509 24.3893 35.3562 25.3612C36.0363 25.8686 36.8961 26.3936 37.7589 26.9526C36.7952 26.2092 36.069 25.4645 35.2478 24.6194Z" fill="#F28F8F"/>
<path d="M22.3905 16.6051C22.3905 16.6051 25.9055 16.7762 26.5025 16.819C26.5025 16.819 25.1794 17.1729 26.7891 20.4043C28.3989 23.6356 30.322 23.6179 30.322 23.6179C27.7974 24.4202 26.4862 25.3214 23.2681 24.9453C19.4323 24.3952 17.1068 21.5428 17.1068 21.5428L22.3905 16.6051Z" fill="#455A64"/>
<path opacity="0.15" d="M30.313 23.6179C30.2839 23.6198 30.2546 23.6198 30.2254 23.6179C29.9388 23.5855 29.0864 23.3996 28.1316 22.3894C27.3736 22.5902 26.6045 22.7473 25.8283 22.8599C22.9593 23.2772 20.8075 22.7743 17.6013 21.0768L17.1068 21.5399C18.3792 22.9649 20.0114 24.027 21.8351 24.6164C21.9465 24.6503 22.0608 24.6842 22.1767 24.7152C22.2851 24.7432 22.3949 24.7712 22.5048 24.7963L22.5345 24.8037C22.6355 24.8273 22.7395 24.8479 22.8434 24.8686L22.8984 24.8789C23.0201 24.9025 23.1419 24.9231 23.2667 24.9408C23.4686 24.9644 23.6617 24.9821 23.8488 24.9969C24.0359 25.0116 24.2156 25.019 24.3908 25.0249H24.6477C24.7324 25.0249 24.8155 25.0249 24.8972 25.0249C25.1422 25.0249 25.3754 25.0057 25.5996 24.9836C25.7481 24.9689 25.8936 24.9512 26.0362 24.9305C26.3795 24.8789 26.7197 24.808 27.0549 24.7181C27.1856 24.6828 27.3148 24.6459 27.4425 24.6061C27.7648 24.5087 28.0826 24.3996 28.4093 24.2816L28.8058 24.1341C29.275 23.963 29.768 23.7831 30.3205 23.6076L30.313 23.6179Z" fill="black"/>
<path d="M10.6366 12.2057C9.20798 12.6983 7.8581 13.5596 9.00305 16.0801C10.6366 19.72 18.0409 23.7611 21.8425 24.6194C19.912 21.7184 21.5188 18.6434 22.7795 16.6243L22.4395 14.1584C22.4395 14.1584 21.299 13.6142 19.41 12.1644C17.5211 10.7147 16.737 10.3209 13.9259 11.1704C11.9939 11.7544 10.6366 12.2057 10.6366 12.2057Z" fill="url(#paint1_linear_1_1141)"/>
<path opacity="0.05" d="M16.4237 20.4323C12.536 18.22 11.3138 16.2496 9.78867 14.3574L8.79074 15.5668C8.81747 15.645 8.84717 15.7246 8.87984 15.8072C8.87928 15.8116 8.87928 15.816 8.87984 15.8205C8.91251 15.9045 8.94964 15.9915 8.98973 16.08C9.71442 17.6728 11.5336 19.3424 13.672 20.7951C13.969 21.0015 14.2898 21.2036 14.6046 21.3997C14.7635 21.4986 14.9224 21.5959 15.0828 21.6947C16.1703 22.3414 17.296 22.9225 18.4537 23.435C19.54 23.933 20.6711 24.3281 21.8321 24.6149C21.4093 23.9907 21.1267 23.2835 21.0035 22.5413C19.6521 22.1372 18.2028 21.4455 16.4237 20.4323Z" fill="black"/>
<path d="M9.5644 12.6996C9.5644 12.6996 4.76928 10.1541 4.01044 9.81044L8.20709 7.3637L7.31608 5.06738C7.31608 5.06738 1.07902 7.26931 -0.108991 7.90201C-0.731212 8.2368 -1 8.51259 -1 8.98749C-1 9.77947 -0.241157 10.806 0.810233 11.6953C3.04518 13.5875 6.07758 15.3499 9.03128 16.9604C9.70844 17.4589 10.4123 18.0857 10.4123 18.0857C11.189 18.4721 12.3191 14.906 9.5644 12.6996Z" fill="#FFEDE5"/>
<path d="M14.0536 3.8523C13.7541 3.16172 13.1906 2.6176 12.4871 2.33963C11.7837 2.06167 10.9978 2.07262 10.3025 2.37009C9.60712 2.66756 9.05924 3.22718 8.77935 3.92583C8.49947 4.62448 8.5105 5.40494 8.81002 6.09552C8.82933 6.14271 8.85309 6.18548 8.87536 6.22973L8.15067 7.796L7.07998 5.83595C7.08042 5.68156 7.02306 5.53252 6.91906 5.41777C6.81505 5.30303 6.67181 5.23078 6.51716 5.21504C6.43873 5.2084 6.35976 5.21766 6.28505 5.24226C6.21034 5.26687 6.14145 5.3063 6.08255 5.35817C6.02366 5.41003 5.97601 5.47325 5.94248 5.54397C5.90895 5.6147 5.89025 5.69146 5.88751 5.76958L6.70576 5.84037C6.5262 5.95865 6.38856 6.12991 6.31223 6.33002C6.11769 6.83441 6.79486 7.86237 7.7022 8.76497C7.7022 8.76497 8.98674 10.5657 9.29859 10.8179C9.49953 10.9698 9.75142 11.0395 10.0025 11.0126L10.0797 7.47301C10.6013 7.75258 11.1976 7.86387 11.7858 7.7914C12.374 7.71894 12.9248 7.46633 13.3618 7.06866C13.7988 6.67099 14.1002 6.14803 14.2242 5.57241C14.3482 4.9968 14.2886 4.39713 14.0536 3.85672V3.8523Z" fill="#263238"/>
<path d="M8.78175 8.40627C8.66295 8.56998 8.3006 8.36203 8.01399 8.24109C7.72739 8.12016 6.95963 8.11573 6.92993 8.92836C6.90023 9.741 7.90559 10.4032 8.48326 10.3427C9.47822 10.241 9.37427 9.62596 9.37427 9.62596L10.8355 12.8396C12.527 13.7599 15.6752 12.3116 13.7862 11.4017L13.369 10.4474C13.73 10.3511 14.0788 10.214 14.4085 10.0389C15.0025 9.66431 15.197 8.98588 15.0916 8.20865C14.9238 6.96241 14.6461 6.01262 13.4373 3.93163C12.1008 1.65744 9.27923 2.83436 8.17735 4.4316C7.07547 6.02884 8.78175 8.40627 8.78175 8.40627Z" fill="#FFEDE5"/>
<path d="M8.89908 8.67932C8.81889 8.71619 8.2917 8.34158 8.00807 8.24572C7.62345 8.11446 6.99826 5.69721 6.99826 5.69721C6.99826 5.69721 6.48741 5.24739 6.76808 4.43623C6.99826 3.77108 7.84769 3.32568 8.43575 3.03071C9.49605 2.4983 10.6826 1.89214 11.2023 0.777167C11.2439 0.688678 11.3033 0.588389 11.4013 0.586914C11.4318 0.589611 11.4614 0.598303 11.4884 0.612483C11.5154 0.626664 11.5393 0.646048 11.5587 0.669505C11.8036 0.942467 11.9416 1.29362 11.9478 1.65912C11.9478 1.69304 11.9582 1.73581 11.9924 1.74613C12.0265 1.75646 12.0518 1.72843 12.0726 1.70336C12.1804 1.57221 12.2625 1.42213 12.3146 1.26091C12.3859 1.04116 12.7601 1.60012 12.7868 1.67682C12.8744 1.91945 12.9121 2.17703 12.8979 2.43438C12.8836 2.69174 12.8176 2.94364 12.7037 3.17525C12.472 3.63687 11.9953 3.92299 11.5587 4.17518C10.5861 4.73857 8.92284 5.27541 8.69117 5.33883C8.37635 5.42584 8.43724 5.73998 8.61544 6.59096C8.77879 7.34312 9.16786 8.55396 8.89908 8.67932Z" fill="#263238"/>
<path d="M13.369 10.4475C13.369 10.4475 11.6315 10.8118 11.0138 10.766C10.6514 10.7399 10.3055 10.6052 10.0218 10.3796C10.2234 10.6396 10.476 10.8564 10.7643 11.0168C11.3345 11.3265 13.5324 10.8324 13.5324 10.8324L13.369 10.4475Z" fill="#F28F8F"/>
<path d="M10.6544 5.95669L10.1376 6.51713C10.0632 6.44522 10.0196 6.34752 10.016 6.24445C10.0124 6.14138 10.0491 6.04092 10.1183 5.96407C10.1527 5.92804 10.194 5.89921 10.2397 5.87929C10.2855 5.85936 10.3348 5.84875 10.3848 5.84806C10.4347 5.84737 10.4843 5.85663 10.5307 5.87529C10.577 5.89394 10.619 5.92162 10.6544 5.95669Z" fill="#263238"/>
<path d="M12.3191 8.81945L13.0839 8.78406C13.0886 8.83402 13.0831 8.88441 13.0677 8.9322C13.0523 8.98 13.0273 9.02422 12.9943 9.06222C12.9613 9.10022 12.921 9.13122 12.8756 9.15337C12.8303 9.17551 12.7809 9.18835 12.7305 9.19111C12.6268 9.19401 12.5261 9.15691 12.4494 9.08762C12.3727 9.01832 12.326 8.92221 12.3191 8.81945Z" fill="#F28F8F"/>
<path d="M13.7998 5.06756L13.0573 4.87878C13.0673 4.82967 13.0874 4.78311 13.1161 4.74191C13.1449 4.70072 13.1818 4.66575 13.2245 4.63914C13.2673 4.61252 13.3151 4.59481 13.3649 4.58708C13.4148 4.57934 13.4657 4.58174 13.5146 4.59414C13.6139 4.62218 13.6987 4.68677 13.7517 4.77474C13.8046 4.8627 13.8218 4.96743 13.7998 5.06756Z" fill="#263238"/>
<path d="M12.2151 6.22205L12.7215 8.03167L13.6125 7.49483L12.2151 6.22205Z" fill="#F28F8F"/>
<path d="M10.8058 7.03338C10.8061 7.09865 10.8259 7.16238 10.8626 7.21651C10.8993 7.27065 10.9514 7.31276 11.0122 7.33754C11.073 7.36232 11.1398 7.36865 11.2043 7.35573C11.2687 7.34282 11.3278 7.31124 11.3742 7.26498C11.4206 7.21872 11.4521 7.15985 11.4648 7.09581C11.4775 7.03177 11.4709 6.96542 11.4456 6.90514C11.4204 6.84486 11.3778 6.79335 11.3231 6.75711C11.2684 6.72088 11.2042 6.70154 11.1385 6.70154C11.0947 6.70154 11.0513 6.71013 11.0108 6.72683C10.9704 6.74352 10.9336 6.76799 10.9027 6.79882C10.8718 6.82965 10.8473 6.86625 10.8307 6.9065C10.8141 6.94675 10.8056 6.98987 10.8058 7.03338Z" fill="#263238"/>
<path d="M13.213 6.09677C13.2128 6.16019 13.2314 6.22227 13.2667 6.27512C13.302 6.32798 13.3523 6.36923 13.4113 6.39363C13.4702 6.41804 13.5351 6.4245 13.5978 6.4122C13.6604 6.3999 13.718 6.36939 13.7632 6.32454C13.8083 6.27969 13.839 6.22253 13.8514 6.16031C13.8638 6.09809 13.8573 6.03362 13.8327 5.97508C13.8082 5.91654 13.7666 5.86658 13.7134 5.83152C13.6602 5.79647 13.5977 5.77791 13.5338 5.7782C13.4489 5.77859 13.3675 5.81228 13.3074 5.87194C13.2474 5.93159 13.2134 6.0124 13.213 6.09677Z" fill="#263238"/>
<path d="M41.1566 31.001C41.0304 31.0865 41.2264 31.6263 41.3408 31.759C41.579 31.989 41.8732 32.1536 42.1946 32.2369C42.7793 32.4147 43.3256 32.6988 43.8059 33.0746C44.3982 33.5509 45.0871 33.8945 45.8255 34.0819C46.7017 34.2751 47.7145 34.0288 48.598 33.5082C49.5247 32.964 49.4386 32.4419 49.3123 32.0938L41.1566 31.001Z" fill="#37474F"/>
<path d="M43.1613 27.9716C43.4583 28.2842 45.074 29.8711 46.314 30.2752C47.3016 30.5968 48.5861 30.9035 49.1489 31.5008C49.734 32.1232 48.8623 32.9196 47.6639 33.3768C46.4135 33.8517 45.5641 33.4683 44.734 33.0538C44.1504 32.7589 43.2905 32.1689 42.8584 31.9315C42.4262 31.694 41.6258 31.5643 41.2917 31.2118C41.1076 31.0171 40.9754 30.4744 40.8952 29.998C40.8224 29.5555 40.5284 29.1558 40.6784 29.1323L40.9219 29.3962C42.0505 29.6027 43.2267 28.5674 43.1613 27.9716Z" fill="url(#paint2_linear_1_1141)"/>
<path d="M4.01048 9.81055C3.29882 10.1924 2.53028 10.4587 1.73395 10.5996C1.73395 10.5996 2.99473 10.9137 4.49459 10.0509L4.01048 9.81055Z" fill="#F28F8F"/>
<defs>
<linearGradient id="paint0_linear_1_1141" x1="38.439" y1="14.2852" x2="31.0392" y2="13.8815" gradientUnits="userSpaceOnUse">
<stop stop-color="#92A3FD"/>
<stop offset="1" stop-color="#9DCEFF"/>
</linearGradient>
<linearGradient id="paint1_linear_1_1141" x1="22.7795" y1="24.6194" x2="3.85088" y2="23.1216" gradientUnits="userSpaceOnUse">
<stop stop-color="#92A3FD"/>
<stop offset="1" stop-color="#9DCEFF"/>
</linearGradient>
<linearGradient id="paint2_linear_1_1141" x1="49.3356" y1="33.5963" x2="37.8366" y2="32.2201" gradientUnits="userSpaceOnUse">
<stop stop-color="#92A3FD"/>
<stop offset="1" stop-color="#9DCEFF"/>
</linearGradient>
</defs>
</svg>
