<svg width="26" height="76" viewBox="0 0 26 76" fill="none" xmlns="http://www.w3.org/2000/svg">
<g clip-path="url(#clip0_21_999)">
<path d="M22 18.41H3.85C2.82892 18.41 1.84965 18.8156 1.12764 19.5376C0.405624 20.2596 0 21.2389 0 22.26L0 71.26C-1.49446e-06 71.8386 0.114138 72.4116 0.335884 72.9461C0.55763 73.4806 0.882626 73.9661 1.29226 74.3748C1.7019 74.7835 2.18813 75.1074 2.72312 75.3279C3.25811 75.5484 3.83134 75.6613 4.41 75.66H21.41C22.577 75.66 23.6961 75.1964 24.5213 74.3712C25.3464 73.5461 25.81 72.4269 25.81 71.26V22.26C25.8127 21.245 25.4134 20.2702 24.6994 19.5488C23.9855 18.8273 23.015 18.4179 22 18.41V18.41Z" fill="#4292A6"/>
<path d="M22 13.18H3.53998V18.41H22V13.18Z" fill="#333333"/>
<path d="M15.93 6.87H9.61999C8.62277 6.87 7.6664 7.26614 6.96126 7.97127C6.25613 8.67641 5.85999 9.63278 5.85999 10.63V13.18H19.69V10.63C19.69 9.63278 19.2938 8.67641 18.5887 7.97127C17.8836 7.26614 16.9272 6.87 15.93 6.87V6.87Z" fill="#474747"/>
<path d="M12.79 -9.6982e-06C12.5554 -0.00132766 12.3229 0.0437406 12.1058 0.132604C11.8886 0.221467 11.6912 0.352372 11.5249 0.517791C11.3585 0.683211 11.2265 0.879882 11.1364 1.0965C11.0464 1.31311 11 1.54539 11 1.77999V6.86999H14.59V1.77999C14.59 1.54454 14.5433 1.31144 14.4526 1.09416C14.3619 0.876889 14.229 0.679768 14.0616 0.514216C13.8942 0.348664 13.6956 0.217969 13.4773 0.129701C13.259 0.0414328 13.0254 -0.00265515 12.79 -9.6982e-06V-9.6982e-06Z" fill="#474747"/>
<path d="M14.57 5.22998H10.98V6.86998H14.57V5.22998Z" fill="#2E2E2E"/>
<path d="M21.05 71.76C20.8456 71.7613 20.643 71.7222 20.4538 71.6449C20.2645 71.5676 20.0925 71.4536 19.9475 71.3095C19.8025 71.1655 19.6874 70.9942 19.6089 70.8054C19.5304 70.6167 19.49 70.4144 19.49 70.21V47.79C19.4728 47.5753 19.5002 47.3593 19.5705 47.1558C19.6408 46.9522 19.7525 46.7654 19.8986 46.6071C20.0447 46.4488 20.222 46.3225 20.4193 46.2361C20.6166 46.1498 20.8296 46.1052 21.045 46.1052C21.2604 46.1052 21.4734 46.1498 21.6707 46.2361C21.868 46.3225 22.0453 46.4488 22.1913 46.6071C22.3374 46.7654 22.4491 46.9522 22.5195 47.1558C22.5898 47.3593 22.6172 47.5753 22.6 47.79V70.21C22.6013 70.4139 22.5621 70.616 22.4847 70.8047C22.4073 70.9933 22.2932 71.1647 22.149 71.3089C22.0048 71.4531 21.8334 71.5673 21.6447 71.6447C21.4561 71.7221 21.2539 71.7613 21.05 71.76V71.76Z" fill="white"/>
<path d="M25.85 27.05H0V41.47H25.85V27.05Z" fill="#163138"/>
<path d="M12.6 29.21H7.32001C4.69665 29.21 2.57001 31.3366 2.57001 33.96V34.05C2.57001 36.6733 4.69665 38.8 7.32001 38.8H12.6C15.2234 38.8 17.35 36.6733 17.35 34.05V33.96C17.35 31.3366 15.2234 29.21 12.6 29.21Z" fill="#295C69"/>
<path d="M5.00002 14.13C4.75602 14.13 4.52201 14.2269 4.34948 14.3995C4.17695 14.572 4.08002 14.806 4.08002 15.05V18.41H5.93002V15.05C5.93002 14.9283 5.9059 14.8079 5.85904 14.6956C5.81218 14.5833 5.74352 14.4815 5.65703 14.3959C5.57054 14.3103 5.46793 14.2428 5.35516 14.1971C5.24238 14.1515 5.12167 14.1287 5.00002 14.13V14.13Z" fill="#212121"/>
<path d="M8.12001 14.13C7.87601 14.13 7.64201 14.2269 7.46947 14.3995C7.29694 14.572 7.20001 14.806 7.20001 15.05V18.41H9.00001V15.05C9.00024 14.8128 8.90882 14.5846 8.74484 14.4132C8.58087 14.2418 8.35701 14.1403 8.12001 14.13Z" fill="#212121"/>
<path d="M11.23 14.13C10.986 14.13 10.752 14.2269 10.5795 14.3994C10.4069 14.572 10.31 14.806 10.31 15.05V18.41H12.17V15.05C12.17 14.9275 12.1456 14.8062 12.0981 14.6932C12.0506 14.5803 11.9811 14.478 11.8935 14.3923C11.8059 14.3066 11.7021 14.2392 11.5882 14.1942C11.4743 14.1491 11.3525 14.1273 11.23 14.13V14.13Z" fill="#212121"/>
<path d="M14.34 14.13C14.096 14.13 13.862 14.2269 13.6894 14.3994C13.5169 14.572 13.42 14.806 13.42 15.05V18.41H15.28V15.05C15.28 14.9275 15.2556 14.8062 15.2081 14.6932C15.1606 14.5803 15.091 14.478 15.0035 14.3923C14.9159 14.3066 14.8121 14.2392 14.6982 14.1942C14.5843 14.1491 14.4625 14.1273 14.34 14.13Z" fill="#212121"/>
<path d="M17.45 14.13C17.3292 14.13 17.2096 14.1538 17.098 14.2C16.9863 14.2462 16.8849 14.314 16.7995 14.3994C16.7141 14.4849 16.6463 14.5863 16.6001 14.6979C16.5538 14.8095 16.53 14.9292 16.53 15.05V18.41H18.39V15.05C18.3901 14.9275 18.3656 14.8062 18.3181 14.6932C18.2707 14.5803 18.2011 14.478 18.1135 14.3923C18.026 14.3066 17.9222 14.2392 17.8082 14.1942C17.6943 14.1491 17.5725 14.1273 17.45 14.13V14.13Z" fill="#212121"/>
<path d="M20.56 14.13C20.4392 14.13 20.3196 14.1538 20.2079 14.2C20.0963 14.2463 19.9949 14.314 19.9095 14.3995C19.824 14.4849 19.7563 14.5863 19.71 14.6979C19.6638 14.8095 19.64 14.9292 19.64 15.05V18.41H21.49V15.05C21.49 14.9283 21.4659 14.8079 21.419 14.6956C21.3722 14.5833 21.3035 14.4815 21.217 14.3959C21.1305 14.3103 21.0279 14.2428 20.9152 14.1971C20.8024 14.1515 20.6817 14.1287 20.56 14.13Z" fill="#212121"/>
</g>
<defs>
<clipPath id="clip0_21_999">
<rect width="25.85" height="75.67" fill="white"/>
</clipPath>
</defs>
</svg>
