<svg width="316" height="415" viewBox="0 0 316 415" fill="none" xmlns="http://www.w3.org/2000/svg">
<circle opacity="0.3" cx="156" cy="204" r="144" fill="white"/>
<path d="M149.226 402.537C143.068 402.548 136.927 401.898 130.908 400.598C120.388 398.441 110.479 393.983 101.893 387.544C93.3079 381.106 86.2604 372.847 81.2585 363.363C77.2895 354.493 74.341 345.202 72.4696 335.668L72.0379 333.852C65.8702 307.634 58.099 279.908 43.7592 254.859C41.4463 250.828 38.9176 246.797 36.4813 242.919C30.5874 234.14 25.5971 224.789 21.5864 215.008C15.4188 198.237 16.5598 181.559 24.9787 170.573C26.0876 168.866 27.5306 167.4 29.221 166.263C30.9114 165.126 32.8145 164.342 34.8161 163.957C36.0357 163.809 37.2727 163.914 38.4503 164.263C39.6279 164.613 40.7211 165.199 41.6622 165.988C42.3962 166.572 42.9983 167.304 43.4287 168.137C43.8592 168.969 44.1084 169.883 44.1601 170.819H42.1556C42.1073 170.166 41.9234 169.531 41.6154 168.954C41.3074 168.376 40.8823 167.869 40.367 167.465C39.6348 166.858 38.7882 166.404 37.8772 166.129C36.9662 165.854 36.0092 165.764 35.0628 165.864C31.5885 166.655 28.552 168.748 26.5822 171.711C18.5951 182.205 17.3308 198.114 23.4984 214.239C27.4751 223.95 32.4349 233.229 38.3008 241.934C40.737 245.843 43.2658 249.874 45.6095 253.936C59.9801 279.169 67.8439 307.049 74.0115 333.422L74.4433 335.237C76.2755 344.613 79.1724 353.75 83.078 362.471C87.9387 371.687 94.7893 379.711 103.135 385.964C111.482 392.217 121.115 396.543 131.34 398.629C152.016 402.718 173.468 399.816 192.307 390.382C199.85 387.027 206.661 382.228 212.352 376.257C218.142 369.264 222.604 361.276 225.52 352.685C230.67 339.207 234.772 324.99 238.472 311.296C244.177 290.863 250.067 269.722 260.059 250.582C263.143 244.981 266.227 239.473 269.495 234.149C275.616 224.594 280.781 214.463 284.915 203.899C288.461 193.868 288.615 185.436 285.408 179.281C284.282 177.229 282.718 175.448 280.826 174.066C278.934 172.683 276.761 171.732 274.46 171.28C272.854 170.901 271.182 170.902 269.576 171.281C267.97 171.66 266.474 172.408 265.209 173.465L263.883 171.957C265.371 170.687 267.135 169.781 269.036 169.311C270.936 168.841 272.92 168.82 274.831 169.249C277.441 169.787 279.9 170.893 282.032 172.489C284.165 174.085 285.918 176.131 287.166 178.481C290.651 185.251 290.496 194.052 286.765 204.638C282.588 215.334 277.34 225.582 271.099 235.226C268.015 240.55 264.623 246.027 261.848 251.566C251.979 270.522 246.12 291.571 240.446 311.881C236.591 325.667 232.613 339.915 227.401 353.455C224.42 362.283 219.842 370.491 213.894 377.673C208.016 383.835 200.986 388.79 193.202 392.259C179.495 398.917 164.47 402.428 149.226 402.537Z" fill="#AB8DA8"/>
<path d="M171.861 44.2203C173.456 41.6947 174.369 38.8009 174.513 35.8194C174.687 34.4803 174.565 33.1195 174.155 31.8328C173.744 30.5461 173.056 29.3648 172.139 28.3724C171.368 27.6338 170.412 27.0491 169.702 26.2491C168.993 25.449 168.654 24.6181 168.068 23.8488C167.433 23.0234 166.615 22.3553 165.68 21.8964C164.744 21.4374 163.714 21.1999 162.671 21.2023C160.543 21.2023 158.292 22.1871 156.504 21.2023C155.393 20.6484 154.653 19.5406 153.42 18.9252C152.259 18.3355 150.927 18.1721 149.658 18.4636C148.549 18.8495 147.377 19.0269 146.204 18.9867C144.538 18.7405 143.397 17.2634 141.917 16.4326C141.156 16.0444 140.319 15.827 139.465 15.7956C138.611 15.7642 137.761 15.9196 136.973 16.2509C136.186 16.5823 135.481 17.0815 134.907 17.7135C134.333 18.3456 133.905 19.0952 133.653 19.9099C133.451 20.687 133.451 21.5023 133.653 22.2794C133.992 24.1565 135.287 25.6644 135.379 27.5415C135.472 29.4186 134.331 31.0496 135.379 32.7113C136.428 34.373 137.97 34.4346 138.71 36.004C139.697 38.1273 138.71 40.8968 139.604 43.174C140.067 44.6203 140.314 46.6821 141.67 47.6053C143.552 48.8977 147.653 47.8207 149.904 47.6053L158.631 46.8975C162.486 46.5282 167.235 46.8975 170.72 44.9896C171.141 44.7987 171.527 44.5386 171.861 44.2203Z" fill="#3B2645"/>
<path d="M142.257 42.8663C141.951 42.4467 141.55 42.1052 141.086 41.8698C140.622 41.6344 140.11 41.5117 139.589 41.5117C139.069 41.5117 138.556 41.6344 138.093 41.8698C137.629 42.1052 137.228 42.4467 136.922 42.8663C134.239 45.9435 138.772 52.0981 142.257 52.4673C142.46 49.2702 142.46 46.0634 142.257 42.8663Z" fill="#FFEDE5"/>
<path d="M185.585 94.4103C184.772 99.5938 183.681 104.73 182.316 109.797C182.1 110.751 181.915 111.674 181.792 112.566C181.668 113.459 181.545 114.136 181.391 115.274C181.391 115.49 181.391 115.736 181.391 115.951C181.391 116.69 181.175 117.459 181.082 118.29L177.197 154.448C153.05 161.064 127.855 154.448 127.855 154.448C127.855 154.448 127.855 153.986 127.855 153.094C127.455 149.001 126.221 135.984 124.987 121.306C124.987 121.306 124.987 121.09 124.987 120.998C125 120.772 125 120.546 124.987 120.321C124.463 114.166 123.97 107.643 123.569 101.426C122.829 90.6253 122.366 80.6549 122.459 74.4696C122.459 72.1925 127.794 72.4386 131.433 71.9463C134.116 71.577 136.86 71.3308 139.235 71.2077C141.609 71.0846 143.398 71.0231 144.601 71.0231H145.958C145.958 71.0231 146.266 67.4842 146.266 67.4535L147.099 58.7756C147.503 58.8797 147.916 58.9518 148.332 58.991C149.095 59.1337 149.869 59.216 150.645 59.2372C151.663 59.2372 152.619 59.2372 153.513 59.2372L154.839 59.0833H155.61C156.473 58.9294 157.306 58.7448 158.077 58.5294C158.848 58.314 159.095 58.2217 159.588 58.0678C161.841 57.3474 163.98 56.3113 165.941 54.9905L166.218 54.8059L166.743 54.4059L167.113 54.1289C167.113 54.5597 167.113 54.7444 167.113 54.929C166.866 56.96 166.588 59.5449 166.465 62.099C166.465 63.8838 166.28 65.6379 166.218 67.1457C166.157 68.6536 165.663 70.8385 166.743 71.6078C167.128 71.8237 167.544 71.9794 167.976 72.0694C169.669 72.3361 171.382 72.4494 173.095 72.4079C173.619 72.4079 174.144 72.4079 174.668 72.4079C175.983 72.3314 177.301 72.3314 178.615 72.4079C179.534 72.4052 180.444 72.5863 181.291 72.9404C182.139 73.2945 182.907 73.8145 183.549 74.4696C184.349 75.6242 184.856 76.9544 185.03 78.347L185.4 80.8703C185.987 85.3613 186.049 89.9051 185.585 94.4103Z" fill="#FFEDE5"/>
<path d="M166.989 53.9132C166.572 56.1154 165.671 58.1981 164.351 60.0115C163.031 61.8249 161.325 63.3239 159.355 64.4008C157.386 65.4777 155.201 66.1058 152.959 66.2398C150.717 66.3738 148.473 66.0105 146.389 65.176L146.975 58.8061C150.467 59.4783 154.064 59.3891 157.518 58.5446C160.973 57.7001 164.203 56.1202 166.989 53.9132Z" fill="#E0855C" fill-opacity="0.1"/>
<path d="M142.873 33.6345C141.085 35.4809 140.931 39.6044 140.807 44.1588C140.345 58.0065 144.508 62.3146 151.57 63.084C158.632 63.8533 166.064 61.1145 167.575 48.3131C168.346 41.8816 169.148 36.004 166.804 33.2037C163.443 29.0802 148.301 27.9724 142.873 33.6345Z" fill="#FFEDE5"/>
<path d="M166.527 46.4359C166.527 46.4359 168.685 40.7122 172.108 43.7587C175.531 46.8052 170.813 55.4523 165.571 54.8061C165.632 54.8061 164.923 48.4054 166.527 46.4359Z" fill="#FFEDE5"/>
<path d="M170.597 46.3743C169.788 46.6266 169.063 47.0948 168.5 47.7283C167.864 48.2591 167.348 48.9202 166.989 49.6669C166.989 49.8824 167.205 50.0362 167.359 49.8824C167.794 49.4529 168.206 49.0009 168.593 48.5284C168.874 48.8379 169.222 49.0798 169.611 49.2361C169.919 49.2361 170.166 48.9592 170.042 48.713C169.829 48.3871 169.544 48.1136 169.21 47.9129C169.785 47.5451 170.332 47.1335 170.844 46.682C170.854 46.645 170.855 46.6062 170.847 46.5688C170.839 46.5314 170.822 46.4964 170.798 46.4665C170.774 46.4367 170.743 46.4128 170.709 46.3968C170.674 46.3808 170.636 46.3731 170.597 46.3743Z" fill="#E0855C" fill-opacity="0.1"/>
<path d="M146.882 43.8508C146.882 43.8508 145.68 44.2816 145.865 42.1583C146.05 40.035 146.882 40.5273 146.882 40.5273C146.882 40.5273 147.715 40.5273 147.592 42.1891C147.468 43.8508 146.882 43.8508 146.882 43.8508Z" fill="#3B2645"/>
<path d="M159.002 43.8508C159.002 43.8508 157.83 44.2816 158.015 42.1583C158.2 40.035 159.002 40.5273 159.002 40.5273C159.002 40.5273 159.835 40.5273 159.711 42.1891C159.588 43.8508 159.002 43.8508 159.002 43.8508Z" fill="#3B2645"/>
<path d="M148.178 37.4196C147.694 37.1458 147.135 37.0312 146.582 37.0919C146.028 37.1527 145.508 37.3857 145.094 37.7581C145.073 37.8002 145.064 37.8469 145.066 37.8938C145.068 37.9407 145.082 37.9863 145.107 38.0263C145.131 38.0663 145.166 38.0994 145.207 38.1225C145.248 38.1455 145.294 38.1578 145.341 38.1581C145.773 38.1581 146.143 37.9119 146.575 37.8812C147.027 37.8597 147.479 37.9331 147.901 38.0966C148.302 38.2197 148.579 37.6042 148.178 37.4196Z" fill="#3B2645"/>
<path d="M160.822 38.4657C160.328 37.2348 158.2 37.1425 157.275 37.8811C157.23 37.9156 157.194 37.9599 157.169 38.0105C157.144 38.0612 157.131 38.1169 157.131 38.1734C157.131 38.2299 157.144 38.2856 157.169 38.3363C157.194 38.3869 157.23 38.4312 157.275 38.4657C157.829 38.5118 158.386 38.5118 158.941 38.4657C159.389 38.5378 159.825 38.6725 160.236 38.8658C160.289 38.9433 160.371 38.9966 160.463 39.0139C160.556 39.0312 160.651 39.0112 160.729 38.9581C160.807 38.9051 160.86 38.8234 160.878 38.731C160.895 38.6387 160.875 38.5433 160.822 38.4657Z" fill="#3B2645"/>
<path d="M149.319 53.7595C151.92 54.0998 154.564 53.6494 156.905 52.467C156.555 53.2882 156.036 54.0272 155.383 54.6366C154.73 55.2461 153.956 55.7125 153.112 56.0059C150.429 56.7445 149.319 53.7595 149.319 53.7595Z" fill="white"/>
<path d="M133.746 74.439C140.838 79.3934 141.486 89.0252 138.032 96.7184C135.688 101.857 131.34 105.458 128.781 110.32C126.113 115.035 123.016 119.496 119.529 123.644C111.881 133.338 104.603 142.108 101.797 145.431C92.1446 156.94 71.8531 172.142 64.5444 177.435C62.8791 178.666 61.8923 179.343 61.8923 179.343C61.8923 179.343 54.892 175.681 56.7423 168.911C56.7423 168.911 84.4968 139.492 88.5982 133.492C93.1308 125.692 97.2483 117.66 100.934 109.427C105.662 100.298 110.586 91.2921 115.705 82.4091C118.049 78.3163 121.04 73.1773 126.19 72.2541C128.268 72.0211 130.367 72.4636 132.173 73.5158C132.718 73.7857 133.244 74.0942 133.746 74.439Z" fill="#FFEDE5"/>
<path d="M56.7423 168.942C57.5019 168.884 58.2648 168.884 59.0244 168.942C59.0244 168.942 65.6854 172.635 64.5444 177.435C64.5444 177.435 63.8351 178.081 62.725 179.066C61.6148 180.051 60.4121 181.22 58.9627 182.697C57.5133 184.174 54.2136 188.852 52.795 188.452C52.4644 188.33 52.1755 188.117 51.9624 187.836L49.0944 184.759C47.4908 182.974 44.8079 179.959 46.8432 177.589C45.363 178.482 41.9091 180.666 40.213 179.62L39.5037 178.482C39.5037 178.482 44.592 174.696 46.689 172.819C49.518 170.453 53.0536 169.089 56.7423 168.942Z" fill="#FFEDE5"/>
<path d="M142.164 121.583C142.154 121.747 142.154 121.911 142.164 122.075C142.164 122.075 142.442 122.075 142.38 122.075L142.164 121.583Z" fill="#D6BED3"/>
<path d="M252.873 414.077C249.605 414.415 246.305 414.692 242.943 414.846L53.1338 415H52.5479H51.561L48.2305 414.692C47.4699 414.692 46.7404 414.391 46.2026 413.854C45.6647 413.317 45.3625 412.589 45.3625 411.83C45.3625 411.071 45.6647 410.343 46.2026 409.807C46.7404 409.27 47.4699 408.968 48.2305 408.968L51.5919 408.661H52.5479H53.1646L242.943 408.815C246.274 408.815 249.574 409.215 252.873 409.584C253.345 409.742 253.755 410.044 254.046 410.447C254.336 410.85 254.493 411.334 254.493 411.83C254.493 412.327 254.336 412.811 254.046 413.214C253.755 413.617 253.345 413.919 252.873 414.077Z" fill="#C6C6C6"/>
<path d="M153.605 221.317C150.768 243.996 147.438 263.722 147.438 263.722C147.9 269.199 148.116 275.138 148.116 281.231C148.116 293.171 147.314 305.849 146.297 317.02C145.002 331.268 143.213 343.392 142.442 349.485V350.254C143.583 390.659 132.05 396.013 126.653 387.181C121.256 378.35 126.653 352.316 126.653 352.316C126.67 352.08 126.67 351.844 126.653 351.608C124.382 339.518 122.868 327.298 122.12 315.02C120.269 285.293 123.446 264.953 123.076 261.26C116.63 196.637 125.635 161.003 125.635 161.003C127.041 155.825 129.579 151.022 133.067 146.939C139.636 139.862 147.53 141.647 152.495 150.294C153.017 151.18 153.491 152.095 153.914 153.032C155.937 157.999 157.085 163.277 157.306 168.634C157.799 182.02 155.918 202.669 153.605 221.317Z" fill="#F5A784"/>
<path d="M185.461 313.45C184.744 325.984 183.24 338.461 180.959 350.808L180.681 352.316C180.681 352.316 186.078 378.442 180.681 387.181C175.285 395.921 163.874 390.812 164.892 350.808C164.892 350.623 164.892 350.439 164.892 350.285C164.029 344.5 162.302 331.975 160.945 317.143C159.896 305.88 159.094 293.263 159.094 281.323C159.094 275.169 159.341 269.26 159.804 263.752C159.804 263.752 156.381 244.027 153.636 221.378C151.323 202.699 149.411 182.051 150.213 168.788C150.444 163.429 151.602 158.151 153.636 153.186C154.04 152.219 154.514 151.283 155.055 150.386C160.76 140.508 170.258 139.646 177.258 150.786C179.263 154.015 180.839 157.491 181.946 161.125C181.946 161.125 190.95 196.668 184.505 261.383C184.043 265.014 187.096 284.647 185.461 313.45Z" fill="#F5A784"/>
<path d="M56.0023 188.913C56.6167 189.623 57.3798 190.189 58.2378 190.572C59.0958 190.955 60.0276 191.145 60.9673 191.129C61.3977 191.029 61.8034 190.843 62.1598 190.582C62.5161 190.321 62.8158 189.991 63.0406 189.611C63.2655 189.231 63.4108 188.81 63.4679 188.373C63.525 187.935 63.4925 187.491 63.3726 187.067C63.014 186.131 62.4318 185.296 61.6765 184.636C57.02 180.02 52.24 175.404 47.3984 171.126C46.5893 170.216 45.508 169.59 44.3146 169.342C43.2047 169.341 42.1306 169.734 41.2836 170.449C40.4365 171.165 39.8714 172.157 39.6888 173.25C39.6888 175.219 41.3849 175.958 42.7727 177.065C47.1517 180.943 51.5307 185.005 56.0023 188.913Z" fill="#3B2645"/>
<path d="M55.3232 183.467C55.5151 183.269 55.6716 183.04 55.7858 182.79C55.8639 182.472 55.8685 182.14 55.799 181.82C55.7295 181.5 55.5879 181.201 55.3849 180.943C54.2439 179.066 51.9001 176.051 49.5873 175.774C48.8237 175.735 48.0632 175.896 47.3815 176.242C46.6998 176.587 46.1206 177.105 45.7016 177.743C45.0096 178.737 44.5695 179.883 44.4191 181.083C44.2687 182.284 44.4125 183.503 44.8382 184.636C45.515 186.674 46.9055 188.4 48.7546 189.498C49.6774 189.888 50.7155 189.908 51.6522 189.552C52.5889 189.197 53.3517 188.494 53.7813 187.59C54.2439 186.452 54.0897 185.067 54.8298 184.113C54.9701 183.88 55.1356 183.664 55.3232 183.467Z" fill="#FFEDE5"/>
<path d="M173.342 74.4388C166.218 79.3932 165.571 89.025 169.055 96.7182C171.368 101.857 175.716 105.458 178.307 110.32C180.996 115.022 184.091 119.48 187.558 123.644C195.206 133.338 202.515 142.108 205.29 145.431C214.974 157.002 235.265 172.142 242.574 177.435L245.257 179.343C245.257 179.343 252.226 175.681 250.376 168.911C250.376 168.911 222.621 139.492 218.52 133.491C213.975 125.699 209.857 117.665 206.185 109.427C201.436 100.195 196.532 91.3022 191.382 82.4089C189.039 78.3161 186.078 73.1771 180.897 72.2539C178.819 72.0231 176.722 72.4654 174.915 73.5156C174.368 73.7842 173.843 74.0927 173.342 74.4388Z" fill="#FFEDE5"/>
<path d="M250.345 168.942C249.575 168.884 248.802 168.884 248.032 168.942C248.032 168.942 241.371 172.634 242.512 177.435C242.512 177.435 243.252 178.081 244.332 179.066C245.411 180.051 246.675 181.22 248.094 182.697C249.512 184.174 252.874 188.852 254.261 188.452C254.588 188.321 254.874 188.109 255.094 187.836L257.931 184.759C259.566 182.974 262.218 179.958 260.213 177.589C261.663 178.481 265.117 180.666 266.843 179.62L267.429 178.481C267.429 178.481 262.341 174.696 260.213 172.819C257.439 170.482 253.971 169.12 250.345 168.942Z" fill="#FFEDE5"/>
<path d="M251.054 188.913C250.44 189.623 249.677 190.189 248.819 190.572C247.961 190.955 247.029 191.145 246.089 191.129C245.653 191.036 245.241 190.855 244.877 190.597C244.514 190.339 244.207 190.01 243.976 189.629C243.745 189.249 243.595 188.825 243.534 188.385C243.473 187.944 243.503 187.495 243.622 187.067C244.007 186.172 244.598 185.381 245.349 184.759C250.016 180.143 254.785 175.64 259.658 171.25C260.463 170.334 261.546 169.707 262.742 169.465C263.848 169.465 264.918 169.859 265.76 170.575C266.602 171.291 267.161 172.283 267.337 173.373C267.337 175.342 265.671 176.081 264.253 177.189C259.905 180.943 255.526 185.005 251.054 188.913Z" fill="#3B2645"/>
<path d="M251.764 183.467C251.553 183.278 251.385 183.048 251.27 182.79C251.205 182.469 251.21 182.138 251.284 181.82C251.359 181.501 251.501 181.202 251.702 180.943C252.812 179.066 255.156 176.051 257.469 175.774C258.232 175.735 258.993 175.896 259.675 176.242C260.356 176.587 260.935 177.105 261.354 177.743C262.039 178.741 262.467 179.892 262.601 181.094C262.736 182.296 262.572 183.512 262.125 184.636C261.469 186.685 260.073 188.418 258.209 189.498C257.286 189.888 256.248 189.908 255.311 189.552C254.375 189.197 253.612 188.494 253.182 187.59C252.751 186.452 252.905 185.067 252.134 184.113L251.764 183.467Z" fill="#FFEDE5"/>
<path d="M185.923 293.725V296.802C185.923 298.864 185.923 300.987 185.923 303.172V305.665C185.923 308.188 185.738 310.804 185.615 313.481C177.63 315.679 169.409 316.909 161.13 317.143C160.79 313.697 160.112 304.526 160.081 303.511C160.081 301.418 159.618 295.51 159.588 294.71C159.403 290.217 159.279 285.724 159.279 281.324C159.279 275.6 159.495 269.999 159.927 264.799C159.927 264.43 159.927 264.091 159.927 263.753C159.927 263.414 156.504 244.058 153.759 221.379C153.451 223.779 153.142 226.179 152.834 228.487C150.244 247.997 147.499 263.753 147.499 263.753C147.962 269.23 148.177 275.169 148.177 281.262C148.177 285.909 148.177 290.494 147.838 295.356C147.838 296.156 147.221 306.434 147.129 307.419C146.913 310.712 146.636 313.943 146.358 317.051C142.041 316.866 137.785 316.589 133.56 316.22C130.23 315.943 126.036 315.758 121.965 315.174C121.78 312.404 121.656 309.758 121.564 307.173C121.564 306.527 121.564 305.88 121.564 305.234C121.564 302.403 121.564 299.726 121.564 297.141V295.11C121.564 276.462 123.383 264.183 123.106 261.26C116.661 196.637 125.665 161.003 125.665 161.003C127.071 155.825 129.61 151.022 133.098 146.94C135.741 147.348 138.335 148.029 140.838 148.971C144.651 149.965 148.586 150.41 152.526 150.294H155.363C158.786 150.294 162.209 149.894 165.601 149.801H167.883C171.135 149.753 174.382 150.063 177.566 150.725C179.469 153.989 180.941 157.485 181.945 161.126C184.437 172.741 185.902 184.551 186.324 196.422C187.369 218.09 186.761 239.807 184.505 261.383C184.135 264.122 185.769 275.846 185.923 293.725Z" fill="#3B2645"/>
<path d="M142.257 350.254C142.689 366.163 141.177 376.626 138.834 382.935C135.256 392.689 129.582 392.566 126.498 387.304C125.666 385.844 125.092 384.251 124.802 382.596C122.551 371.61 126.498 352.439 126.498 352.439C126.516 352.203 126.516 351.967 126.498 351.731C128.033 352.848 129.772 353.653 131.618 354.101C133.688 354.608 135.868 354.432 137.83 353.6C139.793 352.768 141.432 351.324 142.503 349.485L142.257 350.254Z" fill="#AB8DA8"/>
<path d="M182.532 381.735C182.269 383.69 181.641 385.58 180.682 387.305C177.351 392.721 171.615 392.69 168.069 382.197C165.91 376.042 164.522 365.795 164.985 350.778C167.294 352.848 170.269 354.027 173.373 354.101C176.142 353.847 178.772 352.776 180.928 351.024C180.985 351.504 180.985 351.99 180.928 352.47C180.928 352.47 184.444 370.626 182.532 381.735Z" fill="#AB8DA8"/>
<path d="M137.6 359.701C136.038 358.772 134.253 358.281 132.435 358.281C130.616 358.281 128.831 358.772 127.269 359.701C127.211 359.765 127.173 359.844 127.157 359.929C127.142 360.014 127.151 360.102 127.183 360.182C127.215 360.262 127.269 360.331 127.339 360.382C127.409 360.433 127.491 360.464 127.578 360.47C129.119 360.47 130.661 359.824 132.111 359.855C133.807 359.999 135.483 360.329 137.107 360.84C137.246 360.857 137.386 360.829 137.508 360.759C137.63 360.69 137.725 360.583 137.781 360.455C137.836 360.327 137.849 360.184 137.816 360.048C137.784 359.912 137.708 359.79 137.6 359.701Z" fill="#291B30"/>
<path d="M137.106 364.625C134.473 363.093 131.383 362.538 128.379 363.055C127.362 363.055 127.331 364.748 128.379 364.656C129.83 364.517 131.294 364.579 132.727 364.84C134.053 365.086 135.256 365.64 136.582 365.917C136.745 365.952 136.916 365.929 137.063 365.851C137.211 365.773 137.326 365.645 137.388 365.491C137.451 365.336 137.457 365.165 137.405 365.007C137.354 364.848 137.248 364.713 137.106 364.625Z" fill="#291B30"/>
<path d="M177.937 359.701C175.593 358.901 170.505 358.593 168.686 360.748C168.439 361.024 168.686 361.609 169.025 361.578C170.474 361.394 171.739 360.809 173.25 360.748C174.761 360.686 176.333 361.086 177.752 360.994C177.837 361.006 177.924 361.001 178.007 360.98C178.09 360.959 178.168 360.921 178.237 360.87C178.306 360.818 178.364 360.754 178.407 360.68C178.451 360.606 178.48 360.525 178.492 360.44C178.504 360.355 178.5 360.269 178.478 360.185C178.457 360.102 178.419 360.024 178.368 359.956C178.316 359.887 178.252 359.829 178.178 359.786C178.104 359.742 178.022 359.713 177.937 359.701Z" fill="#291B30"/>
<path d="M179.078 364.902C176.518 363.763 170.134 362.933 168.839 366.379C168.654 366.841 169.24 367.21 169.61 366.994C170.943 366.253 172.427 365.826 173.951 365.746C175.474 365.666 176.996 365.935 178.399 366.533C179.324 366.902 180.034 365.302 179.078 364.902Z" fill="#291B30"/>
<path d="M62.324 70.7768C62.324 70.5921 61.9539 70.5921 61.9231 70.7768C60.3812 81.2703 61.2755 92.3176 61.2755 103.057C61.2755 114.412 60.9054 125.86 61.5839 137.184C61.6131 137.305 61.6821 137.413 61.78 137.49C61.8779 137.567 61.9989 137.608 62.1236 137.608C62.2482 137.608 62.3692 137.567 62.4671 137.49C62.565 137.413 62.6341 137.305 62.6632 137.184C63.3108 125.86 62.9408 114.412 62.9408 103.057C62.9408 92.5638 63.8351 81.3626 62.324 70.7768Z" fill="#F7F8F8"/>
<path d="M75.8002 74.3466C75.7674 74.1955 75.6837 74.0602 75.5631 73.9631C75.4424 73.866 75.2921 73.8131 75.1372 73.8131C74.9822 73.8131 74.832 73.866 74.7113 73.9631C74.5907 74.0602 74.507 74.1955 74.4742 74.3466C74.4742 84.44 73.8266 94.7181 74.4742 104.781C74.4742 104.952 74.5424 105.117 74.6638 105.238C74.7853 105.359 74.95 105.427 75.1218 105.427C75.2935 105.427 75.4582 105.359 75.5797 105.238C75.7011 105.117 75.7694 104.952 75.7694 104.781C76.4787 94.7181 75.8619 84.44 75.8002 74.3466Z" fill="#F7F8F8"/>
<path d="M213.679 180.02C213.654 179.929 213.599 179.849 213.524 179.791C213.449 179.734 213.357 179.703 213.262 179.703C213.168 179.703 213.076 179.734 213.001 179.791C212.925 179.849 212.871 179.929 212.846 180.02C211.977 193.234 211.802 206.484 212.322 219.717C212.322 232.949 212.322 246.15 212.815 259.382C212.841 259.481 212.899 259.568 212.98 259.63C213.061 259.692 213.16 259.726 213.262 259.726C213.364 259.726 213.464 259.692 213.544 259.63C213.625 259.568 213.683 259.481 213.71 259.382C214.141 246.15 214.141 232.949 214.203 219.717C214.707 206.484 214.532 193.234 213.679 180.02Z" fill="#F7F8F8"/>
<path d="M237.455 102.627C237.358 93.8216 236.782 85.0282 235.728 76.2855C235.728 75.7623 234.895 75.9162 234.864 76.2855C234.626 85.7407 234.904 95.2019 235.697 104.627C236.098 113.397 236.005 122.383 237.177 131.061C237.177 131.861 238.534 131.615 238.565 130.876C238.997 121.49 238.01 111.92 237.455 102.627Z" fill="#F7F8F8"/>
<path d="M243.622 107.52C243.601 107.451 243.558 107.391 243.5 107.348C243.441 107.305 243.371 107.282 243.299 107.282C243.226 107.282 243.156 107.305 243.098 107.348C243.039 107.391 242.996 107.451 242.975 107.52C242.158 120.163 242.096 132.843 242.79 145.493C242.771 145.57 242.769 145.651 242.786 145.728C242.803 145.806 242.837 145.879 242.886 145.942C242.935 146.004 242.997 146.055 243.069 146.09C243.141 146.124 243.219 146.142 243.299 146.142C243.378 146.142 243.457 146.124 243.528 146.09C243.6 146.055 243.663 146.004 243.712 145.942C243.761 145.879 243.795 145.806 243.811 145.728C243.828 145.651 243.827 145.57 243.808 145.493C244.501 132.843 244.44 120.163 243.622 107.52Z" fill="#F7F8F8"/>
<path d="M152.68 228.456C152.727 226.06 153.037 223.676 153.605 221.348C153.297 223.748 152.989 226.148 152.68 228.456Z" fill="#291B30"/>
<path d="M186.232 196.422C182.069 171.465 147.685 170.296 147.685 170.296C145.557 160.017 159.434 156.94 159.434 156.94L167.544 149.955C170.796 149.907 174.044 150.216 177.228 150.878C179.236 154.077 180.822 157.521 181.946 161.125C184.386 172.746 185.82 184.555 186.232 196.422Z" fill="#291B30"/>
<path d="M182.439 163.803C154.685 176.82 124.525 164.88 124.525 164.88C126.715 158.725 125.08 127.337 124.926 121.367C124.926 121.367 124.926 121.152 124.926 121.059C124.938 120.834 124.938 120.608 124.926 120.382C130.754 106.904 131.402 80.9319 131.433 72.0078C134.054 71.6078 136.799 71.3924 139.173 71.2693C140.098 81.2396 143.398 106.812 152.588 105.704C161.778 104.596 166.157 81.8243 167.76 71.854C169.451 72.137 171.166 72.2504 172.88 72.1925C173.404 72.1925 173.928 72.1925 174.452 72.1925C173.65 85.8248 181.237 114.474 181.453 115.274C181.453 115.49 181.453 115.736 181.453 115.951C181.453 116.69 181.237 117.459 181.144 118.29C181.144 118.29 181.144 118.628 181.144 118.813C179.201 136.169 182.439 163.803 182.439 163.803Z" fill="#AB8DA8"/>
</svg>
