<svg width="315" height="150" viewBox="0 0 315 150" fill="none" xmlns="http://www.w3.org/2000/svg">
<rect width="315" height="150" rx="22" fill="url(#paint0_linear_2_3189)"/>
<mask id="mask0_2_3189" style="mask-type:alpha" maskUnits="userSpaceOnUse" x="0" y="0" width="315" height="150">
<rect width="315" height="150" rx="22" fill="white"/>
</mask>
<g mask="url(#mask0_2_3189)">
<ellipse opacity="0.3" cx="89" cy="104.5" rx="68" ry="67.5" fill="white"/>
<path d="M87.0229 197.162C84.1384 197.167 81.2616 196.863 78.4423 196.254C73.5145 195.244 68.8726 193.155 64.8509 190.139C60.8293 187.123 57.5281 183.255 55.1851 178.812C53.3258 174.657 51.9447 170.305 51.0681 165.839L50.8659 164.988C47.9767 152.707 44.3365 139.719 37.6193 127.986C36.5359 126.097 35.3514 124.209 34.2102 122.393C31.4493 118.28 29.1117 113.9 27.233 109.319C24.3439 101.463 24.8784 93.6498 28.822 88.5038C29.3415 87.7042 30.0174 87.0176 30.8092 86.4851C31.6011 85.9525 32.4925 85.585 33.4301 85.4046C34.0015 85.3357 34.5809 85.3845 35.1325 85.5482C35.6841 85.7118 36.1962 85.9868 36.637 86.356C36.9809 86.6296 37.2629 86.9727 37.4645 87.3627C37.6662 87.7527 37.7829 88.1809 37.8071 88.6191H36.8682C36.8456 88.3135 36.7594 88.0159 36.6151 87.7454C36.4709 87.4749 36.2717 87.2373 36.0303 87.0479C35.6874 86.7636 35.2908 86.5509 34.864 86.4221C34.4373 86.2934 33.989 86.2513 33.5457 86.2983C31.9183 86.6684 30.4959 87.6491 29.5732 89.0371C25.8318 93.9525 25.2395 101.405 28.1286 108.958C29.9914 113.507 32.3147 117.854 35.0625 121.932C36.2037 123.762 37.3882 125.651 38.4861 127.553C45.2177 139.373 48.9013 152.433 51.7904 164.787L51.9926 165.637C52.8508 170.029 54.2079 174.309 56.0373 178.394C58.3142 182.711 61.5232 186.47 65.4328 189.399C69.3423 192.328 73.8548 194.354 78.6445 195.331C88.3298 197.247 98.3785 195.888 107.203 191.468C110.737 189.897 113.927 187.649 116.593 184.852C119.305 181.576 121.395 177.835 122.761 173.81C125.173 167.497 127.095 160.837 128.828 154.422C131.501 144.851 134.26 134.948 138.94 125.982C140.385 123.359 141.829 120.778 143.36 118.285C146.228 113.809 148.647 109.063 150.583 104.115C152.244 99.4157 152.317 95.4661 150.814 92.5831C150.287 91.6217 149.554 90.7877 148.668 90.1401C147.782 89.4924 146.764 89.047 145.686 88.8353C144.934 88.6577 144.15 88.6578 143.398 88.8355C142.646 89.0131 141.945 89.3635 141.352 89.8587L140.731 89.1524C141.428 88.5574 142.255 88.1329 143.145 87.9126C144.035 87.6924 144.965 87.6826 145.859 87.8839C147.082 88.1358 148.234 88.654 149.233 89.4015C150.232 90.1491 151.053 91.1075 151.638 92.2083C153.27 95.3796 153.198 99.5022 151.45 104.461C149.493 109.471 147.035 114.272 144.112 118.789C142.667 121.283 141.078 123.849 139.778 126.443C135.155 135.323 132.411 145.183 129.753 154.696C127.947 161.154 126.084 167.828 123.642 174.171C122.246 178.306 120.101 182.151 117.315 185.515C114.562 188.401 111.269 190.723 107.622 192.348C101.202 195.466 94.1634 197.111 87.0229 197.162Z" fill="#AB8DA8"/>
<path d="M97.6258 29.3168C98.3727 28.1337 98.8006 26.7782 98.8681 25.3815C98.9496 24.7543 98.8923 24.1168 98.7001 23.5141C98.5079 22.9114 98.1856 22.3581 97.7558 21.8932C97.3947 21.5472 96.9468 21.2733 96.6146 20.8985C96.2824 20.5238 96.1235 20.1346 95.849 19.7742C95.5514 19.3876 95.1686 19.0746 94.7302 18.8596C94.2917 18.6446 93.8095 18.5334 93.321 18.5345C92.3243 18.5345 91.2698 18.9958 90.4319 18.5345C89.9119 18.2751 89.5652 17.7561 88.9874 17.4678C88.4436 17.1916 87.8197 17.1151 87.225 17.2516C86.7056 17.4324 86.157 17.5155 85.6071 17.4967C84.8271 17.3813 84.2926 16.6894 83.5992 16.3002C83.2428 16.1184 82.8508 16.0166 82.4508 16.0019C82.0507 15.9872 81.6523 16.06 81.2834 16.2152C80.9146 16.3704 80.5842 16.6042 80.3155 16.9003C80.0468 17.1963 79.8462 17.5475 79.7278 17.9291C79.6336 18.2931 79.6336 18.675 79.7278 19.039C79.8867 19.9183 80.4934 20.6247 80.5368 21.504C80.5801 22.3833 80.0456 23.1472 80.5368 23.9256C81.0279 24.704 81.7502 24.7329 82.0969 25.468C82.5591 26.4626 82.0969 27.76 82.5158 28.8267C82.7325 29.5042 82.8481 30.4699 83.4837 30.9024C84.3648 31.5078 86.2861 31.0033 87.3406 30.9024L91.4287 30.5708C93.2344 30.3979 95.459 30.5708 97.0913 29.6771C97.2884 29.5877 97.4691 29.4659 97.6258 29.3168Z" fill="#3B2645"/>
<path d="M83.7583 28.6825C83.6148 28.4859 83.4269 28.326 83.2097 28.2157C82.9926 28.1055 82.7524 28.048 82.5087 28.048C82.2651 28.048 82.0249 28.1055 81.8077 28.2157C81.5906 28.326 81.4026 28.4859 81.2592 28.6825C80.0025 30.124 82.1259 33.0069 83.7583 33.1799C83.8533 31.6822 83.8533 30.1801 83.7583 28.6825Z" fill="#FFEDE5"/>
<path d="M104.054 52.827C103.674 55.2551 103.162 57.661 102.523 60.0344C102.422 60.4813 102.335 60.9137 102.277 61.3317C102.22 61.7498 102.162 62.0669 102.09 62.6002C102.09 62.7011 102.09 62.8165 102.09 62.9174C102.09 63.2633 101.989 63.6237 101.945 64.0129L100.125 80.9502C88.8142 84.0494 77.0123 80.9502 77.0123 80.9502C77.0123 80.9502 77.0123 80.734 77.0123 80.316C76.8245 78.3988 76.2467 72.3014 75.6688 65.4255C75.6688 65.4255 75.6688 65.3246 75.6688 65.2814C75.6747 65.1758 75.6747 65.0699 75.6688 64.9643C75.4233 62.0813 75.1921 59.0254 75.0044 56.1136C74.6577 51.054 74.441 46.3836 74.4843 43.4863C74.4843 42.4196 76.9834 42.5349 78.688 42.3043C79.9447 42.1313 81.2304 42.016 82.3427 41.9583C83.455 41.9007 84.2928 41.8718 84.8562 41.8718H85.4918C85.4918 41.8718 85.6362 40.2141 85.6362 40.1997L86.0263 36.1348C86.2159 36.1835 86.4091 36.2173 86.6041 36.2357C86.9616 36.3025 87.3239 36.3411 87.6875 36.351C88.1642 36.351 88.612 36.351 89.0309 36.351L89.6521 36.2789H90.0132C90.4177 36.2068 90.8077 36.1203 91.1689 36.0194C91.53 35.9185 91.6456 35.8753 91.8767 35.8032C92.932 35.4658 93.934 34.9804 94.8525 34.3617L94.9825 34.2753L95.228 34.0879L95.4014 33.9581C95.4014 34.1599 95.4014 34.2464 95.4014 34.3329C95.2858 35.2843 95.1558 36.4951 95.098 37.6916C95.098 38.5276 95.0114 39.3492 94.9825 40.0556C94.9536 40.7619 94.7225 41.7853 95.228 42.1457C95.4084 42.2469 95.6033 42.3198 95.8059 42.3619C96.5988 42.4869 97.4013 42.5399 98.2038 42.5205C98.4494 42.5205 98.695 42.5205 98.9405 42.5205C99.5564 42.4847 100.174 42.4847 100.79 42.5205C101.22 42.5192 101.646 42.6041 102.043 42.7699C102.44 42.9358 102.8 43.1794 103.101 43.4863C103.475 44.0271 103.713 44.6502 103.794 45.3025L103.968 46.4846C104.243 48.5882 104.272 50.7167 104.054 52.827Z" fill="#FFEDE5"/>
<path d="M95.3436 33.8573C95.1482 34.8889 94.7263 35.8645 94.108 36.7139C93.4897 37.5633 92.6905 38.2655 91.7678 38.77C90.8452 39.2744 89.822 39.5686 88.7718 39.6314C87.7216 39.6942 86.6705 39.524 85.694 39.1331L85.9685 36.1492C87.6044 36.4641 89.2892 36.4224 90.9073 36.0268C92.5255 35.6312 94.0389 34.8911 95.3436 33.8573Z" fill="#E0855C" fill-opacity="0.1"/>
<path d="M84.047 24.3582C83.2092 25.223 83.1369 27.1546 83.0792 29.288C82.8625 35.7746 84.8126 37.7927 88.1206 38.1531C91.4286 38.5134 94.91 37.2305 95.6178 31.234C95.979 28.2213 96.3546 25.4681 95.2567 24.1564C93.6821 22.2248 86.5894 21.7059 84.047 24.3582Z" fill="#FFEDE5"/>
<path d="M95.1268 30.3546C95.1268 30.3546 96.138 27.6735 97.7415 29.1005C99.3449 30.5276 97.1348 34.5781 94.679 34.2754C94.7079 34.2754 94.3757 31.2772 95.1268 30.3546Z" fill="#FFEDE5"/>
<path d="M97.0339 30.3257C96.6547 30.444 96.3151 30.6633 96.0516 30.96C95.7533 31.2087 95.5119 31.5183 95.3438 31.8681C95.3438 31.969 95.4449 32.0411 95.5172 31.969C95.7208 31.7679 95.9136 31.5561 96.095 31.3348C96.2268 31.4798 96.3898 31.5931 96.5717 31.6663C96.7161 31.6663 96.8317 31.5366 96.7739 31.4213C96.6739 31.2686 96.5405 31.1405 96.3839 31.0465C96.6535 30.8742 96.9095 30.6814 97.1495 30.4699C97.154 30.4525 97.1544 30.4344 97.1506 30.4169C97.1469 30.3994 97.1391 30.383 97.1279 30.369C97.1167 30.355 97.1023 30.3438 97.086 30.3363C97.0697 30.3288 97.0519 30.3252 97.0339 30.3257Z" fill="#E0855C" fill-opacity="0.1"/>
<path d="M85.9251 29.1437C85.9251 29.1437 85.3618 29.3455 85.4484 28.3509C85.5351 27.3562 85.9251 27.5869 85.9251 27.5869C85.9251 27.5869 86.3152 27.5869 86.2574 28.3653C86.1996 29.1437 85.9251 29.1437 85.9251 29.1437Z" fill="#3B2645"/>
<path d="M91.6023 29.1437C91.6023 29.1437 91.0534 29.3455 91.1401 28.3509C91.2268 27.3562 91.6023 27.5869 91.6023 27.5869C91.6023 27.5869 91.9924 27.5869 91.9346 28.3653C91.8768 29.1437 91.6023 29.1437 91.6023 29.1437Z" fill="#3B2645"/>
<path d="M86.5322 26.1311C86.3052 26.0029 86.0436 25.9492 85.7843 25.9776C85.525 26.0061 85.2813 26.1153 85.0877 26.2897C85.0779 26.3094 85.0733 26.3313 85.0743 26.3533C85.0753 26.3752 85.0819 26.3966 85.0934 26.4154C85.105 26.4341 85.1211 26.4496 85.1403 26.4604C85.1595 26.4712 85.1812 26.4769 85.2032 26.4771C85.4055 26.4771 85.5788 26.3618 85.7811 26.3474C85.9929 26.3373 86.2045 26.3717 86.4022 26.4483C86.59 26.5059 86.72 26.2176 86.5322 26.1311Z" fill="#3B2645"/>
<path d="M92.4546 26.6211C92.2235 26.0445 91.2267 26.0013 90.7934 26.3473C90.7724 26.3634 90.7554 26.3842 90.7437 26.4079C90.732 26.4316 90.7259 26.4577 90.7259 26.4842C90.7259 26.5106 90.732 26.5367 90.7437 26.5605C90.7554 26.5842 90.7724 26.605 90.7934 26.6211C91.0529 26.6427 91.3138 26.6427 91.5734 26.6211C91.7835 26.6549 91.9877 26.718 92.1801 26.8085C92.205 26.8448 92.2434 26.8698 92.2867 26.8779C92.3301 26.886 92.3749 26.8766 92.4113 26.8518C92.4476 26.8269 92.4727 26.7887 92.4808 26.7454C92.4889 26.7022 92.4795 26.6575 92.4546 26.6211Z" fill="#3B2645"/>
<path d="M87.0662 33.7851C88.2848 33.9445 89.5232 33.7335 90.6198 33.1797C90.4558 33.5643 90.213 33.9105 89.907 34.196C89.601 34.4815 89.2386 34.6999 88.843 34.8374C87.5862 35.1833 87.0662 33.7851 87.0662 33.7851Z" fill="white"/>
<path d="M79.7714 43.472C83.0939 45.7928 83.3972 50.3046 81.7793 53.9083C80.6815 56.3156 78.6446 58.0021 77.4457 60.2796C76.1963 62.4885 74.7456 64.5779 73.112 66.5212C69.5295 71.0619 66.1204 75.1701 64.8058 76.7268C60.2844 82.118 50.7793 89.2388 47.3557 91.7182C46.5756 92.2948 46.1134 92.6119 46.1134 92.6119C46.1134 92.6119 42.8342 90.8965 43.701 87.7253C43.701 87.7253 56.7019 73.9448 58.6232 71.1339C60.7464 67.4804 62.6751 63.7177 64.4014 59.8616C66.6164 55.5852 68.9228 51.3665 71.3208 47.2054C72.4186 45.2883 73.8198 42.881 76.2322 42.4486C77.2058 42.3394 78.1886 42.5467 79.0347 43.0396C79.2903 43.166 79.5365 43.3105 79.7714 43.472Z" fill="#FFEDE5"/>
<path d="M43.7011 87.7398C44.0569 87.7125 44.4142 87.7125 44.77 87.7398C44.77 87.7398 47.8903 89.4696 47.3558 91.7183C47.3558 91.7183 47.0235 92.021 46.5035 92.4823C45.9835 92.9436 45.4201 93.4913 44.7411 94.1832C44.0622 94.8751 42.5165 97.0662 41.852 96.8788C41.6972 96.8217 41.5619 96.7217 41.462 96.5905L40.1186 95.149C39.3674 94.313 38.1107 92.9003 39.0641 91.7904C38.3707 92.2084 36.7528 93.2318 35.9583 92.7417L35.626 92.2084C35.626 92.2084 38.0095 90.4354 38.9918 89.5561C40.317 88.4474 41.9732 87.8087 43.7011 87.7398Z" fill="#FFEDE5"/>
<path d="M83.715 65.5555C83.7101 65.6323 83.7101 65.7094 83.715 65.7862C83.715 65.7862 83.845 65.7862 83.8161 65.7862L83.715 65.5555Z" fill="#D6BED3"/>
<path d="M89.0742 112.274C87.7452 122.897 86.1851 132.137 86.1851 132.137C86.4018 134.703 86.5029 137.485 86.5029 140.339C86.5029 145.932 86.1273 151.871 85.6506 157.103C85.0439 163.778 84.2061 169.457 83.8449 172.311V172.671C84.3794 191.598 78.9768 194.106 76.4488 189.969C73.9209 185.832 76.4488 173.637 76.4488 173.637C76.4569 173.527 76.4569 173.416 76.4488 173.306C75.3853 167.642 74.6761 161.918 74.3253 156.167C73.4586 142.242 74.9465 132.714 74.7731 130.984C71.754 100.713 75.9721 84.0207 75.9721 84.0207C76.6307 81.5952 77.8196 79.3454 79.4535 77.4332C82.5304 74.1178 86.2284 74.9538 88.5542 79.0044C88.7987 79.4197 89.0205 79.848 89.2186 80.2873C90.1663 82.6138 90.7039 85.0863 90.8076 87.5956C91.0388 93.866 90.1576 103.538 89.0742 112.274Z" fill="#F5A784"/>
<path d="M103.996 155.431C103.66 161.303 102.956 167.147 101.887 172.931L101.757 173.637C101.757 173.637 104.285 185.875 101.757 189.969C99.2293 194.063 93.8845 191.67 94.3612 172.931C94.3612 172.844 94.3612 172.758 94.3612 172.686C93.9567 169.976 93.1477 164.109 92.5121 157.161C92.021 151.885 91.6454 145.975 91.6454 140.382C91.6454 137.499 91.761 134.732 91.9777 132.151C91.9777 132.151 90.3742 122.912 89.0886 112.302C88.0051 103.553 87.1095 93.8802 87.4851 87.6675C87.5932 85.1573 88.1357 82.6848 89.0886 80.3592C89.2778 79.9064 89.4999 79.468 89.7531 79.0475C92.4255 74.4203 96.8747 74.0167 100.154 79.2348C101.093 80.7474 101.831 82.3756 102.35 84.0782C102.35 84.0782 106.568 100.727 103.549 131.041C103.332 132.742 104.762 141.939 103.996 155.431Z" fill="#F5A784"/>
<path d="M43.3544 97.0948C43.6422 97.4272 43.9997 97.6925 44.4015 97.8718C44.8034 98.0512 45.2399 98.1402 45.6801 98.1326C45.8817 98.0858 46.0718 97.9987 46.2387 97.8765C46.4056 97.7543 46.546 97.5996 46.6513 97.4217C46.7566 97.2439 46.8247 97.0466 46.8515 96.8417C46.8782 96.6369 46.863 96.4287 46.8068 96.2299C46.6389 95.7914 46.3661 95.4005 46.0123 95.0911C43.8311 92.9289 41.592 90.7667 39.3241 88.7631C38.9451 88.3368 38.4386 88.0436 37.8795 87.927C37.3596 87.9268 36.8565 88.1106 36.4597 88.4459C36.0629 88.7811 35.7982 89.2459 35.7127 89.7577C35.7127 90.6802 36.5072 91.0262 37.1573 91.5451C39.2085 93.3614 41.2598 95.2641 43.3544 97.0948Z" fill="#3B2645"/>
<path d="M43.0361 94.5436C43.126 94.4511 43.1993 94.3438 43.2528 94.2265C43.2894 94.0775 43.2915 93.9222 43.259 93.7724C43.2264 93.6225 43.1601 93.482 43.065 93.3616C42.5305 92.4823 41.4326 91.0696 40.3492 90.9399C39.9915 90.9217 39.6353 90.9973 39.316 91.1592C38.9966 91.321 38.7254 91.5635 38.5291 91.8624C38.2049 92.3278 37.9987 92.8648 37.9283 93.4272C37.8578 93.9896 37.9252 94.5606 38.1246 95.0913C38.4417 96.046 39.093 96.8546 39.9592 97.3689C40.3914 97.5517 40.8777 97.5607 41.3165 97.3942C41.7552 97.2276 42.1126 96.8984 42.3138 96.4752C42.5305 95.9418 42.4583 95.2932 42.805 94.8463C42.8707 94.7373 42.9482 94.6358 43.0361 94.5436Z" fill="#FFEDE5"/>
<path d="M98.3194 43.4718C94.9825 45.7926 94.6792 50.3044 96.3115 53.9081C97.3949 56.3154 99.4317 58.0019 100.645 60.2794C101.905 62.4819 103.355 64.5704 104.979 66.521C108.561 71.0617 111.985 75.1699 113.285 76.7267C117.821 82.1466 127.326 89.2387 130.75 91.718L132.006 92.6117C132.006 92.6117 135.271 90.8963 134.404 87.7251C134.404 87.7251 121.403 73.9446 119.482 71.1337C117.353 67.4833 115.424 63.7204 113.704 59.8614C111.479 55.537 109.182 51.3711 106.77 47.2052C105.672 45.2881 104.285 42.8808 101.859 42.4484C100.885 42.3402 99.9026 42.5475 99.0562 43.0394C98.8002 43.1652 98.554 43.3097 98.3194 43.4718Z" fill="#FFEDE5"/>
<path d="M134.39 87.7397C134.029 87.7126 133.667 87.7126 133.306 87.7397C133.306 87.7397 130.186 89.4694 130.721 91.7181C130.721 91.7181 131.067 92.0208 131.573 92.4821C132.079 92.9434 132.671 93.4911 133.335 94.1831C134 94.875 135.574 97.066 136.224 96.8786C136.377 96.8177 136.511 96.7184 136.614 96.5903L137.943 95.1488C138.709 94.3128 139.951 92.9001 139.012 91.7902C139.691 92.2082 141.309 93.2317 142.118 92.7416L142.393 92.2082C142.393 92.2082 140.009 90.4352 139.012 89.5559C137.713 88.4612 136.089 87.823 134.39 87.7397Z" fill="#FFEDE5"/>
<path d="M134.722 97.0949C134.434 97.4273 134.077 97.6926 133.675 97.8719C133.273 98.0513 132.837 98.1403 132.396 98.1327C132.192 98.0892 131.999 98.0044 131.829 97.8836C131.659 97.7629 131.515 97.6086 131.407 97.4304C131.298 97.2522 131.228 97.0538 131.199 96.8473C131.171 96.6409 131.185 96.4308 131.241 96.23C131.421 95.8108 131.698 95.4403 132.05 95.1489C134.236 92.9867 136.47 90.8773 138.752 88.8208C139.129 88.392 139.637 88.0984 140.197 87.9847C140.715 87.985 141.216 88.1694 141.611 88.5048C142.005 88.8403 142.267 89.3049 142.349 89.8154C142.349 90.738 141.569 91.0839 140.905 91.6028C138.868 93.3614 136.817 95.2642 134.722 97.0949Z" fill="#3B2645"/>
<path d="M135.054 94.5436C134.956 94.4553 134.877 94.3473 134.823 94.2265C134.793 94.0763 134.795 93.9213 134.83 93.772C134.865 93.6228 134.931 93.4828 135.025 93.3616C135.545 92.4823 136.643 91.0696 137.727 90.9399C138.084 90.9217 138.441 90.9973 138.76 91.1592C139.079 91.321 139.351 91.5635 139.547 91.8624C139.867 92.33 140.068 92.869 140.131 93.432C140.194 93.995 140.117 94.5648 139.908 95.0913C139.6 96.0512 138.947 96.8629 138.073 97.3689C137.641 97.5517 137.155 97.5607 136.716 97.3942C136.277 97.2276 135.92 96.8984 135.719 96.4752C135.516 95.9418 135.589 95.2932 135.228 94.8463L135.054 94.5436Z" fill="#FFEDE5"/>
<path d="M104.213 146.192V147.633C104.213 148.599 104.213 149.594 104.213 150.617V151.785C104.213 152.967 104.126 154.192 104.069 155.446C100.328 156.476 96.4772 157.052 92.5988 157.161C92.4399 155.547 92.1221 151.251 92.1077 150.776C92.1077 149.795 91.891 147.028 91.8765 146.653C91.7899 144.548 91.7321 142.444 91.7321 140.383C91.7321 137.701 91.8332 135.078 92.0354 132.642C92.0354 132.469 92.0354 132.31 92.0354 132.152C92.0354 131.993 90.432 122.926 89.1463 112.303C89.0019 113.427 88.8574 114.551 88.713 115.632C87.4996 124.771 86.2139 132.152 86.2139 132.152C86.4306 134.718 86.5317 137.5 86.5317 140.354C86.5317 142.53 86.5317 144.678 86.3728 146.956C86.3728 147.33 86.0839 152.145 86.0406 152.606C85.9394 154.149 85.8094 155.662 85.6794 157.118C83.6571 157.032 81.6636 156.902 79.6845 156.729C78.1244 156.599 76.1598 156.513 74.253 156.239C74.1664 154.941 74.1086 153.702 74.0652 152.491C74.0652 152.188 74.0652 151.886 74.0652 151.583C74.0652 150.257 74.0652 149.003 74.0652 147.792V146.84C74.0652 138.105 74.9175 132.354 74.7875 130.984C71.7684 100.713 75.9865 84.0209 75.9865 84.0209C76.6451 81.5954 77.834 79.3456 79.4679 77.4333C80.7062 77.6247 81.9212 77.9435 83.0937 78.3847C84.8797 78.8504 86.7233 79.0591 88.5685 79.0046H89.8975C91.501 79.0046 93.1044 78.8172 94.6934 78.7739H95.7624C97.2857 78.7513 98.8068 78.8963 100.298 79.2064C101.19 80.7354 101.879 82.373 102.35 84.0786C103.516 89.5193 104.203 95.0518 104.401 100.612C104.89 110.762 104.605 120.935 103.549 131.042C103.375 132.325 104.141 137.817 104.213 146.192Z" fill="#3B2645"/>
<path d="M46.3158 41.7566C46.3158 41.6702 46.1424 41.6702 46.128 41.7566C45.4057 46.6721 45.8246 51.847 45.8246 56.8777C45.8246 62.1968 45.6513 67.559 45.9691 72.8637C45.9827 72.9203 46.0151 72.9707 46.061 73.0067C46.1068 73.0428 46.1635 73.0624 46.2219 73.0624C46.2802 73.0624 46.3369 73.0428 46.3828 73.0067C46.4286 72.9707 46.461 72.9203 46.4747 72.8637C46.778 67.559 46.6047 62.1968 46.6047 56.8777C46.6047 51.9623 47.0236 46.7153 46.3158 41.7566Z" fill="#F7F8F8"/>
<path d="M52.6282 43.4287C52.6128 43.3579 52.5736 43.2946 52.5171 43.2491C52.4606 43.2036 52.3902 43.1788 52.3176 43.1788C52.245 43.1788 52.1746 43.2036 52.1181 43.2491C52.0616 43.2946 52.0224 43.3579 52.007 43.4287C52.007 48.1568 51.7037 52.9713 52.007 57.6849C52.007 57.7652 52.039 57.8422 52.0959 57.899C52.1528 57.9557 52.2299 57.9876 52.3104 57.9876C52.3908 57.9876 52.468 57.9557 52.5249 57.899C52.5818 57.8422 52.6137 57.7652 52.6137 57.6849C52.946 52.9713 52.6571 48.1568 52.6282 43.4287Z" fill="#F7F8F8"/>
<path d="M117.214 92.929C117.203 92.8864 117.177 92.8488 117.142 92.822C117.107 92.7952 117.064 92.7806 117.019 92.7806C116.975 92.7806 116.932 92.7952 116.897 92.822C116.861 92.8488 116.836 92.8864 116.824 92.929C116.417 99.1188 116.335 105.326 116.579 111.524C116.579 117.722 116.579 123.906 116.81 130.105C116.822 130.151 116.849 130.192 116.887 130.221C116.925 130.25 116.971 130.265 117.019 130.265C117.067 130.265 117.114 130.25 117.151 130.221C117.189 130.192 117.216 130.151 117.229 130.105C117.431 123.906 117.431 117.722 117.46 111.524C117.696 105.326 117.614 99.1191 117.214 92.929Z" fill="#F7F8F8"/>
<path d="M128.352 56.676C128.306 52.5514 128.036 48.4323 127.543 44.337C127.543 44.0919 127.153 44.164 127.138 44.337C127.027 48.7661 127.157 53.198 127.528 57.613C127.716 61.7212 127.673 65.9303 128.222 69.9952C128.222 70.37 128.857 70.2547 128.872 69.9087C129.074 65.5122 128.612 61.0293 128.352 56.676Z" fill="#F7F8F8"/>
<path d="M131.241 58.9681C131.231 58.9359 131.21 58.9077 131.183 58.8876C131.156 58.8676 131.123 58.8568 131.089 58.8568C131.055 58.8568 131.022 58.8676 130.995 58.8876C130.968 58.9077 130.947 58.9359 130.937 58.9681C130.555 64.8904 130.526 70.8302 130.851 76.7559C130.842 76.792 130.841 76.8297 130.849 76.8661C130.857 76.9025 130.873 76.9366 130.896 76.9659C130.919 76.9952 130.948 77.0189 130.981 77.0352C131.015 77.0515 131.052 77.06 131.089 77.06C131.126 77.06 131.163 77.0515 131.197 77.0352C131.23 77.0189 131.259 76.9952 131.282 76.9659C131.305 76.9366 131.321 76.9025 131.329 76.8661C131.337 76.8297 131.336 76.792 131.327 76.7559C131.652 70.8302 131.623 64.8904 131.241 58.9681Z" fill="#F7F8F8"/>
<path d="M88.641 115.618C88.663 114.495 88.8083 113.379 89.0744 112.288C88.9299 113.412 88.7855 114.537 88.641 115.618Z" fill="#291B30"/>
<path d="M104.358 100.612C102.407 88.9216 86.3008 88.3738 86.3008 88.3738C85.304 83.5593 91.8045 82.1178 91.8045 82.1178L95.6037 78.8457C97.127 78.8231 98.6481 78.9681 100.14 79.2781C101.081 80.7764 101.823 82.3898 102.35 84.0782C103.493 89.5218 104.165 95.0534 104.358 100.612Z" fill="#291B30"/>
<path d="M102.581 85.3325C89.58 91.4299 75.4523 85.837 75.4523 85.837C76.478 82.954 75.7123 68.251 75.6401 65.4545C75.6401 65.4545 75.6401 65.3536 75.6401 65.3104C75.6459 65.2047 75.6459 65.0989 75.6401 64.9932C78.3703 58.6796 78.6737 46.5135 78.6881 42.3333C79.916 42.1459 81.2016 42.045 82.3139 41.9873C82.7473 46.6577 84.293 58.6363 88.5977 58.1174C92.9025 57.5985 94.9538 46.9316 95.7049 42.2612C96.4969 42.3938 97.3003 42.4469 98.1029 42.4197C98.3484 42.4197 98.594 42.4197 98.8396 42.4197C98.464 48.8055 102.018 62.2256 102.119 62.6004C102.119 62.7013 102.119 62.8166 102.119 62.9175C102.119 63.2635 102.018 63.6238 101.974 64.013C101.974 64.013 101.974 64.1716 101.974 64.2581C101.064 72.388 102.581 85.3325 102.581 85.3325Z" fill="#AB8DA8"/>
<ellipse opacity="0.3" cx="240" cy="107.5" rx="54" ry="53.5" fill="white"/>
<path d="M238.425 181.348C236.126 181.353 233.834 181.11 231.588 180.625C227.661 179.82 223.963 178.156 220.758 175.753C217.554 173.349 214.923 170.267 213.056 166.727C211.575 163.416 210.475 159.949 209.776 156.39L209.615 155.713C207.313 145.927 204.412 135.579 199.06 126.229C198.197 124.725 197.253 123.22 196.344 121.773C194.144 118.496 192.281 115.006 190.785 111.356C188.483 105.096 188.908 98.8707 192.051 94.7704C192.465 94.1334 193.003 93.5863 193.634 93.1619C194.265 92.7376 194.975 92.4448 195.722 92.301C196.178 92.2461 196.639 92.285 197.079 92.4154C197.518 92.5458 197.926 92.7649 198.278 93.0591C198.552 93.2771 198.776 93.5504 198.937 93.8612C199.098 94.172 199.191 94.5131 199.21 94.8623H198.462C198.444 94.6188 198.375 94.3817 198.26 94.1661C198.145 93.9506 197.986 93.7613 197.794 93.6104C197.521 93.3839 197.205 93.2144 196.865 93.1118C196.525 93.0092 196.168 92.9757 195.814 93.0131C194.518 93.308 193.384 94.0894 192.649 95.1954C189.668 99.1119 189.196 105.05 191.498 111.068C192.982 114.693 194.834 118.156 197.023 121.405C197.932 122.864 198.876 124.369 199.751 125.885C205.115 135.303 208.05 145.709 210.352 155.552L210.513 156.23C211.197 159.729 212.278 163.139 213.736 166.394C215.55 169.834 218.107 172.829 221.222 175.163C224.337 177.497 227.932 179.111 231.749 179.89C239.466 181.416 247.473 180.333 254.504 176.812C257.32 175.56 259.861 173.769 261.986 171.54C264.147 168.93 265.812 165.948 266.9 162.742C268.823 157.711 270.354 152.405 271.735 147.294C273.864 139.667 276.062 131.777 279.792 124.633C280.943 122.542 282.094 120.487 283.314 118.5C285.598 114.933 287.526 111.152 289.069 107.209C290.393 103.465 290.45 100.318 289.253 98.0208C288.833 97.2548 288.249 96.5902 287.543 96.0742C286.837 95.5582 286.026 95.2033 285.167 95.0346C284.567 94.8931 283.943 94.8931 283.344 95.0347C282.744 95.1763 282.186 95.4555 281.714 95.85L281.219 95.2873C281.774 94.8131 282.433 94.4749 283.142 94.2994C283.852 94.1239 284.592 94.1161 285.305 94.2765C286.279 94.4772 287.197 94.8901 287.993 95.4857C288.789 96.0814 289.443 96.845 289.909 97.7222C291.21 100.249 291.152 103.534 289.759 107.485C288.201 111.477 286.242 115.302 283.912 118.902C282.761 120.889 281.495 122.933 280.459 125C276.776 132.075 274.589 139.932 272.471 147.512C271.033 152.658 269.548 157.975 267.603 163.029C266.49 166.324 264.781 169.388 262.561 172.068C260.367 174.368 257.743 176.217 254.838 177.512C249.722 179.997 244.114 181.308 238.425 181.348Z" fill="#AB8DA8"/>
<path d="M246.873 47.6107C247.468 46.668 247.809 45.588 247.863 44.4751C247.928 43.9753 247.882 43.4674 247.729 42.9872C247.576 42.5069 247.319 42.0661 246.977 41.6956C246.689 41.42 246.332 41.2017 246.067 40.9031C245.803 40.6045 245.676 40.2944 245.457 40.0072C245.22 39.6992 244.915 39.4498 244.566 39.2785C244.216 39.1072 243.832 39.0186 243.443 39.0195C242.649 39.0195 241.809 39.387 241.141 39.0195C240.727 38.8127 240.45 38.3993 239.99 38.1696C239.557 37.9495 239.06 37.8885 238.586 37.9973C238.172 38.1413 237.735 38.2075 237.297 38.1925C236.675 38.1006 236.249 37.5493 235.697 37.2392C235.413 37.0943 235.1 37.0132 234.782 37.0015C234.463 36.9898 234.145 37.0478 233.852 37.1714C233.558 37.2951 233.294 37.4814 233.08 37.7173C232.866 37.9532 232.706 38.233 232.612 38.5371C232.537 38.8271 232.537 39.1314 232.612 39.4215C232.739 40.1221 233.222 40.6849 233.257 41.3855C233.291 42.0861 232.865 42.6949 233.257 43.3151C233.648 43.9353 234.223 43.9583 234.5 44.544C234.868 45.3365 234.5 46.3702 234.833 47.2202C235.006 47.76 235.098 48.5295 235.605 48.8741C236.307 49.3565 237.838 48.9545 238.678 48.8741L241.935 48.6099C243.374 48.4721 245.146 48.6099 246.447 47.8978C246.604 47.8266 246.748 47.7295 246.873 47.6107Z" fill="#3B2645"/>
<path d="M235.823 47.1053C235.709 46.9487 235.559 46.8213 235.386 46.7334C235.213 46.6455 235.022 46.5997 234.828 46.5997C234.634 46.5997 234.442 46.6455 234.269 46.7334C234.096 46.8213 233.946 46.9487 233.832 47.1053C232.831 48.2539 234.523 50.551 235.823 50.6888C235.899 49.4955 235.899 48.2986 235.823 47.1053Z" fill="#FFEDE5"/>
<path d="M251.995 66.3434C251.692 68.2781 251.284 70.1951 250.775 72.0862C250.694 72.4423 250.625 72.7868 250.579 73.1199C250.533 73.453 250.487 73.7057 250.43 74.1306C250.43 74.211 250.43 74.3029 250.43 74.3833C250.43 74.659 250.349 74.9461 250.315 75.2562L248.864 88.7517C239.852 91.2211 230.448 88.7517 230.448 88.7517C230.448 88.7517 230.448 88.5794 230.448 88.2464C230.299 86.7188 229.838 81.8604 229.378 76.3818C229.378 76.3818 229.378 76.3014 229.378 76.2669C229.382 76.1828 229.382 76.0984 229.378 76.0143C229.182 73.7171 228.998 71.2822 228.848 68.9621C228.572 64.9307 228.399 61.2094 228.434 58.9008C228.434 58.0509 230.425 58.1427 231.783 57.959C232.785 57.8211 233.809 57.7293 234.695 57.6833C235.582 57.6374 236.249 57.6144 236.698 57.6144H237.205C237.205 57.6144 237.32 56.2936 237.32 56.2821L237.631 53.0432C237.782 53.082 237.936 53.1089 238.091 53.1236C238.376 53.1768 238.664 53.2075 238.954 53.2154C239.334 53.2154 239.691 53.2154 240.025 53.2154L240.52 53.158H240.807C241.13 53.1006 241.44 53.0317 241.728 52.9513C242.016 52.8709 242.108 52.8364 242.292 52.779C243.133 52.5101 243.931 52.1234 244.663 51.6304L244.767 51.5615L244.962 51.4122L245.101 51.3088C245.101 51.4696 245.101 51.5385 245.101 51.6075C245.008 52.3655 244.905 53.3303 244.859 54.2836C244.859 54.9498 244.79 55.6044 244.767 56.1672C244.744 56.73 244.56 57.5455 244.962 57.8326C245.106 57.9132 245.261 57.9713 245.423 58.0049C246.055 58.1045 246.694 58.1467 247.333 58.1313C247.529 58.1313 247.725 58.1313 247.92 58.1313C248.411 58.1027 248.903 58.1027 249.394 58.1313C249.737 58.1303 250.076 58.1978 250.393 58.33C250.709 58.4622 250.995 58.6563 251.235 58.9008C251.534 59.3317 251.723 59.8282 251.788 60.348L251.926 61.2898C252.145 62.966 252.168 64.6619 251.995 66.3434Z" fill="#FFEDE5"/>
<path d="M245.055 51.2285C244.899 52.0505 244.563 52.8278 244.07 53.5046C243.577 54.1815 242.941 54.7409 242.205 55.1429C241.47 55.5448 240.655 55.7793 239.818 55.8293C238.981 55.8793 238.144 55.7437 237.366 55.4322L237.585 53.0547C238.888 53.3056 240.23 53.2723 241.52 52.9571C242.809 52.6419 244.015 52.0522 245.055 51.2285Z" fill="#E0855C" fill-opacity="0.1"/>
<path d="M236.053 43.6597C235.386 44.3488 235.328 45.8879 235.282 47.5877C235.11 52.7562 236.663 54.3642 239.299 54.6514C241.935 54.9385 244.709 53.9163 245.273 49.1383C245.561 46.7378 245.86 44.5441 244.985 43.4989C243.731 41.9598 238.079 41.5463 236.053 43.6597Z" fill="#FFEDE5"/>
<path d="M244.882 48.4376C244.882 48.4376 245.687 46.3013 246.965 47.4384C248.243 48.5754 246.482 51.8029 244.525 51.5617C244.548 51.5617 244.283 49.1727 244.882 48.4376Z" fill="#FFEDE5"/>
<path d="M246.401 48.4146C246.099 48.5088 245.829 48.6835 245.619 48.92C245.381 49.1181 245.189 49.3649 245.055 49.6436C245.055 49.724 245.135 49.7814 245.193 49.7239C245.355 49.5637 245.509 49.395 245.653 49.2186C245.758 49.3341 245.888 49.4244 246.033 49.4828C246.148 49.4828 246.24 49.3794 246.194 49.2875C246.114 49.1659 246.008 49.0638 245.883 48.9889C246.098 48.8516 246.302 48.698 246.493 48.5295C246.497 48.5156 246.497 48.5012 246.494 48.4872C246.491 48.4733 246.485 48.4602 246.476 48.449C246.467 48.4379 246.456 48.429 246.443 48.423C246.43 48.417 246.416 48.4141 246.401 48.4146Z" fill="#E0855C" fill-opacity="0.1"/>
<path d="M237.55 47.4728C237.55 47.4728 237.101 47.6336 237.17 46.8411C237.239 46.0485 237.55 46.2323 237.55 46.2323C237.55 46.2323 237.861 46.2323 237.815 46.8525C237.769 47.4728 237.55 47.4728 237.55 47.4728Z" fill="#3B2645"/>
<path d="M242.074 47.4728C242.074 47.4728 241.636 47.6336 241.705 46.8411C241.774 46.0485 242.074 46.2323 242.074 46.2323C242.074 46.2323 242.384 46.2323 242.338 46.8525C242.292 47.4728 242.074 47.4728 242.074 47.4728Z" fill="#3B2645"/>
<path d="M238.034 45.0724C237.853 44.9702 237.644 44.9275 237.438 44.9501C237.231 44.9728 237.037 45.0598 236.883 45.1988C236.875 45.2145 236.871 45.2319 236.872 45.2494C236.873 45.2669 236.878 45.284 236.887 45.2989C236.897 45.3138 236.909 45.3262 236.925 45.3348C236.94 45.3434 236.957 45.348 236.975 45.3481C237.136 45.3481 237.274 45.2562 237.435 45.2447C237.604 45.2367 237.773 45.2641 237.93 45.3251C238.08 45.3711 238.183 45.1413 238.034 45.0724Z" fill="#3B2645"/>
<path d="M242.753 45.4628C242.568 45.0034 241.774 44.9689 241.429 45.2446C241.412 45.2575 241.399 45.274 241.389 45.2929C241.38 45.3118 241.375 45.3326 241.375 45.3537C241.375 45.3748 241.38 45.3956 241.389 45.4145C241.399 45.4334 241.412 45.4499 241.429 45.4628C241.636 45.48 241.844 45.48 242.05 45.4628C242.218 45.4897 242.38 45.54 242.534 45.6121C242.554 45.6411 242.584 45.6609 242.619 45.6674C242.653 45.6739 242.689 45.6664 242.718 45.6466C242.747 45.6268 242.767 45.5963 242.773 45.5618C242.78 45.5274 242.772 45.4917 242.753 45.4628Z" fill="#3B2645"/>
<path d="M238.459 51.171C239.43 51.298 240.417 51.1299 241.291 50.6886C241.16 50.9951 240.966 51.2709 240.723 51.4984C240.479 51.7258 240.19 51.8999 239.875 52.0094C238.874 52.2851 238.459 51.171 238.459 51.171Z" fill="white"/>
<path d="M232.647 58.8895C235.294 60.7387 235.536 64.3337 234.247 67.205C233.372 69.1231 231.749 70.4669 230.794 72.2816C229.798 74.0417 228.642 75.7065 227.341 77.2549C224.486 80.8728 221.77 84.1462 220.722 85.3867C217.12 89.6823 209.546 95.3561 206.818 97.3316C206.197 97.7911 205.828 98.0437 205.828 98.0437C205.828 98.0437 203.216 96.677 203.906 94.1501C203.906 94.1501 214.265 83.17 215.796 80.9303C217.488 78.0192 219.025 75.0211 220.4 71.9486C222.165 68.5412 224.003 65.1798 225.913 61.8643C226.788 60.3367 227.905 58.4186 229.827 58.074C230.603 57.987 231.386 58.1522 232.06 58.5449C232.263 58.6457 232.46 58.7608 232.647 58.8895Z" fill="#FFEDE5"/>
<path d="M203.906 94.1617C204.19 94.14 204.474 94.14 204.758 94.1617C204.758 94.1617 207.244 95.54 206.818 97.3317C206.818 97.3317 206.553 97.5729 206.139 97.9404C205.725 98.308 205.276 98.7444 204.735 99.2957C204.194 99.847 202.962 101.593 202.433 101.444C202.309 101.398 202.202 101.318 202.122 101.214L201.052 100.065C200.453 99.3991 199.452 98.2735 200.211 97.3891C199.659 97.7222 198.37 98.5377 197.737 98.1472L197.472 97.7222C197.472 97.7222 199.371 96.3095 200.154 95.6089C201.21 94.7255 202.529 94.2165 203.906 94.1617Z" fill="#FFEDE5"/>
<path d="M235.789 76.4855C235.785 76.5467 235.785 76.608 235.789 76.6692C235.789 76.6692 235.892 76.6692 235.869 76.6692L235.789 76.4855Z" fill="#D6BED3"/>
<path d="M240.059 113.71C239 122.175 237.757 129.537 237.757 129.537C237.93 131.582 238.01 133.798 238.01 136.072C238.01 140.529 237.711 145.261 237.331 149.43C236.848 154.748 236.18 159.273 235.892 161.547V161.834C236.318 176.915 232.013 178.914 229.999 175.617C227.985 172.321 229.999 162.604 229.999 162.604C230.006 162.516 230.006 162.428 229.999 162.34C229.152 157.827 228.587 153.266 228.307 148.684C227.617 137.589 228.802 129.997 228.664 128.618C226.258 104.499 229.619 91.1984 229.619 91.1984C230.144 89.2658 231.091 87.4732 232.393 85.9495C234.845 83.3078 237.792 83.974 239.645 87.2014C239.839 87.5324 240.016 87.8736 240.174 88.2236C240.929 90.0774 241.358 92.0474 241.44 94.0468C241.624 99.043 240.922 106.75 240.059 113.71Z" fill="#F5A784"/>
<path d="M251.949 148.098C251.681 152.776 251.12 157.433 250.268 162.041L250.165 162.604C250.165 162.604 252.179 172.355 250.165 175.617C248.151 178.879 243.892 176.972 244.272 162.041C244.272 161.972 244.272 161.903 244.272 161.846C243.949 159.687 243.305 155.012 242.798 149.476C242.407 145.272 242.108 140.563 242.108 136.107C242.108 133.81 242.2 131.604 242.373 129.548C242.373 129.548 241.095 122.186 240.071 113.733C239.207 106.761 238.494 99.0543 238.793 94.1041C238.879 92.104 239.311 90.1339 240.071 88.2809C240.221 87.9201 240.398 87.5708 240.6 87.2357C242.729 83.5489 246.274 83.2273 248.887 87.385C249.636 88.5902 250.224 89.8875 250.637 91.2442C250.637 91.2442 253.998 104.51 251.592 128.664C251.419 130.019 252.559 137.347 251.949 148.098Z" fill="#F5A784"/>
<path d="M203.63 101.616C203.859 101.88 204.144 102.092 204.464 102.235C204.785 102.378 205.132 102.449 205.483 102.443C205.644 102.405 205.795 102.336 205.928 102.238C206.061 102.141 206.173 102.018 206.257 101.876C206.341 101.734 206.395 101.577 206.416 101.414C206.438 101.251 206.426 101.085 206.381 100.926C206.247 100.577 206.03 100.266 205.748 100.019C204.01 98.2963 202.226 96.5734 200.419 94.977C200.117 94.6373 199.713 94.4037 199.268 94.3108C198.853 94.3106 198.452 94.4571 198.136 94.7242C197.82 94.9913 197.609 95.3617 197.541 95.7695C197.541 96.5045 198.174 96.7802 198.692 97.1937C200.327 98.6408 201.961 100.157 203.63 101.616Z" fill="#3B2645"/>
<path d="M203.376 99.5828C203.448 99.5091 203.506 99.4236 203.549 99.3302C203.578 99.2115 203.58 99.0878 203.554 98.9684C203.528 98.8489 203.475 98.737 203.399 98.641C202.973 97.9404 202.099 96.8148 201.235 96.7115C200.95 96.697 200.667 96.7572 200.412 96.8862C200.158 97.0151 199.942 97.2083 199.785 97.4465C199.527 97.8174 199.363 98.2452 199.306 98.6933C199.25 99.1414 199.304 99.5964 199.463 100.019C199.715 100.78 200.234 101.424 200.925 101.834C201.269 101.98 201.657 101.987 202.006 101.854C202.356 101.721 202.64 101.459 202.801 101.122C202.973 100.697 202.916 100.18 203.192 99.824C203.245 99.7372 203.306 99.6563 203.376 99.5828Z" fill="#FFEDE5"/>
<path d="M247.426 58.8893C244.767 60.7384 244.525 64.3334 245.826 67.2048C246.689 69.1229 248.312 70.4667 249.279 72.2814C250.282 74.0364 251.438 75.7004 252.732 77.2547C255.586 80.8726 258.314 84.146 259.35 85.3864C262.964 89.705 270.538 95.3559 273.266 97.3314L274.267 98.0435C274.267 98.0435 276.868 96.6767 276.178 94.1499C276.178 94.1499 265.819 83.1697 264.288 80.93C262.591 78.0214 261.055 75.0231 259.684 71.9483C257.911 68.5027 256.081 65.1834 254.159 61.864C253.284 60.3365 252.179 58.4184 250.246 58.0738C249.47 57.9876 248.687 58.1527 248.013 58.5447C247.809 58.6449 247.612 58.7601 247.426 58.8893Z" fill="#FFEDE5"/>
<path d="M276.166 94.1616C275.879 94.14 275.59 94.14 275.303 94.1616C275.303 94.1616 272.817 95.5398 273.243 97.3316C273.243 97.3316 273.519 97.5728 273.922 97.9403C274.325 98.3078 274.797 98.7443 275.326 99.2956C275.856 99.8469 277.11 101.593 277.628 101.443C277.75 101.395 277.857 101.316 277.939 101.214L278.998 100.065C279.608 99.399 280.598 98.2734 279.85 97.389C280.39 97.7221 281.68 98.5376 282.324 98.147L282.543 97.7221C282.543 97.7221 280.644 96.3094 279.85 95.6087C278.814 94.7365 277.52 94.228 276.166 94.1616Z" fill="#FFEDE5"/>
<path d="M276.431 101.616C276.202 101.881 275.917 102.092 275.597 102.235C275.276 102.378 274.929 102.449 274.578 102.443C274.415 102.408 274.261 102.34 274.126 102.244C273.99 102.148 273.876 102.025 273.789 101.883C273.703 101.741 273.647 101.583 273.624 101.418C273.601 101.254 273.613 101.087 273.657 100.927C273.801 100.593 274.022 100.297 274.302 100.065C276.044 98.3423 277.824 96.6616 279.642 95.023C279.943 94.6813 280.347 94.4473 280.793 94.3568C281.206 94.357 281.606 94.5039 281.92 94.7712C282.234 95.0385 282.443 95.4087 282.508 95.8155C282.508 96.5506 281.887 96.8262 281.357 97.2397C279.734 98.6409 278.1 100.157 276.431 101.616Z" fill="#3B2645"/>
<path d="M276.696 99.5828C276.617 99.5125 276.554 99.4264 276.511 99.3302C276.487 99.2105 276.489 99.087 276.517 98.9681C276.545 98.8491 276.598 98.7376 276.673 98.641C277.087 97.9404 277.962 96.8148 278.825 96.7115C279.11 96.697 279.394 96.7572 279.648 96.8862C279.903 97.0151 280.119 97.2083 280.275 97.4465C280.531 97.8191 280.69 98.2485 280.741 98.6971C280.791 99.1457 280.73 99.5997 280.563 100.019C280.318 100.784 279.797 101.431 279.101 101.834C278.757 101.98 278.369 101.987 278.02 101.854C277.67 101.721 277.385 101.459 277.225 101.122C277.064 100.697 277.121 100.18 276.834 99.824L276.696 99.5828Z" fill="#FFEDE5"/>
<path d="M252.122 140.736V141.884C252.122 142.654 252.122 143.446 252.122 144.262V145.192C252.122 146.134 252.052 147.11 252.006 148.109C249.026 148.93 245.958 149.389 242.867 149.476C242.741 148.19 242.488 144.767 242.476 144.388C242.476 143.607 242.303 141.402 242.292 141.103C242.223 139.426 242.177 137.749 242.177 136.107C242.177 133.971 242.257 131.88 242.419 129.939C242.419 129.801 242.419 129.675 242.419 129.549C242.419 129.422 241.141 122.198 240.117 113.733C240.001 114.629 239.886 115.525 239.771 116.386C238.804 123.668 237.78 129.549 237.78 129.549C237.953 131.593 238.033 133.81 238.033 136.084C238.033 137.818 238.033 139.53 237.907 141.344C237.907 141.643 237.676 145.479 237.642 145.847C237.561 147.076 237.458 148.282 237.354 149.442C235.743 149.373 234.154 149.269 232.577 149.132C231.334 149.028 229.769 148.959 228.25 148.741C228.181 147.707 228.135 146.72 228.1 145.755C228.1 145.514 228.1 145.272 228.1 145.031C228.1 143.975 228.1 142.975 228.1 142.011V141.253C228.1 134.292 228.779 129.71 228.676 128.618C226.27 104.499 229.631 91.1985 229.631 91.1985C230.156 89.2659 231.103 87.4733 232.405 85.9496C233.391 86.102 234.36 86.3561 235.294 86.7076C236.717 87.0787 238.186 87.245 239.656 87.2015H240.715C241.993 87.2015 243.27 87.0522 244.536 87.0177H245.388C246.602 86.9997 247.814 87.1153 249.002 87.3623C249.713 88.5806 250.262 89.8855 250.637 91.2444C251.567 95.5796 252.113 99.9878 252.271 104.418C252.661 112.506 252.434 120.611 251.592 128.664C251.454 129.687 252.064 134.063 252.122 140.736Z" fill="#3B2645"/>
<path d="M205.99 57.5226C205.99 57.4537 205.851 57.4537 205.84 57.5226C205.264 61.4392 205.598 65.5625 205.598 69.571C205.598 73.8091 205.46 78.0818 205.713 82.3084C205.724 82.3536 205.75 82.3937 205.787 82.4225C205.823 82.4512 205.868 82.4668 205.915 82.4668C205.961 82.4668 206.006 82.4512 206.043 82.4225C206.08 82.3937 206.105 82.3536 206.116 82.3084C206.358 78.0818 206.22 73.8091 206.22 69.571C206.22 65.6544 206.554 61.4737 205.99 57.5226Z" fill="#F7F8F8"/>
<path d="M211.019 58.855C211.007 58.7986 210.976 58.7481 210.931 58.7119C210.886 58.6756 210.83 58.6559 210.772 58.6559C210.714 58.6559 210.658 58.6756 210.613 58.7119C210.568 58.7481 210.536 58.7986 210.524 58.855C210.524 62.6223 210.282 66.4584 210.524 70.2142C210.524 70.2782 210.55 70.3395 210.595 70.3848C210.64 70.43 210.702 70.4554 210.766 70.4554C210.83 70.4554 210.892 70.43 210.937 70.3848C210.982 70.3395 211.008 70.2782 211.008 70.2142C211.272 66.4584 211.042 62.6223 211.019 58.855Z" fill="#F7F8F8"/>
<path d="M262.481 98.2963C262.472 98.2623 262.451 98.2324 262.423 98.211C262.395 98.1897 262.361 98.1781 262.326 98.1781C262.29 98.1781 262.256 98.1897 262.228 98.211C262.2 98.2324 262.179 98.2623 262.17 98.2963C261.846 103.228 261.781 108.174 261.974 113.113C261.974 118.051 261.974 122.979 262.159 127.918C262.168 127.954 262.19 127.987 262.22 128.01C262.25 128.033 262.287 128.046 262.326 128.046C262.364 128.046 262.401 128.033 262.431 128.01C262.461 127.987 262.483 127.954 262.492 127.918C262.654 122.979 262.654 118.051 262.677 113.113C262.865 108.174 262.799 103.229 262.481 98.2963Z" fill="#F7F8F8"/>
<path d="M271.355 69.4103C271.319 66.1239 271.104 62.8418 270.71 59.5787C270.71 59.3834 270.4 59.4409 270.388 59.5787C270.299 63.1078 270.403 66.6391 270.699 70.1569C270.849 73.4303 270.814 76.7841 271.251 80.023C271.251 80.3216 271.758 80.2297 271.769 79.9541C271.931 76.451 271.562 72.879 271.355 69.4103Z" fill="#F7F8F8"/>
<path d="M273.657 71.2366C273.649 71.2109 273.633 71.1885 273.611 71.1725C273.589 71.1566 273.563 71.1479 273.536 71.1479C273.509 71.1479 273.483 71.1566 273.461 71.1725C273.439 71.1885 273.423 71.2109 273.415 71.2366C273.11 75.9555 273.087 80.6882 273.346 85.4098C273.339 85.4386 273.339 85.4686 273.345 85.4976C273.351 85.5266 273.364 85.5538 273.382 85.5771C273.4 85.6005 273.424 85.6193 273.45 85.6323C273.477 85.6453 273.506 85.6521 273.536 85.6521C273.566 85.6521 273.595 85.6453 273.622 85.6323C273.649 85.6193 273.672 85.6005 273.69 85.5771C273.709 85.5538 273.721 85.5266 273.727 85.4976C273.734 85.4686 273.733 85.4386 273.726 85.4098C273.985 80.6882 273.962 75.9555 273.657 71.2366Z" fill="#F7F8F8"/>
<path d="M239.714 116.375C239.731 115.48 239.847 114.591 240.059 113.721C239.944 114.617 239.829 115.513 239.714 116.375Z" fill="#291B30"/>
<path d="M252.237 104.418C250.683 95.1033 237.849 94.6669 237.849 94.6669C237.055 90.8307 242.235 89.6822 242.235 89.6822L245.262 87.0749C246.475 87.0569 247.687 87.1725 248.876 87.4195C249.626 88.6133 250.218 89.8989 250.637 91.2442C251.548 95.5816 252.083 99.9892 252.237 104.418Z" fill="#291B30"/>
<path d="M250.821 92.2435C240.462 97.1019 229.205 92.6455 229.205 92.6455C230.023 90.3484 229.413 78.6331 229.355 76.4049C229.355 76.4049 229.355 76.3245 229.355 76.29C229.36 76.2059 229.36 76.1215 229.355 76.0374C231.53 71.0067 231.772 61.3129 231.784 57.9821C232.762 57.8328 233.786 57.7524 234.673 57.7064C235.018 61.4277 236.25 70.9722 239.68 70.5588C243.11 70.1453 244.744 61.646 245.342 57.9246C245.974 58.0303 246.614 58.0726 247.253 58.051C247.449 58.051 247.644 58.051 247.84 58.051C247.541 63.1391 250.372 73.8321 250.453 74.1308C250.453 74.2112 250.453 74.303 250.453 74.3834C250.453 74.6591 250.372 74.9462 250.338 75.2563C250.338 75.2563 250.338 75.3827 250.338 75.4516C249.613 81.9294 250.821 92.2435 250.821 92.2435Z" fill="#AB8DA8"/>
</g>
<rect opacity="0.3" width="315" height="150" rx="22" fill="black"/>
<path fill-rule="evenodd" clip-rule="evenodd" d="M146.333 75.0068C146.333 68.5673 151.57 63.3334 158 63.3334C164.43 63.3334 169.667 68.5673 169.667 75.0068C169.667 81.4327 164.43 86.6667 158 86.6667C151.57 86.6667 146.333 81.4327 146.333 75.0068ZM162.279 76.1875C162.403 76.0637 162.561 75.8724 162.595 75.8273C162.775 75.591 162.865 75.2983 162.865 75.0068C162.865 74.6792 162.764 74.3753 162.572 74.1277C162.556 74.112 162.526 74.0786 162.486 74.035C162.411 73.9535 162.303 73.8365 162.2 73.7338C161.277 72.7432 158.867 71.1224 157.606 70.6272C157.414 70.5495 156.93 70.3795 156.671 70.3683C156.423 70.3683 156.187 70.4245 155.962 70.5371C155.68 70.6947 155.455 70.9423 155.331 71.235C155.252 71.4376 155.128 72.0454 155.128 72.0566C155.005 72.7207 154.937 73.8013 154.937 74.9944C154.937 76.1324 155.005 77.1668 155.106 77.8421C155.109 77.8449 155.118 77.8932 155.133 77.9683C155.179 78.1964 155.274 78.6716 155.376 78.8664C155.624 79.3392 156.108 79.6318 156.626 79.6318H156.671C157.009 79.6206 157.718 79.3279 157.718 79.3167C158.912 78.8214 161.266 77.2793 162.212 76.2551L162.279 76.1875Z" fill="#F7F8F8"/>
<defs>
<linearGradient id="paint0_linear_2_3189" x1="315" y1="150" x2="-96.4781" y2="83.1348" gradientUnits="userSpaceOnUse">
<stop stop-color="#92A3FD"/>
<stop offset="1" stop-color="#9DCEFF"/>
</linearGradient>
</defs>
</svg>
