<svg width="66" height="53" viewBox="0 0 66 53" fill="none" xmlns="http://www.w3.org/2000/svg">
<g clip-path="url(#clip0_2_3536)">
<path d="M28.3614 0.791574L24.9572 4.1825L61.4503 40.5329L64.8545 37.142L28.3614 0.791574Z" fill="#858585"/>
<path d="M41.8038 13.7028L37.9412 17.5503L48.5573 28.1248L52.4199 24.2773L41.8038 13.7028Z" fill="#2C3E50"/>
<path d="M61.4308 19.4101L43.6519 37.1196L46.5488 40.0053L64.3278 22.2958L61.4308 19.4101Z" fill="#383838"/>
<path d="M61.44 19.4054L43.661 37.1149L45.1095 38.5577L62.8885 20.8482L61.44 19.4054Z" fill="#1F1F1F"/>
<path d="M63.1675 23.4564L47.7232 38.8403L50.2412 41.3485L65.6855 25.9646L63.1675 23.4564Z" fill="#383838"/>
<path d="M63.1614 23.459L47.7171 38.8429L49.0372 40.1579L64.4815 24.7739L63.1614 23.459Z" fill="#1F1F1F"/>
<path d="M64.0186 27.6186L51.8991 39.6908L53.8732 41.6572L65.9927 29.585L64.0186 27.6186Z" fill="#383838"/>
<path d="M64.0244 27.621L51.9048 39.6931L52.8949 40.6793L65.0145 28.6072L64.0244 27.621Z" fill="#1F1F1F"/>
<path d="M62.7381 32.8281L57.097 38.4471L58.9305 40.2735L64.5716 34.6544L62.7381 32.8281Z" fill="#2B2B2B"/>
<path d="M62.3179 35.6347L62.9575 36.2719L64.3145 34.9202L63.6749 34.2831C63.5873 34.1948 63.483 34.1248 63.368 34.0769C63.253 34.0291 63.1297 34.0045 63.0051 34.0045C62.8805 34.0045 62.7571 34.0291 62.6421 34.0769C62.5271 34.1248 62.4228 34.1948 62.3352 34.2831C62.2428 34.3694 62.1689 34.4735 62.1179 34.589C62.0668 34.7045 62.0397 34.8291 62.038 34.9552C62.0364 35.0814 62.0604 35.2066 62.1085 35.3234C62.1566 35.4402 62.2278 35.5461 62.3179 35.6347Z" fill="#0F0F0F"/>
<path d="M58.5149 39.4229L59.1459 40.06L60.5029 38.7427L59.8633 38.1142C59.7757 38.026 59.6713 37.9559 59.5564 37.9081C59.4414 37.8603 59.318 37.8357 59.1934 37.8357C59.0688 37.8357 58.9455 37.8603 58.8305 37.9081C58.7155 37.9559 58.6112 38.026 58.5236 38.1142C58.3513 38.2883 58.2541 38.5224 58.2525 38.7668C58.2508 39.0112 58.345 39.2466 58.5149 39.4229Z" fill="#0F0F0F"/>
<path d="M60.4337 37.5116L61.0733 38.1487L62.4303 36.797L61.7907 36.1599C61.7031 36.0716 61.5988 36.0016 61.4838 35.9538C61.3688 35.906 61.2454 35.8813 61.1208 35.8813C60.9962 35.8813 60.8729 35.906 60.7579 35.9538C60.6429 36.0016 60.5386 36.0716 60.451 36.1599C60.3586 36.2463 60.2847 36.3503 60.2336 36.4658C60.1826 36.5813 60.1554 36.7059 60.1538 36.8321C60.1522 36.9583 60.1762 37.0835 60.2243 37.2002C60.2723 37.317 60.3436 37.4229 60.4337 37.5116Z" fill="#0F0F0F"/>
<path d="M43.6197 1.65746L25.8407 19.3669L28.7377 22.2526L46.5166 4.54309L43.6197 1.65746Z" fill="#383838"/>
<path d="M45.0651 3.09898L27.2861 20.8085L28.7346 22.2513L46.5136 4.5418L45.0651 3.09898Z" fill="#1F1F1F"/>
<path d="M39.9334 0.308077L24.4891 15.692L27.0071 18.2002L42.4514 2.81626L39.9334 0.308077Z" fill="#383838"/>
<path d="M41.1312 1.50474L25.6869 16.8887L27.007 18.2036L42.4513 2.81971L41.1312 1.50474Z" fill="#1F1F1F"/>
<path d="M36.2928 -0.000627762L24.1733 12.0715L26.1474 14.0379L38.2669 1.96574L36.2928 -0.000627762Z" fill="#383838"/>
<path d="M37.2858 0.983261L25.1663 13.0554L26.1564 14.0416L38.2759 1.96949L37.2858 0.983261Z" fill="#1F1F1F"/>
<path d="M31.2009 1.42671L25.5598 7.04578L27.3933 8.87212L33.0344 3.25306L31.2009 1.42671Z" fill="#2B2B2B"/>
<path d="M30.2514 3.66767L29.6118 3.03057L30.9429 1.72192L31.5825 2.35903C31.7572 2.53751 31.855 2.77695 31.855 3.02626C31.855 3.27557 31.7572 3.51501 31.5825 3.6935C31.4004 3.86158 31.1599 3.95279 30.9117 3.94798C30.6635 3.94316 30.4268 3.84269 30.2514 3.66767Z" fill="#0F0F0F"/>
<path d="M26.4138 7.45583L25.7742 6.81873L27.1312 5.46704L27.7708 6.10414C27.8594 6.19142 27.9297 6.29533 27.9777 6.40986C28.0257 6.52439 28.0505 6.64727 28.0505 6.77138C28.0505 6.89549 28.0257 7.01837 27.9777 7.1329C27.9297 7.24743 27.8594 7.35134 27.7708 7.43861C27.6841 7.53062 27.5796 7.60425 27.4637 7.65511C27.3477 7.70597 27.2227 7.73301 27.096 7.73462C26.9693 7.73623 26.8436 7.71237 26.7264 7.66446C26.6092 7.61656 26.5029 7.5456 26.4138 7.45583Z" fill="#0F0F0F"/>
<path d="M28.3413 5.54458L27.7017 4.90748L29.0587 3.55579L29.6983 4.19289C29.873 4.37137 29.9708 4.61081 29.9708 4.86012C29.9708 5.10943 29.873 5.34888 29.6983 5.52736C29.6103 5.61727 29.5054 5.68904 29.3896 5.73856C29.2738 5.78809 29.1494 5.8144 29.0233 5.816C28.8973 5.8176 28.7722 5.79445 28.6552 5.74788C28.5382 5.70131 28.4315 5.63223 28.3413 5.54458Z" fill="#0F0F0F"/>
<path d="M4.19042 12.1306L0.786194 15.5215L37.2792 51.8719L40.6835 48.481L4.19042 12.1306Z" fill="#858585"/>
<path d="M17.6302 25.0358L13.7676 28.8833L24.3837 39.4579L28.2463 35.6103L17.6302 25.0358Z" fill="#2C3E50"/>
<path d="M37.2572 30.7431L19.4783 48.4526L22.3752 51.3383L40.1542 33.6288L37.2572 30.7431Z" fill="#383838"/>
<path d="M37.2603 30.7444L19.4813 48.4539L20.9298 49.8967L38.7088 32.1872L37.2603 30.7444Z" fill="#1F1F1F"/>
<path d="M38.9964 34.7954L23.5521 50.1793L26.0701 52.6875L41.5145 37.3036L38.9964 34.7954Z" fill="#383838"/>
<path d="M38.994 34.7979L23.5497 50.1819L24.8698 51.4969L40.3141 36.1129L38.994 34.7979Z" fill="#1F1F1F"/>
<path d="M39.8476 38.9576L27.728 51.0298L29.7021 52.9962L41.8216 40.924L39.8476 38.9576Z" fill="#383838"/>
<path d="M39.8533 38.9601L27.7338 51.0322L28.7239 52.0185L40.8434 39.9463L39.8533 38.9601Z" fill="#1F1F1F"/>
<path d="M38.5645 44.1818L32.9234 49.8009L34.7569 51.6273L40.398 46.0082L38.5645 44.1818Z" fill="#2B2B2B"/>
<path d="M38.1428 46.9734L38.7824 47.6105L40.1393 46.2588L39.4997 45.6304C39.4121 45.5421 39.3078 45.472 39.1928 45.4242C39.0778 45.3764 38.9545 45.3518 38.8299 45.3518C38.7053 45.3518 38.5819 45.3764 38.467 45.4242C38.352 45.472 38.2477 45.5421 38.16 45.6304C38.069 45.7166 37.9962 45.8201 37.9459 45.9348C37.8957 46.0496 37.8689 46.1731 37.8673 46.2983C37.8657 46.4234 37.8893 46.5476 37.9366 46.6636C37.9839 46.7795 38.054 46.8849 38.1428 46.9734Z" fill="#0F0F0F"/>
<path d="M34.3397 50.7959L34.9793 51.4244L36.3017 50.0469L35.6707 49.4184C35.5824 49.3299 35.4773 49.2597 35.3616 49.2118C35.2459 49.1638 35.1219 49.1392 34.9966 49.1392C34.8713 49.1392 34.7472 49.1638 34.6315 49.2118C34.5158 49.2597 34.4107 49.3299 34.3224 49.4184C34.2293 49.5081 34.1556 49.6158 34.1058 49.7349C34.056 49.854 34.0312 49.9819 34.0328 50.1109C34.0344 50.2399 34.0625 50.3672 34.1152 50.485C34.168 50.6028 34.2444 50.7086 34.3397 50.7959Z" fill="#0F0F0F"/>
<path d="M36.3017 48.8502L36.9413 49.4873L38.2983 48.1356L37.6587 47.4985C37.5711 47.4103 37.4667 47.3402 37.3518 47.2924C37.2368 47.2446 37.1134 47.22 36.9888 47.22C36.8642 47.22 36.7409 47.2446 36.6259 47.2924C36.5109 47.3402 36.4066 47.4103 36.319 47.4985C36.2266 47.5849 36.1527 47.6889 36.1016 47.8044C36.0506 47.9199 36.0234 48.0445 36.0218 48.1707C36.0202 48.2969 36.0441 48.4221 36.0922 48.5389C36.1403 48.6556 36.2116 48.7615 36.3017 48.8502Z" fill="#0F0F0F"/>
<path d="M19.44 13.005L1.66101 30.7145L4.55796 33.6001L22.3369 15.8906L19.44 13.005Z" fill="#383838"/>
<path d="M20.8941 14.438L3.11511 32.1475L4.56359 33.5903L22.3426 15.8808L20.8941 14.438Z" fill="#1F1F1F"/>
<path d="M15.7537 11.6471L0.309387 27.031L2.82741 29.5392L18.2717 14.1553L15.7537 11.6471Z" fill="#383838"/>
<path d="M16.9515 12.8524L1.5072 28.2363L2.82733 29.5513L18.2716 14.1674L16.9515 12.8524Z" fill="#1F1F1F"/>
<path d="M12.1217 11.3385L0.00219727 23.4106L1.97628 25.377L14.0958 13.3049L12.1217 11.3385Z" fill="#383838"/>
<path d="M13.106 12.3222L0.986511 24.3944L1.97661 25.3806L14.0961 13.3085L13.106 12.3222Z" fill="#1F1F1F"/>
<path d="M7.02985 12.7658L1.38873 18.3849L3.22225 20.2112L8.86336 14.5922L7.02985 12.7658Z" fill="#2B2B2B"/>
<path d="M6.05025 15.0064L5.41064 14.3693L6.76764 13.0176L7.40724 13.6547C7.49583 13.742 7.56616 13.8459 7.61416 13.9604C7.66216 14.0749 7.68687 14.1978 7.68687 14.3219C7.68687 14.446 7.66216 14.5689 7.61416 14.6834C7.56616 14.798 7.49583 14.9019 7.40724 14.9892C7.32052 15.0812 7.21606 15.1548 7.10011 15.2056C6.98416 15.2565 6.8591 15.2836 6.73242 15.2852C6.60573 15.2868 6.48003 15.2629 6.36281 15.215C6.2456 15.1671 6.13929 15.0961 6.05025 15.0064Z" fill="#0F0F0F"/>
<path d="M2.23856 18.7945L1.6076 18.166L2.9646 16.8143L3.59556 17.4428C3.68441 17.5308 3.75492 17.6355 3.80304 17.7507C3.85115 17.866 3.87592 17.9895 3.87592 18.1144C3.87592 18.2392 3.85115 18.3628 3.80304 18.478C3.75492 18.5933 3.68441 18.6979 3.59556 18.7859C3.50763 18.8763 3.4025 18.9483 3.28631 18.9977C3.17013 19.0472 3.04521 19.073 2.91887 19.0738C2.79253 19.0746 2.6673 19.0504 2.55049 19.0024C2.43368 18.9544 2.32764 18.8838 2.23856 18.7945Z" fill="#0F0F0F"/>
<path d="M4.16603 16.8832L3.52643 16.2461L4.88342 14.8944L5.52302 15.5315C5.61161 15.6188 5.68194 15.7227 5.72994 15.8372C5.77794 15.9518 5.80266 16.0746 5.80266 16.1987C5.80266 16.3229 5.77794 16.4457 5.72994 16.5603C5.68194 16.6748 5.61161 16.7787 5.52302 16.866C5.4363 16.958 5.33184 17.0316 5.21589 17.0825C5.09994 17.1333 4.97489 17.1604 4.8482 17.162C4.72152 17.1636 4.59581 17.1397 4.4786 17.0918C4.36138 17.0439 4.25508 16.973 4.16603 16.8832Z" fill="#0F0F0F"/>
</g>
<defs>
<clipPath id="clip0_2_3536">
<rect width="66" height="53" fill="white"/>
</clipPath>
</defs>
</svg>
