<svg width="14" height="14" viewBox="0 0 14 14" fill="none" xmlns="http://www.w3.org/2000/svg">
<g clip-path="url(#clip0_2_3406)">
<path d="M6.99929 14.0002C3.97015 14.0002 1.50574 11.5298 1.50574 8.4933C1.50574 6.13173 2.57898 4.02599 4.15475 2.29661C5.45076 0.87424 6.73343 0.0910057 6.78737 0.0583846C7.07169 -0.113608 7.45328 0.120728 7.45328 0.437642V4.21012L9.38334 2.40874C9.55087 2.25237 9.8161 2.26319 9.9697 2.43685C10.7032 3.26605 11.2872 4.14168 11.7052 5.03946C14.0369 10.0468 10.8227 14.0002 6.99929 14.0002Z" fill="url(#paint0_linear_2_3406)"/>
<path d="M11.7053 5.03945C11.2873 4.14167 10.7033 3.26604 9.9698 2.43684C9.81621 2.26316 9.55097 2.25236 9.38344 2.40873L7.45338 4.21011V0.437633C7.45338 0.199031 7.23712 0.00732422 7.00891 0.000488281V14.0001C10.8281 13.9936 14.0351 10.0426 11.7053 5.03945Z" fill="url(#paint1_linear_2_3406)"/>
<path d="M6.99935 14.0001C5.84818 14.0001 4.91165 13.0613 4.91165 11.9074C4.91165 10.0427 6.72203 8.93862 6.79909 8.89252C6.93416 8.81177 7.10328 8.81555 7.23464 8.90209C7.31028 8.95197 9.08702 10.1437 9.08702 11.9074C9.08705 13.0613 8.15053 14.0001 6.99935 14.0001Z" fill="#FEC356"/>
<path d="M9.08709 11.9074C9.08709 10.1438 7.31032 8.95202 7.23472 8.90215C7.1663 8.85706 7.08766 8.83466 7.00891 8.83472V13.9999C8.15568 13.9948 9.08709 13.0581 9.08709 11.9074Z" fill="#FEB020"/>
<g clip-path="url(#clip1_2_3406)">
<path d="M6.99926 14C3.97012 14 1.50571 11.5296 1.50571 8.49306C1.50571 6.13149 2.57895 4.02575 4.15471 2.29636C5.45073 0.873996 6.73339 0.0907615 6.78734 0.0581404C7.07166 -0.113852 7.45324 0.120484 7.45324 0.437398V4.20988L9.3833 2.4085C9.55084 2.25212 9.81607 2.26295 9.96966 2.43661C10.7032 3.26581 11.2871 4.14144 11.7052 5.03921C14.0369 10.0465 10.8226 14 6.99926 14Z" fill="#FE4E33"/>
<path d="M11.7052 5.03921C11.2871 4.14143 10.7032 3.2658 9.96965 2.4366C9.81606 2.26291 9.55082 2.25211 9.38329 2.40849L7.45323 4.20987V0.437389C7.45323 0.198787 7.23697 0.00708008 7.00876 0.000244141V13.9999C10.8279 13.9934 14.0349 10.0423 11.7052 5.03921Z" fill="#FE1600"/>
<path d="M6.99929 13.9999C5.84812 13.9999 4.91159 13.061 4.91159 11.9071C4.91159 10.0425 6.72197 8.93838 6.79902 8.89228C6.9341 8.81153 7.10322 8.8153 7.23458 8.90185C7.31022 8.95172 9.08696 10.1434 9.08696 11.9071C9.08699 13.061 8.15046 13.9999 6.99929 13.9999Z" fill="#FEC356"/>
<path d="M9.08694 11.9072C9.08694 10.1435 7.31017 8.95178 7.23456 8.9019C7.16615 8.85681 7.08751 8.83442 7.00876 8.83447V13.9997C8.15553 13.9945 9.08694 13.0579 9.08694 11.9072Z" fill="#FEB020"/>
</g>
</g>
<defs>
<linearGradient id="paint0_linear_2_3406" x1="12.4943" y1="14.0002" x2="-2.18474" y2="13.1087" gradientUnits="userSpaceOnUse">
<stop stop-color="#F9889C"/>
<stop offset="1" stop-color="#FEAA99"/>
</linearGradient>
<linearGradient id="paint1_linear_2_3406" x1="12.4944" y1="14.0001" x2="5.14635" y2="13.7773" gradientUnits="userSpaceOnUse">
<stop stop-color="#F9889C"/>
<stop offset="1" stop-color="#FEAA99"/>
</linearGradient>
<clipPath id="clip0_2_3406">
<rect width="14" height="14" fill="white"/>
</clipPath>
<clipPath id="clip1_2_3406">
<rect width="14" height="14" fill="white"/>
</clipPath>
</defs>
</svg>
