<svg width="16" height="16" viewBox="0 0 16 16" fill="none" xmlns="http://www.w3.org/2000/svg">
<path fill-rule="evenodd" clip-rule="evenodd" d="M10.5665 1.6671C10.9872 1.6671 11.4072 1.72643 11.8065 1.86043C14.2672 2.66043 15.1539 5.36043 14.4132 7.72043C13.9932 8.92643 13.3065 10.0271 12.4072 10.9264C11.1199 12.1731 9.7072 13.2798 8.18653 14.2331L8.01987 14.3338L7.84653 14.2264C6.32054 13.2798 4.89987 12.1731 3.60054 10.9198C2.7072 10.0204 2.01987 8.92643 1.5932 7.72043C0.839869 5.36043 1.72654 2.66043 4.21387 1.84643C4.4072 1.77977 4.60654 1.7331 4.80654 1.7071H4.88654C5.07387 1.67977 5.25987 1.6671 5.44654 1.6671H5.51987C5.93987 1.67977 6.34653 1.7531 6.74053 1.8871H6.77987C6.80653 1.89977 6.82653 1.91377 6.83987 1.92643C6.9872 1.97377 7.12653 2.0271 7.25987 2.10043L7.5132 2.21377C7.57442 2.24641 7.64313 2.2963 7.70251 2.33941C7.74013 2.36673 7.77401 2.39133 7.79987 2.4071C7.81075 2.41352 7.82181 2.41997 7.83295 2.42648C7.89012 2.45985 7.94966 2.49461 7.99987 2.5331C8.74053 1.9671 9.63987 1.66043 10.5665 1.6671ZM12.3399 6.4671C12.6132 6.45977 12.8465 6.24043 12.8665 5.95976V5.88043C12.8865 4.94643 12.3205 4.10043 11.4599 3.77377C11.1865 3.67977 10.8865 3.8271 10.7865 4.1071C10.6932 4.3871 10.8399 4.69377 11.1199 4.7931C11.5472 4.9531 11.8332 5.37377 11.8332 5.83977V5.86043C11.8205 6.0131 11.8665 6.16043 11.9599 6.27377C12.0532 6.3871 12.1932 6.4531 12.3399 6.4671Z" fill="#FF0000"/>
</svg>
