<svg width="92" height="106" viewBox="0 0 92 106" fill="none" xmlns="http://www.w3.org/2000/svg">
<circle opacity="0.5" cx="46" cy="52" r="46" fill="white"/>
<path d="M44.8484 105.934C43.1703 105.937 41.4967 105.758 39.8565 105.403C36.9896 104.812 34.2891 103.59 31.9494 101.827C29.6098 100.063 27.6892 97.8012 26.3261 95.2035C25.2445 92.7738 24.441 90.2288 23.931 87.6175L23.8133 87.1202C22.1325 79.9388 20.0147 72.3443 16.1069 65.4832C15.4766 64.379 14.7875 63.2748 14.1235 62.2127C12.5173 59.808 11.1574 57.2466 10.0644 54.5677C8.38363 49.974 8.69458 45.4055 10.9889 42.3964C11.2911 41.9288 11.6843 41.5274 12.145 41.216C12.6056 40.9046 13.1243 40.6896 13.6697 40.5841C14.0021 40.5438 14.3392 40.5724 14.6601 40.6681C14.981 40.7638 15.279 40.9246 15.5354 41.1404C15.7355 41.3004 15.8995 41.5011 16.0168 41.7291C16.1341 41.9572 16.2021 42.2075 16.2161 42.4638H15.6699C15.6567 42.2851 15.6066 42.1111 15.5227 41.9529C15.4387 41.7947 15.3229 41.6558 15.1824 41.545C14.9829 41.3788 14.7522 41.2544 14.5039 41.1791C14.2557 41.1039 13.9949 41.0792 13.737 41.1067C12.7902 41.3232 11.9627 41.8966 11.4259 42.7082C9.24924 45.5825 8.90468 49.9402 10.5855 54.357C11.6692 57.0168 13.0208 59.5586 14.6194 61.943C15.2833 63.0135 15.9724 64.1177 16.6111 65.2303C20.5274 72.142 22.6704 79.7786 24.3512 87.0022L24.4688 87.4995C24.9681 90.0676 25.7576 92.5703 26.8219 94.9591C28.1466 97.4834 30.0135 99.6813 32.2879 101.394C34.5624 103.107 37.1876 104.292 39.9741 104.863C45.6088 105.983 51.4548 105.188 56.5888 102.604C58.6444 101.685 60.5004 100.371 62.0514 98.7352C63.6291 96.8199 64.8452 94.6319 65.6399 92.2787C67.0433 88.5868 68.1611 84.6927 69.1695 80.9418C70.7243 75.345 72.3294 69.5543 75.0523 64.3115C75.8927 62.7775 76.7331 61.2687 77.6239 59.8105C79.2919 57.1934 80.6994 54.4182 81.8259 51.5249C82.7924 48.777 82.8344 46.4675 81.9604 44.7817C81.6535 44.2196 81.2272 43.7319 80.7117 43.3532C80.1962 42.9745 79.6039 42.714 78.977 42.5902C78.5393 42.4864 78.0835 42.4864 77.6458 42.5903C77.2081 42.6942 76.8006 42.8991 76.4558 43.1887L76.0944 42.7757C76.4998 42.4277 76.9807 42.1795 77.4986 42.0507C78.0165 41.9219 78.5573 41.9162 79.0778 42.0339C79.7892 42.1812 80.4594 42.4842 81.0405 42.9213C81.6216 43.3584 82.0992 43.9189 82.4394 44.5626C83.389 46.4169 83.347 48.8276 82.3301 51.7272C81.1919 54.657 79.7616 57.464 78.0609 60.1055C77.2205 61.5637 76.2961 63.0641 75.5397 64.5813C72.8505 69.7735 71.2537 75.5389 69.7074 81.1019C68.6569 84.8781 67.5728 88.7807 66.1525 92.4894C65.34 94.9076 64.0924 97.156 62.4716 99.123C60.8696 100.811 58.954 102.168 56.8325 103.118C53.0973 104.942 49.0025 105.904 44.8484 105.934Z" fill="url(#paint0_linear_0_1)"/>
<path d="M51.0167 7.78688C51.4513 7.0951 51.7002 6.30245 51.7395 5.48578C51.7869 5.11901 51.7535 4.74626 51.6417 4.39382C51.5299 4.04138 51.3424 3.71783 51.0924 3.44598C50.8823 3.24369 50.6217 3.08354 50.4284 2.86439C50.2352 2.64524 50.1427 2.41766 49.983 2.20693C49.8099 1.98086 49.5872 1.79786 49.3321 1.67214C49.0771 1.54643 48.7965 1.48137 48.5123 1.48205C47.9325 1.48205 47.319 1.75177 46.8315 1.48205C46.529 1.33032 46.3273 1.02688 45.9911 0.858305C45.6748 0.696803 45.3118 0.652047 44.9659 0.731872C44.6636 0.837592 44.3445 0.886178 44.0246 0.875163C43.5708 0.807732 43.2599 0.403144 42.8565 0.175563C42.6491 0.0692302 42.4211 0.00967881 42.1883 0.00108448C41.9556 -0.00750984 41.7238 0.035061 41.5092 0.125812C41.2946 0.216563 41.1024 0.353297 40.9461 0.526426C40.7897 0.699556 40.6731 0.90489 40.6042 1.12803C40.5494 1.34088 40.5494 1.56421 40.6042 1.77706C40.6967 2.29122 41.0496 2.70424 41.0748 3.2184C41.1 3.73257 40.7891 4.1793 41.0748 4.63446C41.3606 5.08962 41.7808 5.10648 41.9825 5.53636C42.2514 6.11795 41.9825 6.87655 42.2262 7.50029C42.3522 7.89645 42.4195 8.46119 42.7892 8.71406C43.3019 9.06807 44.4196 8.77306 45.0331 8.71406L47.4114 8.52019C48.4619 8.41905 49.7561 8.52019 50.7058 7.9976C50.8204 7.9453 50.9256 7.87407 51.0167 7.78688Z" fill="#3B2645"/>
<path d="M42.9491 7.41582C42.8657 7.30089 42.7563 7.20737 42.63 7.14289C42.5037 7.07841 42.3639 7.0448 42.2222 7.0448C42.0804 7.0448 41.9407 7.07841 41.8144 7.14289C41.688 7.20737 41.5787 7.30089 41.4952 7.41582C40.7641 8.25871 41.9995 9.9445 42.9491 10.0456C43.0044 9.16991 43.0044 8.29155 42.9491 7.41582Z" fill="#E0855C"/>
<path d="M54.7568 21.5347C54.5353 22.9545 54.2379 24.3613 53.866 25.7491C53.8071 26.0104 53.7567 26.2633 53.7231 26.5077C53.6895 26.7522 53.6559 26.9376 53.6138 27.2495C53.6138 27.3085 53.6138 27.3759 53.6138 27.4349C53.6138 27.6372 53.555 27.8479 53.5298 28.0755L52.4709 37.9795C45.8906 39.7917 39.0245 37.9795 39.0245 37.9795C39.0245 37.9795 39.0245 37.8531 39.0245 37.6086C38.9153 36.4876 38.5791 32.9221 38.243 28.9016C38.243 28.9016 38.243 28.8426 38.243 28.8173C38.2464 28.7555 38.2464 28.6936 38.243 28.6318C38.1001 26.946 37.9657 25.1591 37.8564 23.4565C37.6547 20.4979 37.5286 17.767 37.5539 16.0727C37.5539 15.449 39.0077 15.5164 39.9994 15.3816C40.7306 15.2804 41.4785 15.213 42.1256 15.1793C42.7727 15.1456 43.2601 15.1287 43.5879 15.1287H43.9577C43.9577 15.1287 44.0417 14.1594 44.0417 14.1509L44.2686 11.774C44.379 11.8025 44.4914 11.8222 44.6048 11.833C44.8128 11.8721 45.0235 11.8946 45.2351 11.9004C45.5124 11.9004 45.7729 11.9004 46.0166 11.9004L46.378 11.8583H46.5881C46.8234 11.8161 47.0503 11.7656 47.2604 11.7066C47.4705 11.6476 47.5378 11.6223 47.6722 11.5801C48.2862 11.3828 48.8691 11.099 49.4034 10.7372L49.4791 10.6867L49.622 10.5771L49.7228 10.5012C49.7228 10.6192 49.7228 10.6698 49.7228 10.7204C49.6556 11.2767 49.5799 11.9847 49.5463 12.6843C49.5463 13.1732 49.4959 13.6536 49.4791 14.0667C49.4623 14.4797 49.3278 15.0781 49.622 15.2888C49.7269 15.348 49.8403 15.3906 49.9581 15.4153C50.4194 15.4883 50.8863 15.5194 51.3532 15.508C51.496 15.508 51.6389 15.508 51.7818 15.508C52.14 15.4871 52.4992 15.4871 52.8575 15.508C53.1079 15.5073 53.3558 15.5569 53.5868 15.6539C53.8177 15.7509 54.027 15.8933 54.2021 16.0727C54.4199 16.389 54.5583 16.7533 54.6055 17.1348L54.7063 17.826C54.8663 19.0561 54.8832 20.3006 54.7568 21.5347Z" fill="#FFEDE5"/>
<path d="M49.689 10.4419C49.5754 11.0451 49.3299 11.6156 48.9702 12.1123C48.6105 12.609 48.1455 13.0196 47.6088 13.3146C47.072 13.6095 46.4767 13.7816 45.8657 13.8183C45.2547 13.855 44.6433 13.7555 44.0752 13.5269L44.2349 11.7821C45.1866 11.9662 46.1667 11.9418 47.1081 11.7105C48.0496 11.4791 48.93 11.0464 49.689 10.4419Z" fill="#E0855C"/>
<path d="M43.1174 4.88761C42.63 5.39335 42.5879 6.52282 42.5543 7.7703C42.4283 11.5633 43.5628 12.7434 45.4873 12.9541C47.4118 13.1648 49.4372 12.4146 49.849 8.90821C50.0591 7.14656 50.2776 5.53664 49.6389 4.76961C48.7228 3.64013 44.5965 3.33669 43.1174 4.88761Z" fill="#FFEDE5"/>
<path d="M49.5633 8.39412C49.5633 8.39412 50.1516 6.82634 51.0844 7.6608C52.0173 8.49526 50.7315 10.8638 49.3028 10.6868C49.3196 10.6868 49.1263 8.93357 49.5633 8.39412Z" fill="#FFEDE5"/>
<path d="M50.6725 8.37699C50.4519 8.44611 50.2543 8.57435 50.101 8.74786C49.9274 8.89327 49.787 9.07435 49.6892 9.27888C49.6892 9.33788 49.748 9.38003 49.7901 9.33788C49.9085 9.22025 50.0207 9.09646 50.1262 8.96701C50.2029 9.05179 50.2977 9.11807 50.4035 9.16088C50.4876 9.16088 50.5548 9.08502 50.5212 9.01758C50.463 8.92832 50.3854 8.85341 50.2943 8.79843C50.4512 8.69767 50.6001 8.58496 50.7397 8.46128C50.7423 8.45113 50.7425 8.44052 50.7404 8.43028C50.7382 8.42003 50.7336 8.41044 50.7271 8.40226C50.7206 8.39408 50.7123 8.38754 50.7028 8.38315C50.6933 8.37876 50.6829 8.37665 50.6725 8.37699Z" fill="#E0855C"/>
<path d="M44.2097 7.6857C44.2097 7.6857 43.882 7.80371 43.9324 7.22211C43.9828 6.64052 44.2097 6.77538 44.2097 6.77538C44.2097 6.77538 44.4366 6.77538 44.403 7.23054C44.3694 7.6857 44.2097 7.6857 44.2097 7.6857Z" fill="#3B2645"/>
<path d="M47.5126 7.6857C47.5126 7.6857 47.1933 7.80371 47.2437 7.22211C47.2941 6.64052 47.5126 6.77538 47.5126 6.77538C47.5126 6.77538 47.7395 6.77538 47.7059 7.23054C47.6723 7.6857 47.5126 7.6857 47.5126 7.6857Z" fill="#3B2645"/>
<path d="M44.5628 5.92417C44.4307 5.84918 44.2785 5.81778 44.1276 5.83443C43.9768 5.85107 43.835 5.91491 43.7224 6.01689C43.7167 6.02842 43.714 6.04121 43.7146 6.05406C43.7151 6.06692 43.719 6.07941 43.7257 6.09037C43.7324 6.10133 43.7418 6.11039 43.753 6.11671C43.7642 6.12302 43.7768 6.12638 43.7896 6.12647C43.9072 6.12647 44.0081 6.05904 44.1257 6.05061C44.249 6.04472 44.3721 6.06482 44.4871 6.10961C44.5964 6.14333 44.672 5.97475 44.5628 5.92417Z" fill="#3B2645"/>
<path d="M48.0084 6.21101C47.8739 5.87385 47.294 5.84856 47.0419 6.05086C47.0297 6.06031 47.0198 6.07244 47.013 6.08632C47.0062 6.1002 47.0027 6.11546 47.0027 6.13093C47.0027 6.1464 47.0062 6.16166 47.013 6.17554C47.0198 6.18942 47.0297 6.20156 47.0419 6.21101C47.1929 6.22363 47.3447 6.22363 47.4957 6.21101C47.6179 6.23075 47.7368 6.26763 47.8487 6.32058C47.8632 6.34182 47.8855 6.35641 47.9107 6.36116C47.9359 6.3659 47.962 6.3604 47.9832 6.34587C48.0043 6.33134 48.0189 6.30897 48.0236 6.28367C48.0283 6.25838 48.0229 6.23224 48.0084 6.21101Z" fill="#3B2645"/>
<path d="M44.8737 10.3999C45.5826 10.4931 46.3031 10.3697 46.941 10.0459C46.8456 10.2708 46.7044 10.4732 46.5264 10.6402C46.3483 10.8071 46.1375 10.9349 45.9073 11.0152C45.1762 11.2175 44.8737 10.3999 44.8737 10.3999Z" fill="white"/>
<path d="M40.6295 16.0642C42.5624 17.4212 42.7389 20.0595 41.7976 22.1667C41.1589 23.5743 39.974 24.5605 39.2765 25.8923C38.5496 27.1839 37.7056 28.4057 36.7553 29.542C34.6711 32.1971 32.6877 34.5994 31.923 35.5097C29.2925 38.6621 23.7627 42.826 21.771 44.2758C21.3172 44.6129 21.0483 44.7983 21.0483 44.7983C21.0483 44.7983 19.1406 43.7953 19.6448 41.9409C19.6448 41.9409 27.2084 33.8829 28.3261 32.2393C29.5613 30.1029 30.6834 27.9027 31.6877 25.6478C32.9763 23.1473 34.3181 20.6804 35.7132 18.2473C36.3519 17.1262 37.1671 15.7186 38.5705 15.4657C39.1369 15.4019 39.7087 15.5231 40.2009 15.8113C40.3496 15.8852 40.4928 15.9697 40.6295 16.0642Z" fill="#FFEDE5"/>
<path d="M19.645 41.9496C19.852 41.9336 20.0599 41.9336 20.2669 41.9496C20.2669 41.9496 22.0821 42.9611 21.7712 44.276C21.7712 44.276 21.5779 44.453 21.2753 44.7227C20.9728 44.9924 20.645 45.3127 20.25 45.7173C19.8551 46.1219 18.9558 47.4031 18.5693 47.2935C18.4792 47.2602 18.4004 47.2017 18.3423 47.125L17.5608 46.2821C17.1238 45.7932 16.3926 44.9671 16.9473 44.3181C16.5439 44.5626 15.6027 45.161 15.1404 44.8744L14.9471 44.5626C14.9471 44.5626 16.3338 43.5258 16.9053 43.0116C17.6762 42.3634 18.6397 41.9898 19.645 41.9496Z" fill="#FFEDE5"/>
<path d="M42.924 28.9774C42.9212 29.0224 42.9212 29.0675 42.924 29.1125C42.924 29.1125 42.9998 29.1125 42.983 29.1125L42.924 28.9774Z" fill="#D6BED3"/>
<path d="M46.0417 56.2955C45.2685 62.5076 44.3609 67.9105 44.3609 67.9105C44.4869 69.4109 44.5458 71.0376 44.5458 72.7066C44.5458 75.977 44.3273 79.4497 44.0499 82.5094C43.697 86.412 43.2095 89.733 42.9994 91.4019V91.6126C43.3104 102.68 40.1673 104.146 38.6966 101.727C37.2259 99.3082 38.6966 92.1774 38.6966 92.1774C38.7013 92.1128 38.7013 92.048 38.6966 91.9835C38.0779 88.6718 37.6653 85.3247 37.4612 81.9615C36.957 73.8192 37.8226 68.2477 37.7218 67.2362C35.9653 49.5355 38.4193 39.7748 38.4193 39.7748C38.8024 38.3565 39.4941 37.041 40.4446 35.9228C42.2347 33.9841 44.3861 34.473 45.7391 36.8415C45.8814 37.0844 46.0105 37.3348 46.1257 37.5917C46.677 38.9521 46.9898 40.3979 47.0502 41.8652C47.1846 45.5317 46.672 51.1875 46.0417 56.2955Z" fill="#FFEDE5"/>
<path d="M54.7232 81.5316C54.5277 84.9649 54.1179 88.3825 53.4962 91.7643L53.4206 92.1774C53.4206 92.1774 54.8912 99.3335 53.4206 101.727C51.9499 104.121 48.8404 102.722 49.1177 91.7643C49.1177 91.7138 49.1177 91.6632 49.1177 91.6211C48.8824 90.0364 48.4118 86.6058 48.042 82.5431C47.7563 79.4581 47.5378 76.0023 47.5378 72.7318C47.5378 71.0461 47.605 69.4277 47.7311 67.9189C47.7311 67.9189 46.7982 62.516 46.0503 56.3123C45.42 51.1959 44.8989 45.5401 45.1174 41.9073C45.1803 40.4395 45.4959 38.9937 46.0503 37.6338C46.1604 37.369 46.2896 37.1127 46.4369 36.8668C47.9916 34.1611 50.58 33.9251 52.4877 36.9764C53.0342 37.8608 53.4636 38.8129 53.7651 39.8085C53.7651 39.8085 56.2191 49.5439 54.4626 67.2699C54.3366 68.2645 55.1686 73.6422 54.7232 81.5316Z" fill="#FFEDE5"/>
<path d="M19.4431 47.4199C19.6106 47.6143 19.8185 47.7694 20.0523 47.8743C20.2862 47.9791 20.5401 48.0312 20.7962 48.0268C20.9135 47.9994 21.024 47.9484 21.1212 47.877C21.2183 47.8055 21.2999 47.7151 21.3612 47.6111C21.4225 47.5071 21.4621 47.3917 21.4776 47.2719C21.4932 47.1521 21.4844 47.0304 21.4517 46.9141C21.354 46.6577 21.1953 46.4292 20.9895 46.2483C19.7205 44.9839 18.4179 43.7196 17.0984 42.548C16.8779 42.2987 16.5833 42.1273 16.258 42.0591C15.9556 42.0589 15.6629 42.1665 15.432 42.3625C15.2012 42.5585 15.0472 42.8303 14.9974 43.1296C14.9974 43.669 15.4597 43.8713 15.8378 44.1747C17.0312 45.2368 18.2246 46.3494 19.4431 47.4199Z" fill="#3B2645"/>
<path d="M19.2582 45.9276C19.3105 45.8735 19.3531 45.8108 19.3843 45.7422C19.4056 45.6551 19.4068 45.5643 19.3879 45.4767C19.3689 45.389 19.3303 45.3069 19.275 45.2365C18.9641 44.7223 18.3254 43.8963 17.6951 43.8204C17.487 43.8098 17.2797 43.854 17.094 43.9486C16.9082 44.0433 16.7503 44.185 16.6362 44.3598C16.4476 44.632 16.3276 44.946 16.2866 45.2748C16.2457 45.6037 16.2849 45.9376 16.4009 46.2479C16.5853 46.8062 16.9642 47.279 17.4682 47.5797C17.7196 47.6866 18.0025 47.6919 18.2578 47.5945C18.5131 47.4971 18.7209 47.3046 18.838 47.0571C18.9641 46.7452 18.922 46.3659 19.1237 46.1046C19.162 46.0409 19.2071 45.9815 19.2582 45.9276Z" fill="#FFEDE5"/>
<path d="M51.4204 16.0644C49.4791 17.4214 49.3026 20.0597 50.2522 22.1669C50.8825 23.5746 52.0675 24.5607 52.7734 25.8925C53.5062 27.1804 54.3498 28.4016 55.2946 29.5422C57.3788 32.1973 59.3705 34.5996 60.1269 35.5099C62.7657 38.6792 68.2955 42.8262 70.2873 44.276L71.0184 44.7986C71.0184 44.7986 72.9177 43.7955 72.4135 41.9412C72.4135 41.9412 64.8499 33.8831 63.7322 32.2395C62.4936 30.1049 61.3714 27.9046 60.3706 25.6481C59.0764 23.1194 57.7402 20.6834 56.3367 18.2475C55.698 17.1264 54.8912 15.7188 53.4793 15.4659C52.913 15.4027 52.3414 15.5239 51.849 15.8115C51.7001 15.8851 51.5568 15.9696 51.4204 16.0644Z" fill="#FFEDE5"/>
<path d="M72.4052 41.9495C72.1954 41.9337 71.9847 41.9337 71.7749 41.9495C71.7749 41.9495 69.9596 42.961 70.2706 44.2759C70.2706 44.2759 70.4723 44.4529 70.7664 44.7226C71.0605 44.9923 71.4051 45.3126 71.7917 45.7172C72.1783 46.1218 73.0943 47.403 73.4725 47.2934C73.5613 47.2578 73.6395 47.1997 73.6994 47.1249L74.4726 46.282C74.918 45.7931 75.6407 44.967 75.0944 44.318C75.4894 44.5625 76.4307 45.1609 76.9013 44.8743L77.061 44.5625C77.061 44.5625 75.6743 43.5257 75.0944 43.0115C74.3383 42.3714 73.3934 41.9982 72.4052 41.9495Z" fill="#FFEDE5"/>
<path d="M72.5985 47.4199C72.4311 47.6143 72.2231 47.7694 71.9893 47.8743C71.7555 47.9791 71.5015 48.0312 71.2455 48.0267C71.1266 48.0013 71.0143 47.9517 70.9153 47.8811C70.8162 47.8105 70.7327 47.7203 70.6697 47.6161C70.6067 47.5119 70.5657 47.3958 70.5491 47.2751C70.5325 47.1544 70.5407 47.0315 70.5731 46.9141C70.6779 46.669 70.8392 46.4524 71.0438 46.282C72.3156 45.0176 73.6154 43.7842 74.9432 42.5817C75.1625 42.3309 75.4577 42.1592 75.7836 42.0928C76.0851 42.0929 76.3767 42.2007 76.6061 42.3969C76.8355 42.593 76.9879 42.8647 77.0358 43.1632C77.0358 43.7027 76.582 43.905 76.1954 44.2084C75.0104 45.2368 73.8171 46.3494 72.5985 47.4199Z" fill="#3B2645"/>
<path d="M72.7917 45.9276C72.7344 45.876 72.6885 45.8128 72.6573 45.7422C72.6395 45.6544 72.6408 45.5637 72.6611 45.4765C72.6814 45.3892 72.7202 45.3073 72.7749 45.2365C73.0774 44.7223 73.7161 43.8963 74.3464 43.8204C74.5545 43.8098 74.7618 43.854 74.9476 43.9486C75.1333 44.0433 75.2912 44.185 75.4053 44.3598C75.5918 44.6333 75.7085 44.9484 75.7451 45.2776C75.7818 45.6068 75.7372 45.94 75.6154 46.2479C75.4366 46.8092 75.0562 47.2838 74.5481 47.5797C74.2967 47.6866 74.0138 47.6919 73.7585 47.5945C73.5032 47.4971 73.2954 47.3046 73.1783 47.0571C73.0606 46.7452 73.1027 46.3659 72.8926 46.1046L72.7917 45.9276Z" fill="#FFEDE5"/>
<path d="M54.8492 76.1284V76.9713C54.8492 77.536 54.8492 78.1176 54.8492 78.7161V79.3988C54.8492 80.09 54.7988 80.8065 54.7651 81.5398C52.5892 82.1419 50.3487 82.4786 48.0924 82.5428C47.9999 81.5988 47.8151 79.087 47.8067 78.8088C47.8067 78.2356 47.6806 76.6173 47.6722 76.3981C47.6218 75.1675 47.5882 73.9369 47.5882 72.7316C47.5882 71.1638 47.647 69.6297 47.7646 68.2052C47.7646 68.1041 47.7646 68.0114 47.7646 67.9187C47.7646 67.8259 46.8318 62.5242 46.0838 56.312C45.9998 56.9695 45.9158 57.6269 45.8317 58.2591C45.1258 63.6031 44.3778 67.9187 44.3778 67.9187C44.5039 69.419 44.5627 71.0458 44.5627 72.7147C44.5627 73.9875 44.5627 75.2434 44.4703 76.5752C44.4703 76.7943 44.3022 79.6096 44.277 79.8793C44.2182 80.7812 44.1425 81.6662 44.0669 82.5175C42.8903 82.467 41.7306 82.3911 40.5792 82.29C39.6716 82.2141 38.5287 82.1635 37.4194 82.0034C37.3689 81.2448 37.3353 80.5199 37.3101 79.8119C37.3101 79.6348 37.3101 79.4578 37.3101 79.2808C37.3101 78.5054 37.3101 77.7721 37.3101 77.064V76.5077C37.3101 71.3998 37.8059 68.0367 37.7303 67.2359C35.9739 49.5352 38.4278 39.7745 38.4278 39.7745C38.811 38.3562 39.5027 37.0407 40.4532 35.9225C41.1736 36.0344 41.8805 36.2208 42.5626 36.4788C43.6017 36.7511 44.6742 36.8731 45.7477 36.8412H46.5208C47.4537 36.8412 48.3865 36.7317 49.311 36.7064H49.9329C50.8191 36.6932 51.704 36.778 52.5717 36.9592C53.0903 37.8533 53.4914 38.8109 53.7651 39.8082C54.444 42.9897 54.8433 46.2247 54.9584 49.4762C55.2431 55.4114 55.0774 61.3597 54.4626 67.2696C54.3618 68.0198 54.8072 71.2312 54.8492 76.1284Z" fill="#3B2645"/>
<path d="M42.9491 91.6126C43.0668 95.9703 42.655 98.8362 42.0163 100.564C41.0414 103.236 39.4951 103.202 38.6547 101.761C38.4277 101.361 38.2714 100.925 38.1925 100.471C37.579 97.4622 38.6547 92.211 38.6547 92.211C38.6594 92.1465 38.6594 92.0817 38.6547 92.0172C39.0729 92.3231 39.5469 92.5436 40.0498 92.6662C40.6141 92.8052 41.2081 92.7571 41.7429 92.5292C42.2777 92.3013 42.7244 91.9058 43.0164 91.4019L42.9491 91.6126Z" fill="url(#paint1_linear_0_1)"/>
<path d="M53.9246 100.235C53.8529 100.771 53.6819 101.288 53.4204 101.761C52.5128 103.244 50.9496 103.236 49.9832 100.362C49.3949 98.676 49.0167 95.8692 49.1428 91.7559C49.7721 92.3231 50.5828 92.6459 51.4287 92.6662C52.1832 92.5965 52.9 92.3031 53.4876 91.8233C53.5031 91.9549 53.5031 92.0879 53.4876 92.2195C53.4876 92.2195 54.4457 97.1925 53.9246 100.235Z" fill="url(#paint2_linear_0_1)"/>
<path d="M41.68 94.2002C41.2544 93.9456 40.768 93.8112 40.2724 93.8112C39.7768 93.8112 39.2904 93.9456 38.8647 94.2002C38.8489 94.2178 38.8384 94.2394 38.8342 94.2627C38.8301 94.2859 38.8325 94.3099 38.8413 94.3318C38.85 94.3538 38.8647 94.3728 38.8837 94.3868C38.9027 94.4008 38.9253 94.4091 38.9487 94.4109C39.3689 94.4109 39.7891 94.2339 40.1841 94.2424C40.6465 94.2817 41.103 94.3722 41.5456 94.5121C41.5834 94.5168 41.6218 94.5091 41.6549 94.4901C41.6881 94.4711 41.7142 94.4418 41.7293 94.4067C41.7445 94.3716 41.7478 94.3324 41.739 94.2952C41.7301 94.258 41.7094 94.2247 41.68 94.2002Z" fill="#291B30"/>
<path d="M41.5455 95.5487C40.8279 95.1292 39.9857 94.977 39.1672 95.1188C38.8899 95.1188 38.8815 95.5824 39.1672 95.5571C39.5626 95.5191 39.9614 95.5361 40.3522 95.6077C40.7135 95.6751 41.0413 95.8269 41.4027 95.9027C41.4471 95.9123 41.4936 95.9058 41.5337 95.8844C41.5739 95.8631 41.6053 95.8282 41.6224 95.7859C41.6394 95.7436 41.6411 95.6967 41.627 95.6533C41.613 95.6099 41.5841 95.5729 41.5455 95.5487Z" fill="#291B30"/>
<path d="M52.6725 94.2004C52.0338 93.9813 50.6471 93.897 50.1513 94.487C50.084 94.5629 50.1513 94.723 50.2437 94.7146C50.6387 94.664 50.9833 94.5039 51.3951 94.487C51.8069 94.4702 52.2355 94.5797 52.622 94.5545C52.6452 94.5578 52.6688 94.5565 52.6915 94.5507C52.7142 94.5448 52.7355 94.5346 52.7542 94.5205C52.7729 94.5064 52.7887 94.4888 52.8006 94.4685C52.8126 94.4483 52.8204 94.426 52.8237 94.4027C52.827 94.3795 52.8258 94.3558 52.8199 94.3331C52.8141 94.3103 52.8039 94.2889 52.7899 94.2702C52.7758 94.2514 52.7582 94.2355 52.7381 94.2236C52.7179 94.2116 52.6956 94.2038 52.6725 94.2004Z" fill="#291B30"/>
<path d="M52.9837 95.6246C52.2862 95.3127 50.5465 95.0851 50.1936 96.0292C50.1431 96.1556 50.3028 96.2567 50.4037 96.1977C50.7668 95.9947 51.1714 95.8777 51.5866 95.8558C52.0018 95.8339 52.4164 95.9076 52.7988 96.0713C53.0509 96.1724 53.2442 95.7341 52.9837 95.6246Z" fill="#291B30"/>
<path d="M21.1661 15.061C21.1661 15.0104 21.0652 15.0104 21.0568 15.061C20.6366 17.9353 20.8803 20.9612 20.8803 23.9029C20.8803 27.0132 20.7795 30.1488 20.9644 33.2506C20.9723 33.2837 20.9912 33.3132 21.0178 33.3343C21.0445 33.3554 21.0775 33.3668 21.1115 33.3668C21.1454 33.3668 21.1784 33.3554 21.2051 33.3343C21.2317 33.3132 21.2506 33.2837 21.2585 33.2506C21.435 30.1488 21.3342 27.0132 21.3342 23.9029C21.3342 21.0287 21.5779 17.9606 21.1661 15.061Z" fill="#F7F8F8"/>
<path d="M24.8387 16.0388C24.8298 15.9974 24.807 15.9604 24.7741 15.9338C24.7412 15.9072 24.7003 15.8927 24.658 15.8927C24.6158 15.8927 24.5749 15.9072 24.542 15.9338C24.5091 15.9604 24.4863 15.9974 24.4774 16.0388C24.4774 18.8035 24.3009 21.6188 24.4774 24.375C24.4774 24.422 24.496 24.467 24.5291 24.5002C24.5622 24.5334 24.607 24.552 24.6538 24.552C24.7007 24.552 24.7455 24.5334 24.7786 24.5002C24.8117 24.467 24.8303 24.422 24.8303 24.375C25.0236 21.6188 24.8555 18.8035 24.8387 16.0388Z" fill="#F7F8F8"/>
<path d="M62.4126 44.9837C62.4058 44.9588 62.391 44.9368 62.3705 44.9211C62.35 44.9055 62.3249 44.897 62.2991 44.897C62.2734 44.897 62.2483 44.9055 62.2278 44.9211C62.2073 44.9368 62.1925 44.9588 62.1857 44.9837C61.9489 48.6032 61.9012 52.2326 62.0428 55.857C62.0428 59.4815 62.0428 63.0975 62.1773 66.7219C62.1844 66.7489 62.2002 66.7727 62.2223 66.7897C62.2443 66.8067 62.2713 66.816 62.2991 66.816C62.3269 66.816 62.354 66.8067 62.376 66.7897C62.3981 66.7727 62.4139 66.7489 62.421 66.7219C62.5387 63.0975 62.5386 59.4815 62.5555 55.857C62.6928 52.2325 62.6451 48.6033 62.4126 44.9837Z" fill="#F7F8F8"/>
<path d="M68.8924 23.7851C68.8661 21.3733 68.709 18.9647 68.4217 16.57C68.4217 16.4267 68.1948 16.4689 68.1864 16.57C68.1216 19.1599 68.1973 21.7514 68.4133 24.333C68.5226 26.7353 68.4974 29.1965 68.8167 31.5735C68.8167 31.7926 69.1865 31.7252 69.1949 31.5229C69.3126 28.9521 69.0436 26.3307 68.8924 23.7851Z" fill="#F7F8F8"/>
<path d="M70.573 25.1253C70.5671 25.1064 70.5554 25.0899 70.5395 25.0782C70.5236 25.0665 70.5044 25.0602 70.4847 25.0602C70.465 25.0602 70.4458 25.0665 70.43 25.0782C70.4141 25.0899 70.4023 25.1064 70.3965 25.1253C70.1738 28.5883 70.157 32.0615 70.3461 35.5265C70.3408 35.5477 70.3405 35.5697 70.345 35.591C70.3495 35.6122 70.3588 35.6322 70.3722 35.6493C70.3856 35.6665 70.4026 35.6803 70.4221 35.6899C70.4416 35.6994 70.463 35.7043 70.4847 35.7043C70.5064 35.7043 70.5278 35.6994 70.5473 35.6899C70.5668 35.6803 70.5839 35.6665 70.5972 35.6493C70.6106 35.6322 70.6199 35.6122 70.6244 35.591C70.629 35.5697 70.6286 35.5477 70.6234 35.5265C70.8125 32.0615 70.7956 28.5883 70.573 25.1253Z" fill="#F7F8F8"/>
<path d="M45.7897 58.2509C45.8025 57.5946 45.887 56.9417 46.0418 56.3038C45.9578 56.9613 45.8737 57.6187 45.7897 58.2509Z" fill="#291B30"/>
<path d="M54.9332 49.4766C53.7987 42.6407 44.4283 42.3204 44.4283 42.3204C43.8484 39.5052 47.6302 38.6623 47.6302 38.6623L49.8404 36.7489C50.7266 36.7357 51.6116 36.8205 52.4793 37.0018C53.0267 37.8779 53.4589 38.8213 53.7651 39.8086C54.4301 42.9917 54.8209 46.2263 54.9332 49.4766Z" fill="#291B30"/>
<path d="M53.8993 40.5417C46.3358 44.1071 38.1167 40.8367 38.1167 40.8367C38.7134 39.1509 38.268 30.5534 38.2259 28.9182C38.2259 28.9182 38.2259 28.8592 38.2259 28.8339C38.2293 28.7721 38.2293 28.7102 38.2259 28.6485C39.8143 24.9566 39.9908 17.8426 39.9992 15.3982C40.7135 15.2886 41.4615 15.2296 42.1086 15.1959C42.3607 17.9269 43.2599 24.9313 45.7643 24.6279C48.2687 24.3244 49.4621 18.087 49.8991 15.3561C50.3598 15.4336 50.8272 15.4647 51.2941 15.4488C51.437 15.4488 51.5799 15.4488 51.7227 15.4488C51.5042 19.1828 53.5716 27.0301 53.6304 27.2493C53.6304 27.3083 53.6304 27.3757 53.6304 27.4347C53.6304 27.637 53.5716 27.8477 53.5464 28.0753C53.5464 28.0753 53.5464 28.168 53.5464 28.2186C53.0169 32.9725 53.8993 40.5417 53.8993 40.5417Z" fill="url(#paint3_linear_0_1)"/>
<defs>
<linearGradient id="paint0_linear_0_1" x1="83.1233" y1="105.934" x2="-15.4999" y2="97.2797" gradientUnits="userSpaceOnUse">
<stop stop-color="#92A3FD"/>
<stop offset="1" stop-color="#9DCEFF"/>
</linearGradient>
<linearGradient id="paint1_linear_0_1" x1="43.0164" y1="102.736" x2="36.303" y2="102.507" gradientUnits="userSpaceOnUse">
<stop stop-color="#92A3FD"/>
<stop offset="1" stop-color="#9DCEFF"/>
</linearGradient>
<linearGradient id="paint2_linear_0_1" x1="54.0798" y1="102.739" x2="47.436" y2="102.507" gradientUnits="userSpaceOnUse">
<stop stop-color="#92A3FD"/>
<stop offset="1" stop-color="#9DCEFF"/>
</linearGradient>
<linearGradient id="paint3_linear_0_1" x1="53.8993" y1="42.2066" x2="32.7816" y2="41.2518" gradientUnits="userSpaceOnUse">
<stop stop-color="#92A3FD"/>
<stop offset="1" stop-color="#9DCEFF"/>
</linearGradient>
</defs>
</svg>
