<svg width="92" height="93" viewBox="0 0 92 93" fill="none" xmlns="http://www.w3.org/2000/svg">
<circle opacity="0.5" cx="46" cy="47" r="46" fill="white"/>
<g clip-path="url(#clip0_0_1)">
<g opacity="0.3">
<path opacity="0.3" d="M31.3031 55.055H31.2588L29.5559 54.5601C29.4975 54.5419 29.4484 54.501 29.4191 54.4463C29.3899 54.3915 29.3828 54.3273 29.3994 54.2673C29.4161 54.2072 29.4551 54.1563 29.5081 54.1253C29.5611 54.0943 29.6239 54.0857 29.683 54.1014L31.3741 54.5903C31.4277 54.6082 31.4732 54.6454 31.502 54.6949C31.5309 54.7443 31.5413 54.8028 31.5312 54.8595C31.5211 54.9162 31.4912 54.9672 31.4471 55.0031C31.403 55.0391 31.3477 55.0575 31.2913 55.055H31.3031Z" fill="black"/>
<path opacity="0.3" d="M29.5559 56.3949C29.5077 56.3904 29.462 56.3709 29.425 56.3391C29.388 56.3072 29.3615 56.2646 29.349 56.2168C29.3396 56.1855 29.3367 56.1526 29.3404 56.1201C29.3441 56.0876 29.3543 56.0562 29.3704 56.0279C29.3865 55.9996 29.4081 55.975 29.4339 55.9555C29.4597 55.9361 29.4892 55.9224 29.5204 55.9151L31.2233 55.4745C31.2824 55.4615 31.3442 55.4723 31.3956 55.5048C31.447 55.5373 31.484 55.5888 31.499 55.6486C31.5139 55.7084 31.5055 55.7718 31.4756 55.8254C31.4457 55.8791 31.3966 55.9188 31.3386 55.9362L29.6328 56.3768C29.6084 56.3873 29.5824 56.3934 29.5559 56.3949Z" fill="black"/>
<path opacity="0.3" d="M30.4251 58.0003C30.369 57.9947 30.3167 57.9691 30.2773 57.9279C30.2342 57.8833 30.21 57.8231 30.21 57.7604C30.21 57.6977 30.2342 57.6376 30.2773 57.593L31.5367 56.3406C31.5582 56.3165 31.5842 56.2971 31.6133 56.2837C31.6423 56.2703 31.6737 56.2631 31.7056 56.2625C31.7375 56.2619 31.7691 56.268 31.7986 56.2804C31.8281 56.2928 31.8548 56.3112 31.877 56.3346C31.8993 56.3579 31.9166 56.3856 31.9279 56.416C31.9393 56.4464 31.9444 56.4789 31.943 56.5114C31.9416 56.5439 31.9337 56.5758 31.9197 56.6051C31.9058 56.6343 31.8861 56.6604 31.862 56.6816L30.6084 57.94C30.5836 57.9625 30.5545 57.9794 30.523 57.9898C30.4914 58.0002 30.4581 58.0038 30.4251 58.0003Z" fill="black"/>
<path opacity="0.3" d="M31.9536 58.9509H31.9093C31.8791 58.9423 31.8509 58.9275 31.8264 58.9075C31.8019 58.8875 31.7816 58.8627 31.7667 58.8346C31.7518 58.8064 31.7426 58.7755 31.7397 58.7436C31.7367 58.7118 31.7401 58.6796 31.7496 58.6491L32.2167 56.923C32.2346 56.8633 32.2746 56.8132 32.3283 56.7834C32.3819 56.7535 32.4449 56.7463 32.5037 56.7633C32.5624 56.7802 32.6124 56.8201 32.6427 56.8742C32.6731 56.9283 32.6815 56.9924 32.6661 57.0527L32.1872 58.7789C32.1727 58.8301 32.1418 58.8748 32.0995 58.906C32.0571 58.9372 32.0058 58.953 31.9536 58.9509Z" fill="black"/>
</g>
<path d="M78.1389 32.1536L73.9024 34.6432L64.6251 36.0132C64.6251 36.0132 57.8519 25.6263 56.8142 23.9937C55.7765 22.3611 54.5614 21.314 51.7499 21.317L52.282 29.6036C52.3707 29.8722 57.9791 36.9246 61.6775 40.7691C62.9843 42.1241 63.7855 42.4711 65.8165 41.8917C71.0287 40.4161 77.3466 36.0434 77.8551 34.951C78.538 33.5236 78.0886 32.1838 78.1389 32.1536Z" fill="#FFEDE5"/>
<path d="M76.3974 26.8998C76.9532 25.0469 79.2238 23.5381 81.3317 24.1416C81.6656 24.2358 81.9857 24.3748 82.2837 24.555C84.3532 25.7621 85.9999 28.7044 85.9999 31.1246C86.0067 31.5333 85.9508 31.9406 85.8343 32.3317C85.2815 34.1815 83.0169 35.7024 80.9001 35.0959C80.5667 35.0004 80.2467 34.8614 79.9481 34.6824C77.8963 33.4754 76.2319 30.5301 76.2319 28.1099C76.2259 27.7002 76.2817 27.2921 76.3974 26.8998Z" fill="#455A64"/>
<path d="M79.9511 34.6644C77.8993 33.4573 76.2349 30.512 76.2349 28.0918C76.2349 25.6716 77.8993 24.6939 79.9511 25.901C82.0028 27.108 83.6584 30.0503 83.6584 32.4705C83.6584 34.8907 82.0028 35.8714 79.9511 34.6644Z" fill="#37474F"/>
<path d="M79.9511 28.5837C79.1617 28.119 78.5201 28.4962 78.5201 29.4257C78.547 29.9323 78.6906 30.4254 78.9392 30.8648C79.1878 31.3042 79.5345 31.6776 79.9511 31.9545C80.7404 32.4192 81.379 32.042 81.379 31.1126C81.3527 30.6061 81.2097 30.1131 80.9616 29.6737C80.7134 29.2343 80.3672 28.8608 79.9511 28.5837Z" fill="#455A64"/>
<path d="M79.4603 29.9809C79.4698 30.1544 79.5192 30.3232 79.6044 30.4737C79.6897 30.6242 79.8085 30.752 79.9511 30.8469C79.998 30.8814 80.0524 30.9036 80.1096 30.9115C80.1669 30.9193 80.2251 30.9127 80.2793 30.8922L80.3147 30.8711C80.357 30.8341 80.3903 30.7876 80.4118 30.7352C80.4334 30.6828 80.4426 30.626 80.4389 30.5693C80.4295 30.3961 80.3805 30.2275 80.2958 30.0771C80.2111 29.9267 80.093 29.7987 79.9511 29.7032C79.9042 29.6688 79.8498 29.6466 79.7926 29.6387C79.7353 29.6308 79.6771 29.6374 79.6229 29.658L79.5875 29.6791C79.5445 29.7156 79.5105 29.762 79.4884 29.8144C79.4664 29.8669 79.4567 29.9239 79.4603 29.9809Z" fill="#37474F"/>
<path d="M71.6111 34.607C71.6202 34.7803 71.6691 34.9489 71.7539 35.0994C71.8386 35.2498 71.9568 35.3778 72.0989 35.4731C72.1624 35.5149 72.2361 35.5379 72.3117 35.5395C72.3692 35.5383 72.4253 35.5217 72.4743 35.4912L80.2793 30.8922L80.3148 30.8711C80.357 30.8341 80.3903 30.7876 80.4118 30.7352C80.4334 30.6828 80.4427 30.626 80.4389 30.5693C80.4296 30.3961 80.3805 30.2275 80.2958 30.0771C80.2111 29.9267 80.0931 29.7987 79.9511 29.7032C79.9043 29.6688 79.8498 29.6466 79.7926 29.6387C79.7354 29.6308 79.6771 29.6374 79.623 29.658L79.5875 29.6791L71.7825 34.2781C71.7265 34.3109 71.6807 34.3591 71.6504 34.4173C71.62 34.4755 71.6064 34.5413 71.6111 34.607Z" fill="#FAFAFA"/>
<path d="M63.951 34.2358C64.5039 32.3859 66.7685 30.856 68.8853 31.4625C69.2195 31.5585 69.5403 31.6974 69.8402 31.8759C71.892 33.083 73.5564 36.0283 73.5564 38.4485C73.5615 38.8571 73.5056 39.2641 73.3909 39.6556C72.8351 41.5054 70.5734 43.0264 68.4566 42.4228C68.1234 42.3268 67.8035 42.1879 67.5046 42.0094C65.4529 40.8023 63.7884 37.857 63.7884 35.4399C63.7816 35.0324 63.8364 34.6262 63.951 34.2358Z" fill="#455A64"/>
<path d="M67.5016 41.9973C65.4499 40.7902 63.7854 37.845 63.7854 35.4278C63.7854 33.0106 65.4499 32.0268 67.5016 33.2339C69.5534 34.441 71.2178 37.3863 71.2178 39.8065C71.2178 42.2267 69.5563 43.2074 67.5016 41.9973Z" fill="#37474F"/>
<path d="M67.5016 35.9107C66.7122 35.4429 66.0736 35.8201 66.0736 36.7526C66.1004 37.2586 66.2436 37.7509 66.4917 38.1898C66.7398 38.6287 67.0858 39.0016 67.5016 39.2784C68.2909 39.7432 68.9325 39.3659 68.9325 38.4365C68.9052 37.9303 68.7614 37.4379 68.5128 36.999C68.2642 36.5602 67.9177 36.1873 67.5016 35.9107Z" fill="#455A64"/>
<path d="M67.0138 37.3138C67.023 37.4871 67.0719 37.6558 67.1566 37.8062C67.2413 37.9567 67.3595 38.0847 67.5016 38.1799C67.5485 38.2144 67.6029 38.2365 67.6602 38.2444C67.7174 38.2523 67.7756 38.2457 67.8298 38.2252C67.8429 38.2206 67.8549 38.2135 67.8653 38.2041C67.9081 38.1674 67.9419 38.121 67.9639 38.0686C67.986 38.0162 67.9958 37.9592 67.9924 37.9023C67.9827 37.7288 67.9332 37.5601 67.848 37.4096C67.7627 37.2592 67.6441 37.1313 67.5016 37.0362C67.4548 37.0028 67.4008 36.9814 67.3441 36.9741C67.2875 36.9667 67.2299 36.9735 67.1764 36.994L67.1409 37.0151C67.098 37.051 67.0641 37.0968 67.0419 37.1488C67.0198 37.2007 67.0102 37.2573 67.0138 37.3138Z" fill="#37474F"/>
<path d="M65.8313 38.023C65.8398 38.1965 65.8884 38.3654 65.9732 38.5159C66.058 38.6665 66.1766 38.7944 66.3192 38.8891C66.3827 38.9309 66.4564 38.9539 66.532 38.9555C66.5894 38.9541 66.6454 38.9374 66.6946 38.9072L67.8299 38.2373C67.843 38.2327 67.855 38.2255 67.8654 38.2162C67.9082 38.1795 67.942 38.1331 67.964 38.0807C67.9861 38.0283 67.9959 37.9713 67.9925 37.9144C67.9828 37.7409 67.9333 37.5722 67.8481 37.4217C67.7628 37.2713 67.6442 37.1434 67.5017 37.0483C67.4549 37.0148 67.4009 36.9935 67.3442 36.9861C67.2876 36.9788 67.23 36.9856 67.1765 37.0061L67.141 37.0272L66.0028 37.6941C65.9468 37.7269 65.901 37.7751 65.8706 37.8333C65.8403 37.8915 65.8267 37.9573 65.8313 38.023Z" fill="#FAFAFA"/>
<path d="M65.8312 38.023C65.8399 38.1968 65.8886 38.3661 65.9734 38.5171C66.0581 38.6681 66.1765 38.7966 66.319 38.8921C66.3664 38.9256 66.4209 38.947 66.478 38.9543C66.5352 38.9617 66.5932 38.9548 66.6472 38.9344L66.6827 38.9133C66.7259 38.8769 66.7599 38.8306 66.782 38.7781C66.8041 38.7256 66.8137 38.6685 66.8098 38.6115C66.7999 38.4377 66.7503 38.2686 66.6651 38.1177C66.5799 37.9668 66.4614 37.8383 66.319 37.7424C66.2717 37.7089 66.2172 37.6876 66.16 37.6802C66.1029 37.6729 66.0449 37.6797 65.9909 37.7002L65.9554 37.7213C65.9129 37.7581 65.8796 37.8046 65.858 37.857C65.8364 37.9095 65.8273 37.9663 65.8312 38.023Z" fill="#E0E0E0"/>
<path d="M75.4308 37.0755C77.2253 35.6783 78.946 35.6873 78.6355 32.2713C78.3724 30.7624 78.0058 30.6538 76.5661 30.0804C75.9334 29.83 75.0878 29.6398 74.5823 30.2313C74.5268 30.3056 74.4655 30.3753 74.399 30.4395C74.2499 30.5365 74.0788 30.5926 73.9023 30.6025C73.5652 30.6193 73.2448 30.7572 72.9977 30.9918C72.8291 31.1879 72.7641 31.4565 72.5985 31.6526C72.4395 31.8064 72.2684 31.9467 72.0871 32.0721C71.9571 32.1872 71.8523 32.3288 71.7795 32.4879C71.7067 32.647 71.6674 32.82 71.6643 32.9955C71.6762 33.1963 71.7311 33.3919 71.8251 33.5686C71.9191 33.7454 72.0499 33.8989 72.2083 34.0185L73.113 33.4874C73.4825 33.2279 74.2453 34.1543 73.9171 34.6432C73.3938 35.4218 75.4308 37.0755 75.4308 37.0755Z" fill="#FFEDE5"/>
<path d="M54.5289 43.9438C55.1025 41.5779 55.268 35.6663 55.268 35.6663L38.4814 36.1793L39.395 39.9122C39.5457 40.7537 39.6258 41.6067 39.6344 42.4621C39.6344 42.4621 41.2634 45.5432 46.0942 46.0834C49.0625 46.3722 52.0384 45.6173 54.5289 43.9438Z" fill="#FFEDE5"/>
<path d="M55.2769 35.6662C55.2976 35.8533 55.1793 37.6428 55.1793 37.6428C53.033 39.4867 46.1475 40.4191 38.919 37.9657L37.3876 31.9303C37.3876 31.9303 42.585 29.6007 39.0727 21.7848L42.8481 21.483L49.5503 21.311H51.7499C53.5585 23.1046 55.087 25.1706 56.2821 27.437C57.1601 29.1088 58.2777 31.5592 55.2769 35.6662Z" fill="#455A64"/>
<path d="M45.778 35.7206C42.7535 34.9329 41.9967 33.0046 41.7809 31.5863C41.7809 31.5863 41.2103 35.7206 45.5326 36.6832C50.0914 37.6972 51.9658 34.0125 51.9658 34.0125C51.9658 34.0125 49.4262 36.6711 45.778 35.7206Z" fill="#37474F"/>
<path d="M20.0333 81.7255C19.1464 82.3864 17.1035 82.5463 15.3031 81.6832C13.5026 80.8202 12.7517 78.3638 13.0887 76.4656C13.4967 74.151 14.6172 72.8866 14.901 71.4924C15.1848 70.0983 14.901 68.173 15.3326 66.9297C15.5106 66.4518 15.7876 66.0188 16.1448 65.6604C16.502 65.3021 16.9309 65.0268 17.4021 64.8535C17.7025 64.735 18.0255 64.6883 18.3464 64.7171C18.6672 64.7459 18.9773 64.8493 19.2528 65.0195L19.785 65.3393L20.0333 81.7255Z" fill="#263238"/>
<path d="M22.1472 72.8987L20.7459 77.1899C20.7459 77.1899 21.6328 80.2499 21.1331 81.0646C20.397 82.2717 19.0991 82.483 16.9143 81.801C14.4162 81.0254 13.8278 78.7169 13.9579 76.9244C14.1353 74.3684 16.4502 72.4461 16.1841 69.9836C16.054 68.7765 16.2166 67.4276 16.8641 66.3895C17.5884 65.2307 18.7769 65.0135 20.0097 65.3907C21.0681 65.7166 21.9964 66.3956 22.8922 67.0323C23.1494 67.1994 23.3823 67.4026 23.584 67.6359C23.7445 67.8543 23.8647 68.1007 23.9388 68.3631C24.1009 68.8905 24.1493 69.4474 24.0807 69.9957C24.0157 70.5087 23.6934 70.8075 23.3948 71.2028L22.1472 72.8987Z" fill="url(#paint0_linear_0_1)"/>
<path d="M28.1872 70.8677C28.1015 70.8345 23.8206 68.0401 23.3594 67.8289C22.8982 67.6177 21.7629 67.3189 20.6661 69.9111C19.8826 71.7549 21.009 72.4369 21.009 72.4369L26.0349 75.4848L28.1872 70.8677Z" fill="#FFEDE5"/>
<path d="M20.7459 77.1899C19.8401 76.7278 18.8373 76.4988 17.825 76.523C17.7498 76.5302 17.6741 76.5184 17.6044 76.4887C17.5347 76.459 17.4732 76.4124 17.4254 76.3528C17.3775 76.2932 17.3447 76.2225 17.3298 76.147C17.315 76.0714 17.3185 75.9933 17.3401 75.9194C17.3686 75.8315 17.422 75.7541 17.4936 75.6972C17.5651 75.6402 17.6517 75.6063 17.7422 75.5996C18.4192 75.5453 20.063 75.5241 21.1539 76.4415C21.4436 77.039 20.7459 77.1899 20.7459 77.1899Z" fill="url(#paint1_linear_0_1)"/>
<path d="M21.2602 75.2284C20.3794 74.7193 19.3896 74.4385 18.3777 74.4106C18.3015 74.4145 18.2255 74.399 18.1566 74.3655C18.0878 74.332 18.0281 74.2817 17.983 74.2189C17.9378 74.1561 17.9087 74.0828 17.8981 74.0057C17.8876 73.9286 17.8959 73.85 17.9224 73.7769C17.955 73.6903 18.012 73.6154 18.0861 73.5617C18.1603 73.508 18.2484 73.4779 18.3393 73.4752C19.0192 73.457 20.663 73.5265 21.7066 74.4982C21.9638 75.1168 21.2602 75.2284 21.2602 75.2284Z" fill="url(#paint2_linear_0_1)"/>
<path opacity="0.3" d="M20.7459 77.1899C19.8401 76.7278 18.8373 76.4988 17.825 76.523C17.7498 76.5302 17.6741 76.5184 17.6044 76.4887C17.5347 76.459 17.4732 76.4124 17.4254 76.3528C17.3775 76.2932 17.3447 76.2225 17.3298 76.147C17.315 76.0714 17.3185 75.9933 17.3401 75.9194C17.3686 75.8315 17.422 75.7541 17.4936 75.6972C17.5651 75.6402 17.6517 75.6063 17.7422 75.5996C18.4192 75.5453 20.063 75.5241 21.1539 76.4415C21.4436 77.039 20.7459 77.1899 20.7459 77.1899Z" fill="black"/>
<path opacity="0.3" d="M21.2602 75.2284C20.3794 74.7193 19.3896 74.4385 18.3777 74.4106C18.3015 74.4145 18.2255 74.399 18.1566 74.3655C18.0878 74.332 18.0281 74.2817 17.983 74.2189C17.9378 74.1561 17.9087 74.0828 17.8981 74.0057C17.8876 73.9286 17.8959 73.85 17.9224 73.7769C17.955 73.6903 18.012 73.6154 18.0861 73.5617C18.1603 73.508 18.2484 73.4779 18.3393 73.4752C19.0192 73.457 20.663 73.5265 21.7066 74.4982C21.9638 75.1168 21.2602 75.2284 21.2602 75.2284Z" fill="black"/>
<path d="M64.8882 82.1903L70.4492 79.9391C70.3546 78.4755 69.9999 76.5261 70.3694 72.6966L64.0604 71.4714V77.9173L64.8882 82.1903Z" fill="#FFEDE5"/>
<path d="M80.7554 87.1754C80.9031 87.6323 80.8757 88.1295 80.6785 88.5665C80.4893 88.9739 78.405 90.172 75.5934 89.9788C73.5085 89.8297 71.5007 89.1139 69.7782 87.9057C68.7079 87.1814 67.5904 87.0456 66.2009 86.9641C64.8114 86.8827 62.9784 86.1735 62.6739 85.5096C62.3694 84.8457 62.7212 83.699 62.7212 83.699L80.7554 87.1754Z" fill="#263238"/>
<path d="M69.4115 78.2189L69.6333 78.1706C69.7538 78.1376 69.8798 78.1314 70.0028 78.1525C70.1394 78.1955 70.2606 78.2784 70.3517 78.3909C70.6269 78.749 70.8666 79.1341 71.0671 79.5406C71.6584 80.5214 72.8942 81.3362 74.2453 82.0755C75.1647 82.5795 76.0635 82.9808 77.0125 83.4063C77.9615 83.8318 79.2623 84.1215 80.0192 84.6436C81.1219 85.401 81.2668 87.3082 80.0192 88.0596C78.9371 88.7114 76.0842 89.4146 73.0923 88.5485C71.4603 88.0777 69.651 86.3003 67.5135 86.1343C66.1536 86.0257 63.5785 85.6364 62.7034 84.5832C62.3812 84.1155 62.8128 82.6307 63.1676 81.3512C63.5549 79.954 63.6968 77.4916 64.1521 77.6153C64.1521 77.6153 64.0279 77.9624 64.2053 78.1495C64.3827 78.3366 65.0065 78.7108 65.1898 78.8677C65.4963 79.1868 65.7437 79.56 65.92 79.9691C65.9933 80.1539 66.1299 80.3051 66.3043 80.3946C66.5349 80.4821 66.7064 80.3343 66.8956 80.2407C67.1514 80.1239 67.4395 80.1036 67.7086 80.1834C67.6827 79.9062 67.6342 79.6316 67.5638 79.3626C67.5335 79.2776 67.5264 79.1858 67.5431 79.097C67.5803 79.0142 67.6411 78.9448 67.7175 78.8979C68.2295 78.5532 68.8066 78.3219 69.4115 78.2189Z" fill="url(#paint3_linear_0_1)"/>
<path d="M72.974 81.3211C72.974 81.3211 72.7789 80.7869 71.9718 80.6361C71.3509 80.5184 70.257 80.9831 69.5771 81.5414C69.5131 81.5953 69.4629 81.6643 69.4309 81.7424C69.3989 81.8205 69.3859 81.9054 69.3932 81.9897C69.4005 82.0741 69.4277 82.1553 69.4727 82.2265C69.5176 82.2977 69.5788 82.3567 69.651 82.3984C69.7437 82.4525 69.851 82.4753 69.9572 82.4634C70.0634 82.4514 70.1632 82.4054 70.2422 82.332C70.9907 81.6476 71.9697 81.2853 72.974 81.3211Z" fill="url(#paint4_linear_0_1)"/>
<path d="M74.8927 82.4164C74.7587 82.2235 74.5814 82.0662 74.3757 81.9575C74.17 81.8488 73.9418 81.792 73.7101 81.7917C73.7101 81.7917 72.0929 81.84 71.0907 82.7906C71.0297 82.843 70.9819 82.9096 70.9514 82.9849C70.9209 83.0601 70.9086 83.1418 70.9156 83.2229C70.9226 83.304 70.9485 83.3822 70.9914 83.4509C71.0342 83.5195 71.0926 83.5767 71.1617 83.6175C71.2494 83.6673 71.3503 83.6877 71.4501 83.6757C71.5498 83.6638 71.6433 83.6202 71.7175 83.5511C72.1302 83.132 72.6296 82.8126 73.179 82.6163C73.7285 82.4199 74.314 82.3516 74.8927 82.4164Z" fill="url(#paint5_linear_0_1)"/>
<path d="M77.0124 83.4064C76.8581 83.2274 76.6679 83.0844 76.4547 82.987C76.2415 82.8896 76.0102 82.8402 75.7766 82.8421C75.7766 82.8421 74.2689 82.8994 73.2696 83.85C73.2078 83.9018 73.1592 83.9682 73.1281 84.0433C73.097 84.1185 73.0842 84.2003 73.0909 84.2817C73.0976 84.363 73.1235 84.4415 73.1665 84.5103C73.2095 84.5792 73.2682 84.6363 73.3376 84.6769C73.4259 84.7265 73.5272 84.7467 73.6274 84.7348C73.7275 84.7229 73.8215 84.6795 73.8964 84.6105C74.2881 84.1761 74.7738 83.841 75.3148 83.632C75.8557 83.423 76.437 83.3457 77.0124 83.4064Z" fill="url(#paint6_linear_0_1)"/>
<path opacity="0.3" d="M72.974 81.3211C72.974 81.3211 72.7789 80.7869 71.9718 80.6361C71.3509 80.5184 70.257 80.9831 69.5771 81.5414C69.5131 81.5953 69.4629 81.6643 69.4309 81.7424C69.3989 81.8205 69.3859 81.9054 69.3932 81.9897C69.4005 82.0741 69.4277 82.1553 69.4727 82.2265C69.5176 82.2977 69.5788 82.3567 69.651 82.3984C69.7437 82.4525 69.851 82.4753 69.9572 82.4634C70.0634 82.4514 70.1632 82.4054 70.2422 82.332C70.9907 81.6476 71.9697 81.2853 72.974 81.3211Z" fill="black"/>
<path opacity="0.3" d="M74.8927 82.4164C74.7587 82.2235 74.5814 82.0662 74.3757 81.9575C74.17 81.8488 73.9418 81.792 73.7101 81.7917C73.7101 81.7917 72.0929 81.84 71.0907 82.7906C71.0297 82.843 70.9819 82.9096 70.9514 82.9849C70.9209 83.0601 70.9086 83.1418 70.9156 83.2229C70.9226 83.304 70.9485 83.3822 70.9914 83.4509C71.0342 83.5195 71.0926 83.5767 71.1617 83.6175C71.2494 83.6673 71.3503 83.6877 71.4501 83.6757C71.5498 83.6638 71.6433 83.6202 71.7175 83.5511C72.1302 83.132 72.6296 82.8126 73.179 82.6163C73.7285 82.4199 74.314 82.3516 74.8927 82.4164Z" fill="black"/>
<path opacity="0.3" d="M77.0124 83.4064C76.8581 83.2274 76.6679 83.0844 76.4547 82.987C76.2415 82.8896 76.0102 82.8402 75.7766 82.8421C75.7766 82.8421 74.2689 82.8994 73.2696 83.85C73.2078 83.9018 73.1592 83.9682 73.1281 84.0433C73.097 84.1185 73.0842 84.2003 73.0909 84.2817C73.0976 84.363 73.1235 84.4415 73.1665 84.5103C73.2095 84.5792 73.2682 84.6363 73.3376 84.6769C73.4259 84.7265 73.5272 84.7467 73.6274 84.7348C73.7275 84.7229 73.8215 84.6795 73.8964 84.6105C74.2881 84.1761 74.7738 83.841 75.3148 83.632C75.8557 83.423 76.437 83.3457 77.0124 83.4064Z" fill="black"/>
<path d="M68.6901 49.8193C64.4625 48.8506 54.3663 46.696 54.3663 46.696L54.5289 43.9438C50.8777 45.8752 43.1821 45.329 39.6344 42.4622L39.0757 45.3803C37.7305 47.0241 36.5657 48.8131 35.6019 50.7156C34.7918 52.3542 33.4378 54.9102 34.7859 60.8641C35.5782 64.3616 36.6337 73.5686 36.6337 73.5686L26.2862 69.6758C26.2862 69.6758 25.3992 69.8297 24.6483 71.8093C24.2049 72.9802 24.057 74.1058 24.5064 74.6882C28.2906 77.7391 34.4222 82.7213 40.6189 85.5157C44.7579 87.1332 46.9575 83.5814 47.1585 82.2657C47.9361 77.2261 48.8319 61.0331 48.8319 61.0331L62.6679 60.5835C62.2097 63.2571 64.0722 73.7044 64.0722 73.7044C64.0722 73.7044 67.478 75.2133 70.2984 73.6682C70.2984 73.6682 72.1846 61.6457 72.3679 57.6352C72.5542 53.1629 72.7789 50.7578 68.6901 49.8193Z" fill="url(#paint7_linear_0_1)"/>
<path opacity="0.15" d="M62.6679 60.5834C62.6679 59.8622 63.138 57.3424 64.7374 55.9995C64.7374 55.9995 62.5438 56.4009 61.5386 60.6196L62.6679 60.5834Z" fill="black"/>
<path opacity="0.15" d="M36.6337 73.5686C36.6337 73.5686 36.9293 77.5429 37.6744 79.4803C37.6744 79.4803 35.8089 76.0401 35.6049 73.1763L36.6337 73.5686Z" fill="black"/>
<path opacity="0.15" d="M54.3633 46.6959L54.5259 43.9468C50.8747 45.8751 43.1821 45.3289 39.6374 42.4651L39.0786 45.3802C39.1082 45.4073 41.3846 47.8094 47.3034 48.1203C53.2221 48.4311 54.3633 46.6959 54.3633 46.6959Z" fill="black"/>
<path opacity="0.15" d="M48.8436 61.033C48.7946 59.5393 48.4486 58.0714 47.8265 56.7184C47.2044 55.3655 46.3193 54.1558 45.225 53.1628C45.225 53.1628 48.4061 54.6717 49.4704 59.4487C49.4704 59.4487 51.8355 58.3231 53.0713 54.9493C53.0713 54.9493 52.6929 58.3231 50.789 60.2424L56.5274 60.7826L48.8436 61.033Z" fill="black"/>
<path d="M46.9989 1.20688e-05C45.7842 -0.00197107 44.5811 0.240466 43.4583 0.713459C42.3356 1.18645 41.3151 1.88072 40.4554 2.75657C39.5957 3.63241 38.9136 4.67265 38.4481 5.81779C37.9825 6.96293 37.7427 8.19052 37.7423 9.43034C37.7423 10.6704 37.9818 11.8983 38.4472 13.0438C38.9126 14.1893 39.5946 15.2299 40.4544 16.1061C41.3141 16.9822 42.3347 17.6768 43.4577 18.1499C44.5806 18.6231 45.784 18.8657 46.9989 18.8637C49.4471 18.8597 51.7937 17.864 53.5232 16.0952C55.2527 14.3265 56.2237 11.9293 56.2229 9.43034C56.2229 6.93187 55.2516 4.53551 53.5222 2.76742C51.7927 0.999323 49.4466 0.00400961 46.9989 1.20688e-05Z" fill="#263238"/>
<path d="M37.3462 5.73365C37.6803 5.71803 38.0152 5.73725 38.3455 5.79098C38.4574 5.7985 38.5627 5.84793 38.6411 5.9298C38.6866 5.99751 38.7123 6.07707 38.715 6.15914C38.7913 6.68306 38.7437 7.21801 38.5761 7.7193C38.446 8.06935 38.041 8.24739 37.7837 8.50088C36.7845 9.49069 36.7047 11.1293 37.0979 12.4903C37.4911 13.8513 38.2804 15.0644 38.7919 16.3801C39.3033 17.6958 39.5753 19.2801 38.851 20.6049C38.5702 21.1119 38.0587 21.5102 38.1208 22.1137C38.1917 22.8531 38.8244 23.5592 39.0964 24.2261C39.395 25.0162 39.4965 25.8696 39.392 26.7097C39.3172 27.7542 38.9372 28.7518 38.3011 29.5735C37.8149 30.1519 37.1872 30.5884 36.482 30.8386C35.7767 31.0888 35.0191 31.1437 34.2863 30.9979C33.9773 30.9428 33.6849 30.8158 33.4319 30.6267C32.9973 30.2706 32.8229 29.6882 32.5864 29.1722C31.8266 27.5034 30.2212 26.2902 29.7334 24.5189C29.2042 22.6328 30.0852 20.6713 31.1673 19.0689C31.6728 18.3205 32.2375 17.5872 32.4858 16.7121C32.8199 15.5321 32.5272 14.2768 32.4504 13.0486C32.377 11.8489 32.5121 10.6454 32.8495 9.49371C33.0919 8.66082 33.4674 7.70119 34.103 7.10368C34.995 6.27586 36.1419 5.79138 37.3462 5.73365Z" fill="#263238"/>
<path d="M52.7758 4.31531C53.7868 4.93394 55.0315 7.54425 54.8866 13.0063C54.7625 17.6355 53.2872 18.7731 52.5481 19.1021C51.809 19.431 50.384 19.2197 49.0004 18.9783V21.7576C49.0004 21.7576 50.9043 24.033 50.7743 25.3095C50.6442 26.586 48.007 26.8726 46.2214 25.6112C44.4357 24.3498 42.9368 21.9266 42.9368 21.9266L42.9959 15.5351C42.9959 15.5351 42.1711 16.3499 40.7904 15.1127C39.6581 14.0897 39.2797 12.3726 40.1725 11.4673C41.0654 10.562 42.7062 10.8064 43.3329 12.1221C43.3329 12.1221 45.5384 12.2126 48.486 10.577C49.6327 9.95066 50.6186 9.0573 51.3639 7.96939C52.1092 6.88148 52.5929 5.62963 52.7758 4.31531Z" fill="#FFEDE5"/>
<path d="M49.8253 11.8234C49.8258 11.9378 49.7933 12.0498 49.7318 12.1455C49.6703 12.2412 49.5826 12.3162 49.4796 12.3613C49.3766 12.4064 49.2628 12.4195 49.1526 12.3991C49.0423 12.3786 48.9404 12.3254 48.8595 12.2462C48.7787 12.167 48.7225 12.0652 48.6979 11.9536C48.6734 11.8419 48.6816 11.7254 48.7215 11.6185C48.7615 11.5116 48.8314 11.4191 48.9225 11.3525C49.0136 11.2859 49.122 11.2482 49.234 11.244C49.3868 11.2439 49.5337 11.3042 49.6439 11.4122C49.7542 11.5202 49.8191 11.6676 49.8253 11.8234Z" fill="#263238"/>
<g style="mix-blend-mode:multiply" opacity="0.5">
<g style="mix-blend-mode:multiply" opacity="0.5">
<path d="M49.9553 15.7494L51.2768 16.1839C51.2528 16.2745 51.2111 16.3592 51.1542 16.4329C51.0973 16.5066 51.0265 16.5678 50.9459 16.6129C50.8653 16.658 50.7766 16.686 50.6851 16.6952C50.5936 16.7045 50.5013 16.6948 50.4136 16.6668C50.2353 16.6047 50.0878 16.4742 50.0023 16.3029C49.9167 16.1316 49.8999 15.9331 49.9553 15.7494Z" fill="#F28F8F"/>
</g>
</g>
<path d="M54.5111 10.055L53.3611 9.23419C53.4093 9.1547 53.4729 9.08611 53.548 9.03265C53.6231 8.97919 53.7081 8.94199 53.7979 8.92333C53.8876 8.90467 53.9801 8.90496 54.0697 8.92417C54.1593 8.94337 54.2442 8.9811 54.319 9.03502C54.4717 9.14848 54.5765 9.31694 54.6122 9.50631C54.6479 9.69567 54.6118 9.8918 54.5111 10.055Z" fill="#263238"/>
<path d="M54.2392 11.419C54.2403 11.5336 54.2082 11.6459 54.1471 11.7419C54.086 11.838 53.9985 11.9135 53.8956 11.9591C53.7926 12.0046 53.6788 12.0182 53.5683 11.998C53.4579 11.9779 53.3557 11.925 53.2745 11.8459C53.1934 11.7668 53.1369 11.665 53.1121 11.5533C53.0873 11.4416 53.0954 11.3249 53.1352 11.2179C53.1751 11.1108 53.2449 11.0181 53.3361 10.9514C53.4273 10.8846 53.5358 10.8468 53.6479 10.8427C53.8002 10.8425 53.9467 10.9023 54.0569 11.0097C54.167 11.1171 54.2323 11.2637 54.2392 11.419Z" fill="#263238"/>
<g style="mix-blend-mode:multiply" opacity="0.5">
<g style="mix-blend-mode:multiply" opacity="0.5">
<path d="M51.5488 11.075L51.6257 14.5815L53.435 14.0172L51.5488 11.075Z" fill="#F28F8F"/>
</g>
</g>
<g style="mix-blend-mode:multiply" opacity="0.5">
<g style="mix-blend-mode:multiply" opacity="0.5">
<path d="M49.0034 18.9784C47.5429 18.7792 44.5451 17.886 44.0839 16.6729C44.2696 17.2859 44.6349 17.8261 45.1304 18.2209C46.0233 19.0116 48.9974 19.9169 48.9974 19.9169L49.0034 18.9784Z" fill="#F28F8F"/>
</g>
</g>
<path d="M39.0727 21.7878C36.2109 21.9961 35.0313 22.3672 33.4378 25.9764C32.0039 29.2204 28.5744 37.6157 27.7171 39.4867C26.8597 41.3577 26.6971 42.1091 27.4214 44.0676C28.0127 45.6639 32.8435 54.8347 33.3727 56.1716C33.9019 57.5084 34.1355 58.8603 35.0372 60.4175C35.9389 61.9746 37.3639 63.4955 38.4903 63.8546C40.1607 64.3888 42.3336 63.6464 42.3957 62.6174C42.4578 61.5883 39.9448 59.8713 39.2619 57.5869C39.7164 57.8917 40.195 58.1571 40.6928 58.3805C41.3698 58.6642 42.1267 58.6008 42.3514 58.2085C42.5761 57.8162 41.899 57.5778 41.2959 56.9652C40.9352 56.6001 40.2967 55.7793 39.4807 55.055C38.9278 54.5661 38.0232 54.4213 37.6152 53.8841C37.3964 53.5975 36.403 51.1139 35.6551 48.9019C34.7327 46.1588 33.5176 42.5074 33.5176 42.5074L38.4903 31.9454C38.4903 31.9454 42.3898 27.9741 39.0727 21.7878Z" fill="#FFEDE5"/>
<path d="M33.3639 56.1716C33.3639 56.1716 34.508 53.8087 37.6063 53.8842L36.7874 52.0253C36.7874 52.0253 33.763 52.2425 32.4888 54.3338L33.3639 56.1716Z" fill="#37474F"/>
<path d="M33.0298 54.1648L33.695 55.1274C33.7431 55.1974 33.8046 55.2568 33.8757 55.302C33.9468 55.3472 34.0261 55.3773 34.1089 55.3906C34.1917 55.4038 34.2762 55.3999 34.3575 55.3791C34.4388 55.3582 34.5151 55.3209 34.5819 55.2693L35.7645 54.364C35.9019 54.2565 35.9941 54.0996 36.0221 53.9252C36.0501 53.7508 36.0119 53.5721 35.9152 53.4255L35.2973 52.496C35.2509 52.4243 35.1906 52.363 35.1201 52.3158C35.0496 52.2686 34.9705 52.2365 34.8875 52.2216C34.8046 52.2066 34.7195 52.209 34.6374 52.2287C34.5554 52.2484 34.4782 52.2849 34.4104 52.3361L33.1569 53.2414C33.0204 53.3469 32.9304 53.5032 32.9066 53.6763C32.8827 53.8494 32.927 54.025 33.0298 54.1648Z" fill="#263238"/>
<path d="M32.808 54.1407L33.4791 55.1033C33.5275 55.173 33.5891 55.232 33.6603 55.277C33.7314 55.322 33.8106 55.352 33.8933 55.3652C33.9759 55.3784 34.0604 55.3746 34.1416 55.354C34.2228 55.3334 34.2991 55.2964 34.3661 55.2452L35.5486 54.3399C35.686 54.2324 35.7782 54.0758 35.8068 53.9015C35.8353 53.7273 35.798 53.5486 35.7024 53.4014L35.0845 52.4719C35.0377 52.4005 34.9773 52.3395 34.9068 52.2926C34.8363 52.2456 34.7573 52.2137 34.6744 52.1988C34.5916 52.1839 34.5066 52.1862 34.4247 52.2056C34.3427 52.2251 34.2654 52.2612 34.1975 52.312L32.944 53.2324C32.8097 53.3357 32.7203 53.4886 32.6949 53.6583C32.6695 53.828 32.7101 54.0011 32.808 54.1407Z" fill="#455A64"/>
<path d="M35.5812 53.8238C35.5663 53.9432 35.5057 54.0516 35.4127 54.1256L34.2301 55.0309C34.189 55.0644 34.1414 55.0884 34.0904 55.1014C34.0394 55.1145 33.9862 55.1161 33.9345 55.1063C33.8838 55.0983 33.8352 55.0801 33.7915 55.0526C33.7479 55.0251 33.71 54.989 33.6802 54.9464L33.0062 53.9807C32.9493 53.9005 32.924 53.8014 32.9352 53.7031C32.9392 53.6434 32.9562 53.5854 32.9848 53.5332C33.0134 53.4811 33.053 53.436 33.1008 53.4013L34.3543 52.496C34.3962 52.4643 34.4441 52.4417 34.495 52.4297C34.5459 52.4178 34.5987 52.4167 34.65 52.4266C34.7006 52.4357 34.7489 52.4551 34.7921 52.4836C34.8352 52.5121 34.8724 52.5492 34.9013 52.5926L35.5191 53.522C35.5771 53.6108 35.6023 53.7178 35.5901 53.8238H35.5812Z" fill="url(#paint8_linear_0_1)"/>
</g>
<defs>
<linearGradient id="paint0_linear_0_1" x1="24.1109" y1="82.186" x2="10.5047" y2="81.5548" gradientUnits="userSpaceOnUse">
<stop stop-color="#92A3FD"/>
<stop offset="1" stop-color="#9DCEFF"/>
</linearGradient>
<linearGradient id="paint1_linear_0_1" x1="21.2243" y1="77.1899" x2="16.1682" y2="76.2423" gradientUnits="userSpaceOnUse">
<stop stop-color="#92A3FD"/>
<stop offset="1" stop-color="#9DCEFF"/>
</linearGradient>
<linearGradient id="paint2_linear_0_1" x1="21.7632" y1="75.2284" x2="16.7217" y2="74.3686" gradientUnits="userSpaceOnUse">
<stop stop-color="#92A3FD"/>
<stop offset="1" stop-color="#9DCEFF"/>
</linearGradient>
<linearGradient id="paint3_linear_0_1" x1="80.9014" y1="88.9515" x2="56.7275" y2="85.9311" gradientUnits="userSpaceOnUse">
<stop stop-color="#92A3FD"/>
<stop offset="1" stop-color="#9DCEFF"/>
</linearGradient>
<linearGradient id="paint4_linear_0_1" x1="72.974" y1="82.4665" x2="68.276" y2="81.762" gradientUnits="userSpaceOnUse">
<stop stop-color="#92A3FD"/>
<stop offset="1" stop-color="#9DCEFF"/>
</linearGradient>
<linearGradient id="paint5_linear_0_1" x1="74.8927" y1="83.6791" x2="69.6961" y2="82.8313" gradientUnits="userSpaceOnUse">
<stop stop-color="#92A3FD"/>
<stop offset="1" stop-color="#9DCEFF"/>
</linearGradient>
<linearGradient id="paint6_linear_0_1" x1="77.0124" y1="84.7382" x2="71.8837" y2="83.917" gradientUnits="userSpaceOnUse">
<stop stop-color="#92A3FD"/>
<stop offset="1" stop-color="#9DCEFF"/>
</linearGradient>
<linearGradient id="paint7_linear_0_1" x1="72.4502" y1="85.9299" x2="8.27585" y2="80.4216" gradientUnits="userSpaceOnUse">
<stop stop-color="#92A3FD"/>
<stop offset="1" stop-color="#9DCEFF"/>
</linearGradient>
<linearGradient id="paint8_linear_0_1" x1="35.5931" y1="55.1126" x2="32.0467" y2="54.8415" gradientUnits="userSpaceOnUse">
<stop stop-color="#92A3FD"/>
<stop offset="1" stop-color="#9DCEFF"/>
</linearGradient>
<clipPath id="clip0_0_1">
<rect width="73" height="90" fill="white" transform="translate(13)"/>
</clipPath>
</defs>
</svg>
