<svg width="121" height="93" viewBox="0 0 121 93" fill="none" xmlns="http://www.w3.org/2000/svg">
<circle opacity="0.5" cx="61" cy="46" r="46" fill="white"/>
<g clip-path="url(#clip0_0_1)">
<path d="M48.2297 42.5407C48.2297 42.5407 50.6937 22.6516 50.1374 15.3879C49.8522 11.6623 48.0371 10.8194 45.2628 11.0319C42.4885 11.2444 26.6235 19.62 26.6235 19.62L28.8843 25.0385L42.0784 20.9162C42.0784 20.9162 40.734 28.6544 40.4238 30.1241C40.1135 31.5939 39.4645 33.5736 38.9475 35.3479C38.6943 36.2226 38.3413 37.3559 38.3413 37.9048C38.3484 39.201 48.2297 42.5407 48.2297 42.5407Z" fill="#FFEDE5"/>
<path d="M42.0782 20.9162C43.9183 20.5621 45.7547 19.4819 46.3324 18.6213C46.0357 19.589 45.3808 20.4091 44.4995 20.9162C43.6608 21.4534 42.7724 21.9099 41.8464 22.2797L42.0782 20.9162Z" fill="#F28F8F"/>
<path d="M73.2056 42.1866C72.931 41.1738 71.1409 40.1078 65.8063 39.2189C60.4716 38.3299 55.6183 39.2189 55.5898 39.8457C55.5613 40.4726 56.9056 44.6622 63.0569 45.4271C69.2082 46.1921 73.769 44.4107 73.2056 42.1866Z" fill="#263238"/>
<path d="M57.1587 50.7958C57.1587 50.7958 53.6819 28.3993 54.1811 23.8272C54.6982 19.1028 56.5026 16.9106 59.5301 16.6025C63.4847 18.8833 65.5922 24.3336 68.1204 29.7061C70.6487 35.0786 73.3874 46.6026 73.5336 52.1097C73.6798 57.6167 69.2936 61.5407 64.3263 62.2561C59.3589 62.9715 57.1587 50.7958 57.1587 50.7958Z" fill="#FFEDE5"/>
<path d="M62.6217 33.2619C61.0173 31.981 59.9332 30.1672 59.5692 28.155L64.5437 26.4338L67.8993 29.2068L67.9991 29.4229C68.0419 29.5149 68.0847 29.607 68.1311 29.6991C68.2274 29.9045 68.3236 30.1205 68.4199 30.3401C68.4449 30.4039 68.4734 30.4676 68.5019 30.5349C68.5768 30.7049 68.6481 30.8891 68.723 31.0661L68.7979 31.2503C68.8978 31.4946 68.994 31.7461 69.0939 32.0046C69.1902 32.2632 69.2864 32.5288 69.3827 32.7979C69.4041 32.8581 69.4255 32.9148 69.4434 32.9715L69.7001 33.7152C69.7001 33.7506 69.7251 33.7895 69.7393 33.825C69.939 34.427 70.1387 35.0503 70.3313 35.6878L70.3634 35.7905C70.4597 36.1057 70.5524 36.4244 70.6451 36.7467C70.6451 36.7467 66.0236 36.088 62.6217 33.2619Z" fill="#F28F8F"/>
<path d="M58.4817 16.7938C60.3717 16.0536 62.6717 17.7854 63.8877 18.5645C66.3589 20.1369 81.4679 31.831 84.991 34.5721C85.7541 35.0325 86.5315 35.4752 87.3232 35.8931L83.1724 42.3386C82.8315 41.4123 82.2982 40.5677 81.6069 39.8596C77.8413 37.1893 70.5525 35.7337 65.8597 33.9205C62.2082 32.5039 61.445 31.7106 60.2148 29.6388C59.2734 27.9991 55.875 18.0191 58.4817 16.7938Z" fill="#FFEDE5"/>
<path d="M57.0839 50.9197L55.5897 39.8455C55.5897 39.8455 56.9305 42.8982 63.8342 43.7022C70.7379 44.5061 73.3803 43.348 73.2055 42.1864C73.2055 42.1864 75.0099 49.1207 74.311 53.6255C73.6121 58.1302 66.6834 62.929 66.6834 62.929L57.0839 50.9197Z" fill="#37474F"/>
<path opacity="0.15" d="M60.1399 52.4356C59.5052 52.4356 58.9097 52.4745 58.3569 52.51L66.0309 62.0968H67.8139C69.8037 60.5279 73.794 57.0006 74.3146 53.6362C74.8281 50.3319 73.9937 45.728 73.5122 43.5039C73.7868 46.0609 68.0278 52.2691 60.1399 52.4356Z" fill="black"/>
<path d="M94.7011 26.5224C92.205 26.062 91.046 27.8505 90.126 29.3273C89.206 30.8041 87.6655 33.5134 86.9773 33.9702C86.2891 34.4271 85.9075 33.9702 84.9269 34.7033C83.9462 35.4364 83.2295 36.8282 83.5326 37.3347L84.2458 38.5671C83.8346 38.5224 83.4185 38.5744 83.0314 38.719C82.6442 38.8636 82.2967 39.0966 82.017 39.3994C80.9473 40.4618 81.5035 40.6389 82.1062 41.2409C82.7088 41.843 84.1245 44.5629 85.5438 45.303C85.5438 45.303 89.3665 44.1662 92.1372 39.8597C94.908 35.5533 94.7011 26.5224 94.7011 26.5224Z" fill="url(#paint0_linear_0_1)"/>
<path d="M86.3319 45.8731C86.1856 45.8473 86.0464 45.7915 85.9231 45.7093C85.7998 45.6271 85.695 45.5203 85.6155 45.3957C85.536 45.2711 85.4835 45.1315 85.4613 44.9856C85.4392 44.8397 85.4478 44.6909 85.4867 44.5486C85.9091 43.2206 86.5437 41.9686 87.366 40.8406C88.3252 39.4877 90.1225 36.9449 90.4256 35.5531C90.7287 34.1613 91.3813 30.2621 92.4475 28.6295C93.5137 26.9969 94.6085 26.0548 96.0134 26.5825C97.4184 27.1102 92.9824 37.5612 91.6808 39.3319C90.3792 41.1027 86.3319 45.8731 86.3319 45.8731Z" fill="#37474F"/>
<path d="M87.1519 45.6466C90.6643 43.7873 91.8197 41.9811 92.8574 39.626C93.8951 37.2709 96.32 35.1 96.9476 32.9857C97.5752 30.8714 97.6394 25.4494 95.2252 26.7633C92.8111 28.0772 92.3083 32.9255 91.2492 35.7268C90.1901 38.5282 83.7072 47.4775 87.1519 45.6466Z" fill="#263238"/>
<path d="M66.0416 51.3731C67.6463 51.1287 70.7308 51.7875 73.5301 55.6689C76.5362 59.8373 77.096 67.1115 75.2097 67.7101C75.2097 67.7101 70.8378 67.2001 67.8353 65.6383C64.8327 64.0765 59.7869 53.5263 66.0416 51.3731Z" fill="#263238"/>
<path d="M117.32 86.0799C112.663 84.2631 108.851 81.1395 105.552 77.6476C102.899 74.0706 91.5309 58.7536 89.559 56.5969C88.8458 55.8319 87.1555 53.8628 84.8127 53.3705C76.5183 51.5998 61.1597 51.8619 61.1597 51.8619L55.2545 50.8738L43.4868 61.8737C45.1093 63.5913 47.1455 65.0894 50.1231 66.6299C53.1006 68.1705 56.3207 69.2896 60.664 68.9248C69.3578 68.1953 74.5713 65.7552 79.2248 64.675C80.5728 64.3634 81.9706 64.0765 83.0297 66.2722C84.0888 68.468 84.1744 69.5694 87.3088 71.9032C91.3277 74.8994 97.9639 78.2496 100.859 81.8195C101.336 82.6946 101.621 83.6602 101.694 84.6527C101.968 88.4173 105.149 87.6771 107.713 89.3133C109.111 90.2057 110.149 91.2894 111.832 91.6578C113.364 91.9709 114.948 91.9418 116.468 91.5728C117.837 91.2505 119.798 90.2695 120.472 88.945C121.357 87.1813 118.661 86.6005 117.32 86.0799Z" fill="#FFEDE5"/>
<path d="M117.32 86.0799C112.663 84.2631 108.851 81.1395 105.552 77.6476C102.899 74.0706 91.5309 58.7536 89.559 56.5969C88.8458 55.8319 87.1555 53.8628 84.8127 53.3705C76.5183 51.5998 61.1597 51.8619 61.1597 51.8619L55.2545 50.8738L43.4868 61.8737C45.1093 63.5913 47.1455 65.0894 50.1231 66.6299C53.1006 68.1705 56.3207 69.2896 60.664 68.9248C69.3578 68.1953 74.5713 65.7552 79.2248 64.675C80.5728 64.3634 81.9706 64.0765 83.0297 66.2722C84.0888 68.468 84.1744 69.5694 87.3088 71.9032C91.3277 74.8994 97.9639 78.2496 100.859 81.8195C101.336 82.6946 101.621 83.6602 101.694 84.6527C101.968 88.4173 105.149 87.6771 107.713 89.3133C109.111 90.2057 110.149 91.2894 111.832 91.6578C113.364 91.9709 114.948 91.9418 116.468 91.5728C117.837 91.2505 119.798 90.2695 120.472 88.945C121.357 87.1813 118.661 86.6005 117.32 86.0799Z" fill="#FFEDE5"/>
<path d="M87.0414 70.1182C86.1586 69.1463 85.4883 68.0031 85.073 66.7608C84.754 65.7224 84.3435 64.7139 83.8464 63.747C82.3986 61.268 72.7919 64.4305 68.5377 65.7267C68.2988 66.0809 67.3003 67.1433 66.9437 68.0287C72.0965 66.984 75.8051 65.4647 79.2177 64.6714C80.5657 64.3597 81.9635 64.0728 83.0226 66.2686C84.0817 68.4643 84.1673 69.5657 87.3018 71.8996C88.935 73.1179 90.9997 74.3786 93.0715 75.7209C90.7572 73.9359 89.0134 72.1475 87.0414 70.1182Z" fill="#F28F8F"/>
<path d="M56.1674 50.8738C56.1674 50.8738 64.608 51.2846 66.0415 51.3873C66.0415 51.3873 62.8643 52.2373 66.7298 59.9967C70.5953 67.7561 75.2132 67.7136 75.2132 67.7136C69.151 69.6402 66.0023 71.8041 58.2749 70.901C49.064 69.58 43.4797 62.7307 43.4797 62.7307L56.1674 50.8738Z" fill="#455A64"/>
<path opacity="0.15" d="M75.1918 67.7136C75.1217 67.718 75.0514 67.718 74.9814 67.7136C74.2932 67.6357 72.2463 67.1894 69.9534 64.7635C68.1333 65.2457 66.2866 65.6229 64.4226 65.8932C57.5332 66.8955 52.3661 65.6878 44.6672 61.6116L43.4797 62.7236C46.5351 66.1456 50.4546 68.6959 54.8337 70.1112C55.1012 70.1926 55.3758 70.2741 55.6539 70.3485C55.9142 70.4158 56.1781 70.483 56.442 70.5432L56.5133 70.5609C56.7558 70.6176 57.0054 70.6672 57.255 70.7168L57.387 70.7416C57.6794 70.7982 57.9718 70.8478 58.2713 70.8903C58.7563 70.947 59.2199 70.9895 59.6692 71.0249C60.1185 71.0603 60.55 71.078 60.9707 71.0922H61.5877C61.7909 71.0922 61.9906 71.0922 62.1867 71.0922C62.7751 71.0922 63.335 71.0461 63.8734 70.993C64.23 70.9576 64.5795 70.9151 64.9218 70.8655C65.7463 70.7415 66.563 70.5712 67.3681 70.3555C67.6819 70.2705 67.9921 70.182 68.2988 70.0864C69.0726 69.8526 69.8357 69.5906 70.6202 69.3073L71.5723 68.9531C72.6992 68.5423 73.8831 68.1102 75.2096 67.6888L75.1918 67.7136Z" fill="black"/>
<path d="M27.9427 40.3094C24.5123 41.4923 21.2708 43.5605 24.0202 49.613C27.9427 58.3534 45.7226 68.0571 54.8514 70.1183C50.2157 63.1521 54.074 55.7681 57.1015 50.9198L56.2849 44.9984C56.2849 44.9984 53.5463 43.6916 49.0104 40.2103C44.4745 36.729 42.5917 35.7834 35.8413 37.8233C31.202 39.2257 27.9427 40.3094 27.9427 40.3094Z" fill="url(#paint1_linear_0_1)"/>
<path opacity="0.05" d="M41.8394 60.064C32.5037 54.7518 29.5689 50.0203 25.9067 45.4766L23.5104 48.3806C23.5746 48.5683 23.6459 48.7595 23.7243 48.9579C23.723 48.9684 23.723 48.9792 23.7243 48.9897C23.8028 49.1916 23.8919 49.4005 23.9882 49.613C25.7284 53.4379 30.0967 57.4468 35.2317 60.9352C35.9449 61.431 36.7151 61.9162 37.4711 62.3872C37.8527 62.6245 38.2342 62.8583 38.6193 63.0955C41.2308 64.6484 43.9339 66.0439 46.7141 67.2745C49.3224 68.4704 52.0387 69.419 54.8266 70.1077C53.8112 68.609 53.1326 66.9107 52.8368 65.1284C49.5918 64.158 46.1114 62.497 41.8394 60.064Z" fill="black"/>
<path d="M25.3682 41.4957C25.3682 41.4957 13.8537 35.3831 12.0315 34.5579L22.1089 28.6826L19.9694 23.1685C19.9694 23.1685 4.99234 28.4559 2.13957 29.9752C0.645438 30.7792 0 31.4414 0 32.5818C0 34.4836 1.8222 36.9485 4.3469 39.084C9.71366 43.6277 16.9953 47.8598 24.088 51.7272C25.7141 52.9242 27.4044 54.4293 27.4044 54.4293C29.2694 55.3572 31.9831 46.7938 25.3682 41.4957Z" fill="#FFEDE5"/>
<path d="M36.1481 20.2504C35.4289 18.5921 34.0758 17.2855 32.3866 16.618C30.6973 15.9505 28.8102 15.9768 27.1405 16.6912C25.4708 17.4055 24.1552 18.7493 23.4831 20.4269C22.811 22.1046 22.8375 23.9787 23.5567 25.637C23.6031 25.7503 23.6602 25.853 23.7136 25.9593L21.9735 29.7204L19.4024 25.0137C19.4035 24.643 19.2657 24.2851 19.016 24.0095C18.7662 23.734 18.4223 23.5605 18.0509 23.5227C17.8626 23.5068 17.673 23.529 17.4935 23.5881C17.3141 23.6472 17.1487 23.7419 17.0073 23.8664C16.8659 23.9909 16.7514 24.1427 16.6709 24.3126C16.5904 24.4824 16.5455 24.6667 16.5389 24.8543L18.5038 25.0243C18.0726 25.3083 17.7421 25.7196 17.5588 26.2001C17.0917 27.4113 18.7177 29.8797 20.8965 32.0471C20.8965 32.0471 23.9811 36.3713 24.7299 36.9769C25.2125 37.3416 25.8173 37.5089 26.4202 37.4444L26.6056 28.9448C27.8581 29.6161 29.29 29.8833 30.7024 29.7093C32.1148 29.5353 33.4376 28.9287 34.4869 27.9738C35.5363 27.0189 36.2601 25.7631 36.5578 24.3809C36.8555 22.9987 36.7123 21.5587 36.1481 20.261V20.2504Z" fill="#263238"/>
<path d="M23.4889 31.1865C23.2037 31.5796 22.3336 31.0802 21.6453 30.7898C20.9571 30.4994 19.1135 30.4888 19.0422 32.4402C18.9709 34.3915 21.385 35.9817 22.7722 35.8365C25.1614 35.5921 24.9118 34.1153 24.9118 34.1153L28.4207 41.8322C32.4823 44.0421 40.0421 40.5644 35.5062 38.3793L34.5042 36.0879C35.3712 35.8566 36.2087 35.5274 37.0003 35.1069C38.4267 34.2074 38.8939 32.5783 38.6407 30.7119C38.2377 27.7193 37.5709 25.4386 34.6682 20.4416C31.4588 14.9806 24.6835 17.8067 22.0376 21.6421C19.3917 25.4776 23.4889 31.1865 23.4889 31.1865Z" fill="#FFEDE5"/>
<path d="M23.7707 31.8417C23.5781 31.9302 22.3122 31.0307 21.6311 30.8005C20.7075 30.4853 19.2062 24.6807 19.2062 24.6807C19.2062 24.6807 17.9795 23.6006 18.6535 21.6528C19.2062 20.0555 21.246 18.986 22.6581 18.2777C25.2042 16.9992 28.0534 15.5437 29.3014 12.8663C29.4013 12.6538 29.5439 12.413 29.7793 12.4094C29.8524 12.4159 29.9235 12.4368 29.9884 12.4708C30.0533 12.5049 30.1107 12.5514 30.1573 12.6077C30.7452 13.2632 31.0767 14.1064 31.0916 14.9841C31.0916 15.0656 31.1165 15.1683 31.1985 15.193C31.2806 15.2178 31.3412 15.1505 31.3911 15.0903C31.65 14.7754 31.8472 14.415 31.9724 14.0279C32.1435 13.5002 33.0421 14.8424 33.1063 15.0266C33.3166 15.6092 33.4072 16.2278 33.3729 16.8457C33.3386 17.4637 33.1801 18.0686 32.9066 18.6248C32.3503 19.7333 31.2057 20.4203 30.1573 21.0259C27.8216 22.3788 23.8277 23.6679 23.2714 23.8202C22.5154 24.0291 22.6616 24.7834 23.0896 26.8269C23.4818 28.6331 24.4161 31.5406 23.7707 31.8417Z" fill="#263238"/>
<path d="M34.5042 36.088C34.5042 36.088 30.332 36.9627 28.8486 36.8529C27.9783 36.7902 27.1477 36.4666 26.4666 35.925C26.9507 36.5494 27.5572 37.0699 28.2495 37.455C29.6189 38.1987 34.8965 37.0123 34.8965 37.0123L34.5042 36.088Z" fill="#F28F8F"/>
<path d="M27.9856 25.3039L26.7447 26.6497C26.5659 26.477 26.4612 26.2424 26.4526 25.9949C26.444 25.7474 26.532 25.5062 26.6983 25.3216C26.7808 25.2351 26.88 25.1659 26.9899 25.118C27.0998 25.0702 27.2182 25.0447 27.3382 25.0431C27.4582 25.0414 27.5773 25.0636 27.6885 25.1084C27.7997 25.1532 27.9007 25.2197 27.9856 25.3039Z" fill="#263238"/>
<path d="M31.9832 32.178L33.8196 32.093C33.8308 32.213 33.8176 32.334 33.7806 32.4488C33.7437 32.5635 33.6838 32.6697 33.6045 32.761C33.5253 32.8522 33.4284 32.9267 33.3195 32.9798C33.2106 33.033 33.0921 33.0638 32.9709 33.0705C32.722 33.0774 32.4801 32.9884 32.2959 32.822C32.1118 32.6555 31.9997 32.4248 31.9832 32.178Z" fill="#F28F8F"/>
<path d="M35.5383 23.1686L33.7554 22.7153C33.7796 22.5973 33.8277 22.4855 33.8968 22.3866C33.9658 22.2877 34.0544 22.2037 34.1571 22.1398C34.2598 22.0759 34.3745 22.0334 34.4942 22.0148C34.614 21.9962 34.7362 22.002 34.8537 22.0318C35.0921 22.0991 35.2956 22.2542 35.4228 22.4654C35.5501 22.6767 35.5914 22.9281 35.5383 23.1686Z" fill="#263238"/>
<path d="M31.7334 25.9417L32.9494 30.2871L35.089 28.998L31.7334 25.9417Z" fill="#F28F8F"/>
<path d="M28.3494 27.8894C28.3501 28.0461 28.3975 28.1991 28.4857 28.3291C28.5739 28.4591 28.6989 28.5602 28.8449 28.6197C28.991 28.6792 29.1514 28.6945 29.3062 28.6634C29.4609 28.6324 29.6029 28.5566 29.7142 28.4455C29.8256 28.3344 29.9013 28.1931 29.9318 28.0393C29.9624 27.8855 29.9463 27.7262 29.8858 27.5814C29.8252 27.4367 29.7228 27.313 29.5916 27.226C29.4603 27.139 29.306 27.0925 29.1481 27.0925C29.043 27.0925 28.9388 27.1132 28.8416 27.1533C28.7445 27.1933 28.6563 27.2521 28.5821 27.3261C28.5078 27.4002 28.4491 27.488 28.4092 27.5847C28.3692 27.6814 28.3489 27.7849 28.3494 27.8894Z" fill="#263238"/>
<path d="M34.1298 25.6405C34.1291 25.7928 34.1739 25.9418 34.2587 26.0687C34.3435 26.1957 34.4643 26.2947 34.6058 26.3533C34.7473 26.4119 34.9032 26.4274 35.0537 26.3979C35.2041 26.3684 35.3423 26.2951 35.4507 26.1874C35.5592 26.0797 35.633 25.9425 35.6627 25.7931C35.6924 25.6437 35.6768 25.4888 35.6178 25.3483C35.5588 25.2077 35.4591 25.0877 35.3313 25.0035C35.2035 24.9194 35.0534 24.8748 34.9 24.8755C34.696 24.8764 34.5007 24.9573 34.3564 25.1006C34.2122 25.2438 34.1307 25.4379 34.1298 25.6405Z" fill="#263238"/>
<path d="M101.23 85.4424C100.927 85.6478 101.398 86.944 101.673 87.2627C102.245 87.8149 102.951 88.2103 103.723 88.4102C105.127 88.8372 106.439 89.5193 107.592 90.4217C109.014 91.5654 110.669 92.3905 112.442 92.8406C114.546 93.3045 116.978 92.7131 119.099 91.4629C121.325 90.1561 121.118 88.9024 120.815 88.0666L101.23 85.4424Z" fill="#37474F"/>
<path d="M106.044 78.168C106.758 78.9188 110.637 82.7294 113.615 83.6998C115.986 84.4718 119.071 85.2085 120.422 86.6428C121.827 88.1373 119.734 90.0497 116.856 91.1476C113.854 92.288 111.814 91.3672 109.821 90.372C108.419 89.6637 106.355 88.2471 105.317 87.6769C104.279 87.1067 102.357 86.7951 101.555 85.9487C101.113 85.4812 100.795 84.1779 100.603 83.034C100.428 81.9715 99.722 81.0118 100.082 80.9551L100.667 81.5891C103.377 82.0849 106.201 79.5987 106.044 78.168Z" fill="url(#paint2_linear_0_1)"/>
<path d="M12.0316 34.5581C10.3226 35.4749 8.47716 36.1146 6.56494 36.4528C6.56494 36.4528 9.59244 37.2071 13.1941 35.1354L12.0316 34.5581Z" fill="#F28F8F"/>
</g>
<defs>
<linearGradient id="paint0_linear_0_1" x1="94.7046" y1="45.303" x2="76.9356" y2="44.3337" gradientUnits="userSpaceOnUse">
<stop stop-color="#92A3FD"/>
<stop offset="1" stop-color="#9DCEFF"/>
</linearGradient>
<linearGradient id="paint1_linear_0_1" x1="57.1015" y1="70.1183" x2="11.6483" y2="66.5216" gradientUnits="userSpaceOnUse">
<stop stop-color="#92A3FD"/>
<stop offset="1" stop-color="#9DCEFF"/>
</linearGradient>
<linearGradient id="paint2_linear_0_1" x1="120.871" y1="91.6746" x2="93.2581" y2="88.37" gradientUnits="userSpaceOnUse">
<stop stop-color="#92A3FD"/>
<stop offset="1" stop-color="#9DCEFF"/>
</linearGradient>
<clipPath id="clip0_0_1">
<rect width="121" height="82" fill="white" transform="translate(0 11)"/>
</clipPath>
</defs>
</svg>
