<svg width="50" height="50" viewBox="0 0 50 50" fill="none" xmlns="http://www.w3.org/2000/svg">
<circle opacity="0.3" cx="25" cy="25" r="25" fill="url(#paint0_linear_2_4033)"/>
<mask id="mask0_2_4033" style="mask-type:alpha" maskUnits="userSpaceOnUse" x="0" y="0" width="50" height="50">
<circle cx="25" cy="25" r="25" fill="#C4C4C4"/>
</mask>
<g mask="url(#mask0_2_4033)">
<path d="M33.0843 15.2444C33.0843 15.2444 33.0843 15.4053 33.0602 15.6787C32.9838 16.8491 32.7224 20.1429 32.1231 22.017C31.9542 22.5398 31.4274 23.7745 30.808 25.1741C29.8991 27.2734 28.7891 29.6864 28.3668 30.7522C28.2301 31.0981 26.9029 30.4425 26.549 30.3782C25.6562 30.2052 25.5476 28.6126 25.8371 27.2734C25.9309 26.8046 26.1021 26.3547 26.3439 25.9422L26.4203 25.8256L26.4726 25.7492C26.9632 25.0333 27.7636 24.1083 28.4834 23.2678C29.0161 22.6866 29.4891 22.0533 29.8951 21.3775C30.2973 20.5209 31.5882 15.3932 31.5882 15.3932C32.1955 14.7336 33.0843 15.2444 33.0843 15.2444Z" fill="#FFEDE5"/>
<path d="M33.2532 14.6893C33.209 14.8824 33.1728 15.0674 33.1446 15.2162C33.0924 15.4897 33.0682 15.6707 33.0682 15.6707C32.6178 16.1412 31.7411 15.6707 31.7411 15.6707C31.6813 15.5902 31.6276 15.5055 31.5802 15.4173C31.3386 15.002 31.2423 14.518 31.3067 14.0418C31.3711 13.6759 31.4354 12.8353 31.4354 12.8353H31.5963C31.7652 12.8353 31.8175 13.3582 31.8295 13.6035C31.8327 13.6369 31.8327 13.6706 31.8295 13.704C31.8388 13.6607 31.8566 13.6197 31.8818 13.5834C31.9354 13.5185 32.0042 13.468 32.0821 13.4364C32.1601 13.4049 32.2446 13.3931 32.3282 13.4024C32.5333 13.4024 32.7304 13.4024 32.9395 13.4024C33.0338 13.4004 33.1272 13.4196 33.213 13.4587C33.2436 13.4713 33.2711 13.4905 33.2934 13.515C33.5629 13.7885 33.3256 14.4038 33.2532 14.6893Z" fill="#FFEDE5"/>
<path d="M33.2532 14.6894C33.209 14.8824 33.1728 15.0674 33.1446 15.2162C33.1131 15.1682 33.0781 15.1225 33.0401 15.0795C32.8626 14.9073 32.6537 14.7707 32.4247 14.6773C32.1673 14.5406 31.4595 14.1384 31.6767 13.7322C31.7135 13.6768 31.7671 13.6346 31.8295 13.6116L31.8898 13.5915C32.2227 13.5413 32.5587 13.5144 32.8953 13.511C33.0039 13.511 33.1124 13.4748 33.221 13.4628C33.2511 13.4764 33.2784 13.4955 33.3015 13.5191C33.5629 13.7885 33.3256 14.4039 33.2532 14.6894Z" fill="#E0855C"/>
<path d="M27.1121 22.2663C27.2441 21.5101 27.4295 20.7642 27.6671 20.0342C27.6965 19.9556 27.7053 19.8708 27.6926 19.7878C27.6798 19.7048 27.646 19.6265 27.5944 19.5603C27.5427 19.4941 27.4749 19.4423 27.3975 19.4098C27.3201 19.3773 27.2357 19.3652 27.1523 19.3747C26.9804 19.4048 26.8129 19.4561 26.6536 19.5275C26.6536 19.5275 27.0558 18.3692 26.4887 17.9872C25.9216 17.6051 25.0811 18.3371 24.7553 18.884C24.8184 18.7671 24.836 18.6309 24.8049 18.5018C24.7737 18.3726 24.6959 18.2595 24.5864 18.1842C24.1843 17.9268 22.3865 19.9096 22.7404 21.5384C23.0944 23.1672 23.2432 22.7087 23.2432 22.7087C23.2432 22.7087 26.9995 22.4754 27.1121 22.2663Z" fill="#3B2645"/>
<path d="M23.1426 22.0049C23.1026 21.9501 23.0503 21.9054 22.9898 21.8747C22.9294 21.8439 22.8625 21.8279 22.7947 21.8279C22.7268 21.8279 22.66 21.8439 22.5995 21.8747C22.5391 21.9054 22.4867 21.9501 22.4468 22.0049C22.0969 22.4071 22.6921 23.2114 23.1426 23.2597C23.169 22.8418 23.169 22.4228 23.1426 22.0049Z" fill="#E0855C"/>
<path d="M29.6297 26.8712C29.0959 28.1322 28.6733 29.4376 28.3669 30.7723C28.3428 30.9009 28.3186 31.0216 28.2985 31.1382C28.1658 31.9426 27.7636 35.908 27.6993 36.5314C27.6993 36.5837 27.6993 36.6118 27.6993 36.6118C24.5503 37.4805 21.2645 36.6118 21.2645 36.6118C21.2645 36.6118 21.2645 36.5515 21.2645 36.4349C21.1921 35.6627 20.8824 32.4574 20.6974 29.6864C20.6009 28.2707 20.5406 26.9717 20.5567 26.1633C20.5567 25.8657 21.2484 25.8979 21.723 25.8295C22.2926 25.7564 22.866 25.7161 23.4403 25.7089H23.6172L23.6574 25.2464L23.6896 24.9367L23.766 24.1082C23.8183 24.1082 23.8706 24.1283 23.9229 24.1324C24.0238 24.1509 24.126 24.1616 24.2285 24.1645C24.353 24.1747 24.4781 24.1747 24.6025 24.1645L24.7795 24.1444C24.8578 24.1366 24.9357 24.1245 25.0128 24.1082C25.1414 24.0801 25.2661 24.0439 25.3828 24.0077L25.4873 23.9715H25.5155L25.5959 23.9393C25.746 23.8796 25.8912 23.8083 26.0303 23.7262C26.1067 23.6819 26.171 23.6377 26.2233 23.6015L26.2595 23.5774L26.3279 23.5251C26.3469 23.5157 26.3635 23.5019 26.3761 23.4849C26.3761 23.5452 26.3761 23.5693 26.3761 23.5975C26.3399 23.8589 26.3037 24.1967 26.2876 24.5345C26.2876 24.7638 26.2635 24.993 26.2555 25.1941C26.2555 25.5359 26.2555 25.7853 26.2555 25.7853C26.3305 25.7813 26.4057 25.7813 26.4807 25.7853C26.4844 25.7832 26.4885 25.7821 26.4928 25.7821C26.497 25.7821 26.5011 25.7832 26.5048 25.7853C26.8328 25.8006 27.1593 25.8383 27.4821 25.8979C28.2234 26.0311 28.9363 26.291 29.5895 26.6661C29.6189 26.6903 29.6389 26.724 29.6462 26.7614C29.6536 26.7988 29.6477 26.8376 29.6297 26.8712Z" fill="#FFEDE5"/>
<path d="M26.368 23.4487C26.3145 23.7369 26.1974 24.0096 26.0254 24.2469C25.8534 24.4842 25.6307 24.6803 25.3735 24.8208C25.1162 24.9614 24.8309 25.0429 24.5383 25.0595C24.2456 25.076 23.953 25.0273 23.6815 24.9167L23.7579 24.0882C24.2134 24.176 24.6824 24.1644 25.1329 24.054C25.5835 23.9436 26.0048 23.7372 26.368 23.4487Z" fill="#E0855C"/>
<path d="M23.2431 20.7983C23.0099 21.0356 22.9938 21.5785 22.9737 22.1737C22.9133 23.9795 23.4563 24.5466 24.3773 24.6431C25.2982 24.7396 26.2675 24.3897 26.4645 22.7127C26.5651 21.8761 26.6696 21.104 26.368 20.738C25.8935 20.1991 23.9308 20.0583 23.2431 20.7983Z" fill="#FFEDE5"/>
<path d="M26.3157 22.4714C26.3157 22.4714 26.6013 21.7233 27.0437 22.1215C27.4861 22.5196 26.8627 23.6538 26.1951 23.5653C26.1951 23.5653 26.0986 22.7288 26.3157 22.4714Z" fill="#FFEDE5"/>
<path d="M26.8386 22.4473C26.7345 22.4834 26.6407 22.5441 26.5651 22.6243C26.4831 22.6946 26.416 22.7808 26.368 22.8776C26.368 22.9098 26.3962 22.9259 26.4203 22.9098C26.4445 22.8937 26.5209 22.7891 26.5772 22.7328C26.6114 22.7772 26.6555 22.813 26.7059 22.8374C26.7151 22.8389 26.7246 22.8379 26.7333 22.8344C26.7421 22.831 26.7497 22.8253 26.7555 22.8179C26.7612 22.8105 26.7649 22.8017 26.7661 22.7924C26.7672 22.7831 26.7659 22.7736 26.7622 22.765C26.7342 22.7236 26.697 22.6892 26.6536 22.6645C26.7287 22.615 26.8 22.5599 26.8667 22.4996C26.8707 22.4947 26.8732 22.4886 26.8738 22.4823C26.8744 22.476 26.8731 22.4697 26.8701 22.4641C26.8671 22.4585 26.8625 22.4539 26.8569 22.4509C26.8513 22.4479 26.8449 22.4467 26.8386 22.4473Z" fill="#E0855C"/>
<path d="M23.7458 22.1295C23.7458 22.1295 23.589 22.1899 23.6131 21.9124C23.6372 21.6349 23.7458 21.6992 23.7458 21.6992C23.7458 21.6992 23.8544 21.6992 23.8383 21.9164C23.8223 22.1336 23.7458 22.1295 23.7458 22.1295Z" fill="#3B2645"/>
<path d="M25.3304 22.1295C25.3304 22.1295 25.1736 22.1899 25.1977 21.9124C25.2218 21.6349 25.3304 21.6992 25.3304 21.6992C25.3304 21.6992 25.439 21.6992 25.4229 21.9164C25.4068 22.1336 25.3304 22.1295 25.3304 22.1295Z" fill="#3B2645"/>
<path d="M24.4496 22.8695C24.3732 22.8695 24.1923 22.9017 24.152 22.8172C24.1676 22.6255 24.2068 22.4363 24.2687 22.2542C24.343 22.0084 24.4034 21.7587 24.4496 21.5061C24.4496 21.5061 24.4496 21.486 24.4215 21.5061C24.2625 21.9436 24.1375 22.3927 24.0475 22.8494C24.0463 22.855 24.0464 22.8607 24.0476 22.8663C24.0488 22.8719 24.0513 22.8771 24.0547 22.8817C24.0581 22.8863 24.0625 22.89 24.0675 22.8928C24.0725 22.8955 24.078 22.8972 24.0837 22.8977C24.2003 22.8977 24.3129 22.9218 24.4295 22.9218C24.4858 22.9379 24.4979 22.8735 24.4496 22.8695Z" fill="#E0855C"/>
<path d="M23.9188 21.2931C23.8062 21.2328 23.5971 21.2207 23.5166 21.3373C23.5138 21.3422 23.5123 21.3478 23.5123 21.3535C23.5123 21.3592 23.5139 21.3647 23.5167 21.3696C23.5196 21.3745 23.5237 21.3786 23.5286 21.3814C23.5335 21.3842 23.5391 21.3856 23.5448 21.3856C23.6011 21.3856 23.6494 21.3574 23.7057 21.3534C23.7646 21.3506 23.8236 21.3602 23.8786 21.3816C23.9309 21.3977 23.9671 21.3172 23.9188 21.2931Z" fill="#3B2645"/>
<path d="M25.5637 21.4299C25.4993 21.269 25.2218 21.2529 25.1052 21.3534C25.0984 21.3567 25.0927 21.3619 25.0887 21.3683C25.0846 21.3747 25.0825 21.3821 25.0825 21.3896C25.0825 21.3972 25.0846 21.4046 25.0887 21.411C25.0927 21.4174 25.0984 21.4225 25.1052 21.4258C25.1736 21.45 25.246 21.4258 25.3184 21.4258C25.3768 21.4352 25.4337 21.4528 25.4873 21.4781C25.5396 21.4942 25.5758 21.458 25.5637 21.4299Z" fill="#3B2645"/>
<path d="M24.0475 23.4287C24.3928 23.474 24.7438 23.4122 25.0529 23.2517C25.0066 23.3586 24.9388 23.4549 24.8537 23.5344C24.7686 23.614 24.668 23.6752 24.5582 23.7142C24.2084 23.8188 24.0475 23.4287 24.0475 23.4287Z" fill="white"/>
<path d="M23.4001 30.3781C23.0542 30.4425 21.4656 30.6194 21.1841 30.3781C20.982 30.1765 20.8149 29.9428 20.6894 29.6864C20.0452 28.3296 19.4825 26.9356 19.0043 25.5118C18.4654 23.9916 18.0069 22.5759 17.834 22.037C17.2106 20.1428 16.9693 16.845 16.8929 15.6746C16.8728 15.4012 16.8647 15.2443 16.8647 15.2443C16.8647 15.2443 17.7455 14.7456 18.3729 15.4012C18.3729 15.4012 19.684 20.5329 20.0701 21.3895C20.3943 21.9478 20.7757 22.4707 21.2082 22.95C21.9522 23.8428 22.8692 24.8884 23.4322 25.6888L23.5368 25.8376L23.6132 25.9542C23.9678 26.5972 24.179 27.3092 24.2326 28.0415C24.3371 29.1515 24.132 30.2374 23.4001 30.3781Z" fill="#FFEDE5"/>
<path d="M18.3729 15.4012C18.3255 15.4894 18.2717 15.5741 18.212 15.6545C18.212 15.6545 17.3393 16.1372 16.8929 15.6747C16.8929 15.6747 16.8728 15.55 16.8366 15.3569C16.8004 15.1639 16.7602 14.9548 16.6998 14.6893C16.6516 14.4963 16.3379 13.7281 16.4987 13.5914C16.5372 13.5654 16.5813 13.5488 16.6274 13.5431L17.1664 13.4466C17.476 13.3903 17.9948 13.3059 18.1195 13.696C18.1195 13.4707 18.1195 12.9399 18.3528 12.8232H18.5217C18.5217 12.8232 18.582 13.6477 18.6464 14.0298C18.7098 14.5046 18.6136 14.987 18.3729 15.4012Z" fill="#FFEDE5"/>
<path d="M20.6492 37.3277C20.6492 37.3277 18.9842 41.82 18.9158 50.3179C18.9158 50.9936 17.6007 55.6709 18.1115 62.2062L20.0701 62.5762C20.0701 62.5762 21.9683 55.6749 22.0528 50.9654C22.0528 50.9654 24.4658 42.6083 24.6307 38.7635C24.7956 34.9187 22.2378 33.672 20.6492 37.3277Z" fill="#FFEDE5"/>
<path d="M28.2381 37.3277C28.2381 37.3277 29.9031 41.82 29.9675 50.3179C29.9675 50.9936 31.2866 55.6709 30.7718 62.2062L28.8132 62.5762C28.8132 62.5762 26.919 55.6749 26.8305 50.9654C26.8305 50.9654 24.4175 42.6083 24.2526 38.7635C24.0877 34.9187 26.6495 33.672 28.2381 37.3277Z" fill="#FFEDE5"/>
<path d="M30.8081 25.1741C29.8992 27.2734 28.7932 29.6865 28.3669 30.7522C28.3428 30.8809 28.3186 31.0016 28.2985 31.1182C28.1658 31.9226 27.7636 35.888 27.6993 36.5114C26.6094 36.8452 24.3934 37.2393 21.2645 36.4149C21.1921 35.6427 20.8824 32.4374 20.6974 29.6664C20.0532 28.3096 19.4905 26.9156 19.0123 25.4918C19.7644 25.0172 20.8181 24.1687 21.2162 22.9501C21.9603 23.8429 22.8772 24.8886 23.4403 25.6889H23.5207C23.5207 25.7331 23.5207 25.7854 23.5448 25.8377C23.6452 26.6075 23.8808 27.3536 24.2406 28.0416C24.2927 28.1375 24.3662 28.2201 24.4555 28.2829C24.5448 28.3457 24.6475 28.387 24.7554 28.4036C25.1575 28.4036 25.5396 27.8968 25.8453 27.2855C26.0745 26.8177 26.2694 26.3338 26.4284 25.8377L26.4566 25.7613C26.4602 25.7592 26.4644 25.758 26.4686 25.758C26.4729 25.758 26.477 25.7592 26.4807 25.7613C26.9713 25.0454 27.7717 24.1204 28.4916 23.2799C28.8736 23.8268 29.7906 24.9207 30.8081 25.1741Z" fill="#E8CEE5"/>
<path d="M30.056 46.4853C28.9996 47.0355 27.8077 47.2714 26.6214 47.1649C26.2035 47.1294 25.7951 47.0205 25.4149 46.8432L24.4497 41.4541L23.5126 46.8432C21.4776 47.5792 18.6865 46.2359 18.6865 46.2359C19.5753 37.5208 21.2323 36.2137 21.2323 36.2137C23.963 37.1025 27.7234 36.2419 27.7234 36.2419C29.6498 38.8279 30.056 46.4853 30.056 46.4853Z" fill="#3B2645"/>
<path d="M16.8727 15.3369H16.8365C16.8043 15.164 16.7601 14.9348 16.6997 14.6693C16.6515 14.4763 16.3418 13.7121 16.4987 13.5714C16.5375 13.546 16.5814 13.5295 16.6274 13.5231L17.1663 13.4266C17.3945 13.3684 17.6338 13.3684 17.862 13.4266C17.9705 13.477 18.0614 13.5587 18.123 13.6612C18.1847 13.7637 18.2142 13.8823 18.2079 14.0017C18.2079 14.7256 17.0617 15.2364 16.8727 15.3369Z" fill="#E0855C"/>
<path d="M38.4493 13.7925H10.2328C10.1686 13.7845 10.1094 13.7533 10.0665 13.7048C10.0237 13.6563 10 13.5938 10 13.529C10 13.4643 10.0237 13.4018 10.0665 13.3533C10.1094 13.3047 10.1686 13.2736 10.2328 13.2656H38.4493C38.5136 13.2736 38.5727 13.3047 38.6156 13.3533C38.6585 13.4018 38.6822 13.4643 38.6822 13.529C38.6822 13.5938 38.6585 13.6563 38.6156 13.7048C38.5727 13.7533 38.5136 13.7845 38.4493 13.7925Z" fill="#3B2645"/>
<path d="M11.1296 14.8784C11.0109 14.8784 10.8969 14.8315 10.8125 14.7479C10.7282 14.6643 10.6803 14.5507 10.6792 14.432V12.6262C10.6792 12.5068 10.7267 12.3922 10.8111 12.3077C10.8956 12.2232 11.0102 12.1758 11.1296 12.1758C11.2491 12.1758 11.3637 12.2232 11.4481 12.3077C11.5326 12.3922 11.5801 12.5068 11.5801 12.6262V14.432C11.5801 14.4909 11.5684 14.5493 11.5457 14.6037C11.523 14.6582 11.4898 14.7076 11.4479 14.7491C11.406 14.7906 11.3563 14.8234 11.3017 14.8456C11.2471 14.8678 11.1886 14.8789 11.1296 14.8784Z" fill="#3B2645"/>
<path d="M12.0225 16.4549C11.9051 16.4549 11.7926 16.4083 11.7097 16.3253C11.6267 16.2424 11.5801 16.1298 11.5801 16.0125V11.0497C11.5801 10.9313 11.6271 10.8177 11.7108 10.734C11.7945 10.6503 11.9081 10.6033 12.0265 10.6033C12.1449 10.6033 12.2584 10.6503 12.3422 10.734C12.4259 10.8177 12.4729 10.9313 12.4729 11.0497V16.0125C12.4724 16.0711 12.4603 16.1291 12.4374 16.183C12.4145 16.237 12.3811 16.2859 12.3393 16.327C12.2975 16.3681 12.248 16.4005 12.1936 16.4225C12.1392 16.4444 12.0811 16.4554 12.0225 16.4549Z" fill="#291B30"/>
<path d="M12.9153 17.219C12.7969 17.219 12.6833 17.172 12.5996 17.0883C12.5159 17.0046 12.4689 16.891 12.4689 16.7726V10.4464C12.4689 10.328 12.5159 10.2145 12.5996 10.1308C12.6833 10.047 12.7969 10 12.9153 10C13.0337 10 13.1472 10.047 13.2309 10.1308C13.3147 10.2145 13.3617 10.328 13.3617 10.4464V16.7605C13.3633 16.8202 13.353 16.8795 13.3312 16.9351C13.3095 16.9906 13.2769 17.0413 13.2353 17.084C13.1937 17.1268 13.1439 17.1607 13.089 17.1839C13.034 17.2071 12.9749 17.219 12.9153 17.219Z" fill="#3B2645"/>
<path d="M37.1624 14.8784C37.2808 14.8784 37.3943 14.8314 37.478 14.7476C37.5617 14.6639 37.6088 14.5504 37.6088 14.432V12.6262C37.6088 12.5676 37.5972 12.5095 37.5748 12.4554C37.5524 12.4012 37.5195 12.352 37.478 12.3106C37.4366 12.2691 37.3874 12.2362 37.3332 12.2138C37.279 12.1914 37.221 12.1798 37.1624 12.1798C37.1037 12.1798 37.0457 12.1914 36.9915 12.2138C36.9374 12.2362 36.8881 12.2691 36.8467 12.3106C36.8052 12.352 36.7724 12.4012 36.7499 12.4554C36.7275 12.5095 36.7159 12.5676 36.7159 12.6262V14.432C36.7159 14.5504 36.763 14.6639 36.8467 14.7476C36.9304 14.8314 37.044 14.8784 37.1624 14.8784Z" fill="#3B2645"/>
<path d="M36.2695 16.4549C36.3872 16.4549 36.5002 16.4084 36.5838 16.3256C36.6674 16.2427 36.7149 16.1302 36.7159 16.0125V11.0497C36.7159 10.9313 36.6689 10.8177 36.5852 10.734C36.5015 10.6503 36.3879 10.6033 36.2695 10.6033C36.1511 10.6033 36.0376 10.6503 35.9539 10.734C35.8702 10.8177 35.8231 10.9313 35.8231 11.0497V16.0125C35.8242 16.1302 35.8717 16.2427 35.9553 16.3256C36.0389 16.4084 36.1518 16.4549 36.2695 16.4549Z" fill="#291B30"/>
<path d="M35.3768 17.219C35.4951 17.219 35.6087 17.172 35.6924 17.0883C35.7761 17.0046 35.8232 16.891 35.8232 16.7726V10.4464C35.8232 10.328 35.7761 10.2145 35.6924 10.1308C35.6087 10.047 35.4951 10 35.3768 10C35.2584 10 35.1448 10.047 35.0611 10.1308C34.9774 10.2145 34.9303 10.328 34.9303 10.4464V16.7605C34.9287 16.8202 34.9391 16.8795 34.9608 16.9351C34.9825 16.9906 35.0151 17.0413 35.0567 17.084C35.0984 17.1268 35.1481 17.1607 35.2031 17.1839C35.258 17.2071 35.3171 17.219 35.3768 17.219Z" fill="#3B2645"/>
<path d="M16.8807 14.0982C16.8967 14.138 16.9214 14.1738 16.9531 14.2027C17.001 14.2344 17.0566 14.2524 17.114 14.255C17.2927 14.2719 17.4729 14.2624 17.6489 14.2269C17.8121 14.2051 17.9621 14.1251 18.0711 14.0016C18.128 13.9204 18.1627 13.8258 18.1719 13.727C18.181 13.6283 18.1643 13.5289 18.1234 13.4386C18.0629 13.2964 17.9693 13.1708 17.8504 13.0721C17.7314 12.9735 17.5906 12.9047 17.4397 12.8715C17.1904 12.8152 16.559 12.8394 16.4584 13.149C16.4061 13.3019 16.5549 13.4547 16.6273 13.5753C16.6997 13.696 16.8083 13.9293 16.8807 14.0982Z" fill="#FFEDE5"/>
<path d="M32.8953 14.0982C32.8793 14.1391 32.8529 14.1751 32.8188 14.2027C32.7712 14.2349 32.7154 14.2531 32.658 14.255C32.4806 14.2718 32.3017 14.2623 32.1271 14.2269C31.9586 14.2071 31.8029 14.1271 31.6887 14.0016C31.6318 13.9204 31.5973 13.8255 31.5888 13.7266C31.5804 13.6277 31.5982 13.5284 31.6405 13.4386C31.7006 13.2969 31.7936 13.1716 31.9118 13.0729C32.03 12.9743 32.17 12.9053 32.3201 12.8715C32.5735 12.8152 33.2049 12.8394 33.3055 13.149C33.3578 13.3019 33.2089 13.4547 33.1366 13.5753C33.0642 13.696 32.9837 13.9293 32.8953 14.0982Z" fill="#FFEDE5"/>
<path d="M26.6214 47.165C26.2035 47.1294 25.7951 47.0205 25.4149 46.8432L24.4497 41.4541C24.4497 41.4541 25.6562 43.1794 26.6214 47.165Z" fill="#291B30"/>
<path d="M23.1305 32.2925C23.1282 32.3139 23.1282 32.3354 23.1305 32.3568C23.1305 32.3568 23.1667 32.3568 23.1587 32.3568L23.1305 32.2925Z" fill="#D6BED3"/>
<path d="M27.3172 28.13C27.1324 27.5174 27.0072 26.8885 26.9432 26.2518C26.9432 26.2348 26.9364 26.2184 26.9243 26.2063C26.9122 26.1943 26.8959 26.1875 26.8788 26.1875C26.8617 26.1875 26.8454 26.1943 26.8333 26.2063C26.8212 26.2184 26.8145 26.2348 26.8145 26.2518C26.6737 27.4141 27.1643 28.8338 27.7757 29.8111C27.7862 29.8259 27.8015 29.8367 27.819 29.8418C27.8366 29.8468 27.8553 29.8457 27.8721 29.8387C27.8889 29.8317 27.9029 29.8191 27.9117 29.8032C27.9204 29.7872 27.9235 29.7687 27.9204 29.7508C27.7676 29.1958 27.4982 28.677 27.3172 28.13Z" fill="#D6BED3"/>
<path d="M22.8893 26.0347C22.5595 26.5535 22.278 27.1045 21.9482 27.6434C21.6184 28.1823 21.2323 28.6408 20.9428 29.1797C20.9374 29.1866 20.9351 29.1954 20.9362 29.2041C20.9373 29.2127 20.9419 29.2206 20.9488 29.2259C20.9557 29.2313 20.9645 29.2336 20.9732 29.2325C20.9818 29.2314 20.9897 29.2268 20.995 29.2199C21.8657 28.3156 22.5491 27.2482 23.0059 26.0789C23.026 26.0146 22.9255 25.9744 22.8893 26.0347Z" fill="#D6BED3"/>
</g>
<defs>
<linearGradient id="paint0_linear_2_4033" x1="50" y1="50" x2="-16.6397" y2="44.8434" gradientUnits="userSpaceOnUse">
<stop stop-color="#C58BF2"/>
<stop offset="1" stop-color="#EEA4CE"/>
</linearGradient>
</defs>
</svg>
